<svg width="24" height="24" viewBox="0 0 24 24" fill="none" xmlns="http://www.w3.org/2000/svg">
<g clip-path="url(#clip0_1947_64829)">
<path d="M24 12C24 5.37261 18.6274 2.67029e-05 12 2.67029e-05C5.37258 2.67029e-05 0 5.37261 0 12C0 17.9895 4.3882 22.954 10.125 23.8542V15.4688H7.07812V12H10.125V9.35628C10.125 6.34878 11.9166 4.68753 14.6576 4.68753C15.9701 4.68753 17.3438 4.9219 17.3438 4.9219V7.87503H15.8306C14.34 7.87503 13.875 8.80011 13.875 9.75003V12H17.2031L16.6711 15.4688H13.875V23.8542C19.6118 22.954 24 17.9895 24 12Z" fill="#707276"/>
<path d="M16.6711 15.4688L17.2031 12H13.875V9.75003C13.875 8.80104 14.34 7.87503 15.8306 7.87503H17.3438V4.9219C17.3438 4.9219 15.9705 4.68753 14.6576 4.68753C11.9166 4.68753 10.125 6.34878 10.125 9.35628V12H7.07812V15.4688H10.125V23.8542C11.3674 24.0486 12.6326 24.0486 13.875 23.8542V15.4688H16.6711Z" fill="#191919"/>
</g>
<defs>
<clipPath id="clip0_1947_64829">
<rect width="24" height="24" fill="white"/>
</clipPath>
</defs>
</svg>
