<svg width="24" height="24" viewBox="0 0 24 24" fill="none" xmlns="http://www.w3.org/2000/svg">
<g clip-path="url(#clip0_1947_64832)">
<path d="M23.5216 6.18553C23.3859 5.67494 23.1185 5.20895 22.7462 4.83418C22.3738 4.45942 21.9095 4.18903 21.3998 4.05007C19.5234 3.54553 12.0234 3.54553 12.0234 3.54553C12.0234 3.54553 4.52344 3.54553 2.64707 4.05007C2.13737 4.18903 1.6731 4.45942 1.30073 4.83418C0.928354 5.20895 0.660943 5.67494 0.525256 6.18553C0.0234376 8.07007 0.0234375 12.0001 0.0234375 12.0001C0.0234375 12.0001 0.0234376 15.9301 0.525256 17.8146C0.660943 18.3252 0.928354 18.7912 1.30073 19.166C1.6731 19.5407 2.13737 19.8111 2.64707 19.9501C4.52344 20.4546 12.0234 20.4546 12.0234 20.4546C12.0234 20.4546 19.5234 20.4546 21.3998 19.9501C21.9095 19.8111 22.3738 19.5407 22.7462 19.166C23.1185 18.7912 23.3859 18.3252 23.5216 17.8146C24.0234 15.9301 24.0234 12.0001 24.0234 12.0001C24.0234 12.0001 24.0234 8.07007 23.5216 6.18553Z" fill="#707276"/>
<path d="M9.56934 15.5687V8.43142L15.8421 12.0001L9.56934 15.5687Z" fill="#191919"/>
</g>
<defs>
<clipPath id="clip0_1947_64832">
<rect width="24" height="24" fill="white"/>
</clipPath>
</defs>
</svg>
