<svg width="16" height="16" viewBox="0 0 16 16" fill="none" xmlns="http://www.w3.org/2000/svg">
<g clip-path="url(#clip0_2183_1887)">
<path d="M14.205 11.3333H1.79471C1.1742 11.3333 0.666504 10.8533 0.666504 10.2667V8.13333C0.666504 6.96 1.68189 6 2.92291 6H13.0768C14.3178 6 15.3332 6.96 15.3332 8.13333V10.2667C15.3332 10.8533 14.8255 11.3333 14.205 11.3333Z" stroke="#E0102C" stroke-width="2" stroke-miterlimit="10" stroke-linecap="round" stroke-linejoin="round"/>
<path d="M13.3332 6H2.6665L3.73317 3.80952C4.05317 3.14285 4.79984 2.66666 5.65317 2.66666H10.2932C11.1465 2.66666 11.8932 3.14285 12.2665 3.80952L13.3332 6Z" stroke="#E0102C" stroke-width="2" stroke-miterlimit="10" stroke-linecap="round" stroke-linejoin="round"/>
<path d="M4.66634 11.3333H1.33301V12.3333C1.33301 12.8833 1.83301 13.3333 2.44412 13.3333H3.55523C4.16634 13.3333 4.66634 12.8833 4.66634 12.3333V11.3333Z" stroke="#E0102C" stroke-width="2" stroke-miterlimit="10" stroke-linecap="round" stroke-linejoin="round"/>
<path d="M14.6663 11.3333H11.333V12.3333C11.333 12.8833 11.833 13.3333 12.4441 13.3333H13.5552C14.1663 13.3333 14.6663 12.8833 14.6663 12.3333V11.3333Z" stroke="#E0102C" stroke-width="2" stroke-miterlimit="10" stroke-linecap="round" stroke-linejoin="round"/>
<path d="M1.33301 5.33333L2.66634 5.33333" stroke="#E0102C" stroke-width="2" stroke-miterlimit="10" stroke-linecap="round" stroke-linejoin="round"/>
<path d="M13.333 5.33333H14.6663" stroke="#E0102C" stroke-width="2" stroke-miterlimit="10" stroke-linecap="round" stroke-linejoin="round"/>
<path d="M10.6663 11.3333H5.33301L6.07967 9.88333C6.23967 9.53333 6.61301 9.33333 7.03967 9.33333H8.90634C9.33301 9.33333 9.70634 9.53333 9.86634 9.88333L10.6663 11.3333Z" stroke="#E0102C" stroke-width="2" stroke-miterlimit="10" stroke-linecap="round" stroke-linejoin="round"/>
<path d="M2.6665 8H3.99984" stroke="#E0102C" stroke-width="2" stroke-miterlimit="10" stroke-linecap="round" stroke-linejoin="round"/>
<path d="M12 8H13.3333" stroke="#E0102C" stroke-width="2" stroke-miterlimit="10" stroke-linecap="round" stroke-linejoin="round"/>
</g>
<defs>
<clipPath id="clip0_2183_1887">
<rect width="16" height="16" fill="white"/>
</clipPath>
</defs>
</svg>
