<svg width="76" height="62" viewBox="0 0 76 62" fill="none" xmlns="http://www.w3.org/2000/svg">
<rect width="61.9259" height="62" fill="#E0102C"/>
<rect x="61.7891" width="14.2114" height="62" fill="url(#paint0_linear_2217_74316)" fill-opacity="0.35"/>
<path d="M34.5133 10.5684H34.4569L34.3953 10.5735L34.344 10.5838L34.2824 10.5992L34.2209 10.6249L34.1337 10.666L34.1183 10.6762L34.0567 10.7173L33.9951 10.7687L33.9387 10.8303L33.8977 10.8817L31.3479 15.3658L31.312 15.4377L31.2966 15.4942L31.2761 15.5661L31.2607 15.674V15.7356V15.7561L31.2658 15.8794L31.312 16.0027L31.3736 16.1311L38.9664 29.4704L39.0587 29.5782L39.1408 29.6502L39.2639 29.7067L39.4076 29.7529L39.5307 29.7632L39.6333 29.758L39.7257 29.7375L39.8539 29.6861L39.9822 29.6091L40.054 29.5526L40.1463 29.4293L43.9735 22.7057L43.9992 22.6389L44.03 22.5157L44.0505 22.3821V22.3513L44.0454 22.2794L44.0351 22.2178L44.0197 22.1561L44.0043 22.115L43.9838 22.0739L43.9684 22.038L43.9479 22.0072L37.6736 10.969L37.5607 10.8098L37.4632 10.7225L37.4273 10.6916L37.3914 10.666L37.335 10.6351L37.2272 10.594L37.1092 10.5735L36.9553 10.5684H34.5133ZM24.3656 10.5684L24.2938 10.5786L24.1758 10.6095L24.0578 10.6608L24.0321 10.6762L23.9757 10.7276L23.9295 10.7687L23.8834 10.8149L23.8577 10.8457L23.8269 10.8765L23.8013 10.9125L23.7808 10.9485L17.5064 21.9763L17.4295 22.151L17.4038 22.2845L17.3987 22.3308L17.3936 22.3821V22.4489L17.4141 22.567L17.45 22.6698L17.5218 22.8084L18.7428 24.9555L18.7736 25.0068L18.8095 25.0582L18.8454 25.0993L18.8865 25.1455L18.9378 25.1866L19.0147 25.238L19.0301 25.2482L19.0968 25.2791L19.1738 25.3047L19.2558 25.3253L19.3225 25.3356H24.499L24.5554 25.3253L24.6273 25.3099L24.7299 25.2688L24.7812 25.238L24.7965 25.2277L24.8992 25.1609L24.9812 25.0582L25.0633 24.9401L32.651 11.5956L32.6972 11.457L32.7177 11.3491L32.7023 11.2104L32.6715 11.0563L32.6151 10.9433L32.5587 10.856L32.492 10.7841L32.3842 10.6968L32.2508 10.6249L32.1636 10.5889L32.0149 10.5684H24.3656ZM20.4153 26.106L20.3127 26.142L20.2049 26.2242L20.0921 26.3269L20.0254 26.4296L19.9792 26.5221L19.9484 26.6145L19.9279 26.7532L19.933 26.9073L19.9382 27.0049L19.9946 27.1436L23.8218 33.8672L23.868 33.9237L23.9552 34.011L24.0629 34.0829L24.0886 34.0983L24.1501 34.1291L24.2066 34.1497L24.2681 34.1651L24.3092 34.1753L24.3553 34.1805L24.3964 34.1856H24.4323H36.9861L37.1759 34.1651L37.3042 34.124L37.3503 34.1034L37.3914 34.0829L37.4478 34.0469L37.535 33.9699L37.6069 33.8877L37.6889 33.7542L38.91 31.6071L38.9356 31.5558L38.9613 31.4993L38.9766 31.4479L38.992 31.3863L39.0023 31.3195L39.0074 31.2219V31.2014L39.0023 31.1243L38.9869 31.0421L38.9613 30.9599L38.9356 30.8983L36.3859 26.4142L36.3499 26.3526L36.314 26.3115L36.2627 26.255L36.1755 26.1882L36.1242 26.1574L36.1088 26.1471L36.0011 26.0906L35.8728 26.0649L35.7292 26.0547H20.5487L20.4153 26.106Z" fill="white"/>
<mask id="mask0_2217_74316" style="mask-type:alpha" maskUnits="userSpaceOnUse" x="23" y="10" width="10" height="16">
<path fill-rule="evenodd" clip-rule="evenodd" d="M32.2569 10.9824L30.2613 12.1792L30.2715 12.2254L30.2767 12.2717L30.2664 12.3333L30.2407 12.3847L23.8689 23.8491L23.8587 23.8697L23.8382 23.8902L23.8125 23.9108L24.582 25.2976H24.6282L24.6949 25.2514L24.777 25.1487L24.8539 25.0305L32.298 11.6296L32.339 11.4909L32.3595 11.3831L32.3442 11.2444L32.3134 11.0903L32.2621 10.9824H32.2569Z" fill="white"/>
</mask>
<g mask="url(#mask0_2217_74316)">
<path d="M32.2569 10.9824L30.2613 12.1792L30.2715 12.2254L30.2767 12.2717L30.2664 12.3333L30.2407 12.3847L23.8689 23.8491L23.8587 23.8697L23.8382 23.8902L23.8125 23.9108L24.582 25.2976H24.6282L24.6949 25.2514L24.777 25.1487L24.8539 25.0305L32.298 11.6296L32.339 11.4909L32.3595 11.3831L32.3442 11.2444L32.3134 11.0903L32.2621 10.9824H32.2569Z" fill="url(#paint1_linear_2217_74316)"/>
</g>
<mask id="mask1_2217_74316" style="mask-type:alpha" maskUnits="userSpaceOnUse" x="39" y="22" width="5" height="8">
<path fill-rule="evenodd" clip-rule="evenodd" d="M42.2176 22.7153V22.7462L42.2124 22.777L42.1919 22.8129L39.6935 27.41L39.6627 27.4665L39.6216 27.5025L39.5755 27.523L39.5293 27.5333V29.8344L39.6216 29.8293L39.7089 29.8139L39.8269 29.7625L39.95 29.6855L40.0167 29.629L40.0988 29.5108L43.6284 23.0287L43.6489 22.9619L43.6797 22.8437L43.69 22.7307V22.7205L42.7101 22.7153H42.2176Z" fill="white"/>
</mask>
<g mask="url(#mask1_2217_74316)">
<path d="M42.2176 22.7153V22.7462L42.2124 22.777L42.1919 22.8129L39.6935 27.41L39.6627 27.4665L39.6216 27.5025L39.5755 27.523L39.5293 27.5333V29.8344L39.6216 29.8293L39.7089 29.8139L39.8269 29.7625L39.95 29.6855L40.0167 29.629L40.0988 29.5108L43.6284 23.0287L43.6489 22.9619L43.6797 22.8437L43.69 22.7307V22.7205L42.7101 22.7153H42.2176Z" fill="url(#paint2_linear_2217_74316)"/>
</g>
<mask id="mask2_2217_74316" style="mask-type:alpha" maskUnits="userSpaceOnUse" x="36" y="10" width="8" height="13">
<path fill-rule="evenodd" clip-rule="evenodd" d="M37.2395 10.7271L36.4648 12.1036L36.5008 12.1242L36.5264 12.1601L36.5521 12.2012L42.1184 22.0837L42.1338 22.1196L42.1389 22.1556L42.1441 22.171H43.6934L43.6883 22.1504L43.6832 22.0785L43.6729 22.022L43.6575 21.9604L43.6472 21.9193L43.6267 21.8834L43.6113 21.8423L43.5908 21.8114L37.5166 11.025L37.4088 10.8709L37.3165 10.7836L37.2806 10.7527L37.2446 10.7271H37.2395Z" fill="white"/>
</mask>
<g mask="url(#mask2_2217_74316)">
<path d="M37.2395 10.7271L36.4648 12.1036L36.5008 12.1242L36.5264 12.1601L36.5521 12.2012L42.1184 22.0837L42.1338 22.1196L42.1389 22.1556L42.1441 22.171H43.6934L43.6883 22.1504L43.6832 22.0785L43.6729 22.022L43.6575 21.9604L43.6472 21.9193L43.6267 21.8834L43.6113 21.8423L43.5908 21.8114L37.5166 11.025L37.4088 10.8709L37.3165 10.7836L37.2806 10.7527L37.2446 10.7271H37.2395Z" fill="url(#paint3_linear_2217_74316)"/>
</g>
<path d="M34.2412 10.5684H34.1848L34.1283 10.5786L34.077 10.5889L34.0206 10.6043L33.959 10.6351L33.877 10.6814L34.6568 12.3302L34.667 12.3199L34.6824 12.3147L34.7081 12.3096L34.7337 12.3045H36.1702H36.1958L36.2164 12.3147L36.242 12.3199L36.2574 12.3302L37.0321 10.6814L36.9756 10.6454L36.8679 10.5992L36.7653 10.5735L36.6165 10.5684H34.2412Z" fill="#F6F5F5"/>
<path d="M25.1089 32.8398L24.3137 34.1906L24.206 34.1187L24.1188 34.0314L24.0777 33.9801L20.271 27.4773L20.2146 27.3438L20.1992 27.2513V27.1024L20.2197 26.9688L20.2505 26.8764L20.2967 26.7891L22.3232 27.9396L22.3026 27.991L22.2975 28.0475L22.3078 28.0989L22.3385 28.1554L25.0371 32.7627L25.0627 32.8038L25.0833 32.8192L25.1089 32.8398Z" fill="#C8C8C8"/>
<mask id="mask3_2217_74316" style="mask-type:alpha" maskUnits="userSpaceOnUse" x="23" y="32" width="15" height="3">
<path fill-rule="evenodd" clip-rule="evenodd" d="M36.2124 32.5518L36.2021 32.5569L36.1559 32.5672H36.1097H24.7564L24.7205 32.562L24.6897 32.5518H24.659L23.874 33.9745L23.8997 33.99L23.9612 34.0208L24.0177 34.0413L24.0792 34.0567L24.1203 34.067L24.1613 34.0721H36.6895L36.8177 34.0567L36.9409 34.0156L36.987 33.9951L37.0229 33.9745L36.2431 32.5518H36.2124Z" fill="white"/>
</mask>
<g mask="url(#mask3_2217_74316)">
<path d="M36.2124 32.5518L36.2021 32.5569L36.1559 32.5672H36.1097H24.7564L24.7205 32.562L24.6897 32.5518H24.659L23.874 33.9745L23.8997 33.99L23.9612 34.0208L24.0177 34.0413L24.0792 34.0567L24.1203 34.067L24.1613 34.0721H36.6895L36.8177 34.0567L36.9409 34.0156L36.987 33.9951L37.0229 33.9745L36.2431 32.5518H36.2124Z" fill="url(#paint4_linear_2217_74316)"/>
</g>
<path d="M21.8927 27.8475L19.8457 26.4915L19.9124 26.3733L20.0304 26.2552L20.1381 26.1627L20.2407 26.1217L20.3844 26.0806H35.6059L35.7444 26.096L35.8727 26.1217L35.9804 26.1833L35.1801 27.7756L35.1493 27.7602L35.1237 27.755L35.1032 27.7499H22.0774H22.0209L21.9594 27.7756L21.9235 27.8064L21.8927 27.8475Z" fill="#F6F5F5"/>
<mask id="mask4_2217_74316" style="mask-type:alpha" maskUnits="userSpaceOnUse" x="35" y="26" width="5" height="6">
<path fill-rule="evenodd" clip-rule="evenodd" d="M35.9705 26.5479L35.124 27.9193L35.1753 27.9398L35.2164 27.9809L35.2625 28.058L37.3198 31.4274L37.3352 31.4634L37.3506 31.4994L37.3557 31.5404H39.0384V31.5199L39.0333 31.448L39.0179 31.3658L38.9923 31.2836L38.9666 31.2271L36.2783 26.8149L36.2373 26.7482L36.1963 26.7071L36.145 26.6506L36.0526 26.5838L36.0013 26.553L35.991 26.5479H35.9705Z" fill="white"/>
</mask>
<g mask="url(#mask4_2217_74316)">
<path d="M35.9705 26.5479L35.124 27.9193L35.1753 27.9398L35.2164 27.9809L35.2625 28.058L37.3198 31.4274L37.3352 31.4634L37.3506 31.4994L37.3557 31.5404H39.0384V31.5199L39.0333 31.448L39.0179 31.3658L38.9923 31.2836L38.9666 31.2271L36.2783 26.8149L36.2373 26.7482L36.1963 26.7071L36.145 26.6506L36.0526 26.5838L36.0013 26.553L35.991 26.5479H35.9705Z" fill="url(#paint5_linear_2217_74316)"/>
</g>
<mask id="mask5_2217_74316" style="mask-type:alpha" maskUnits="userSpaceOnUse" x="36" y="31" width="3" height="4">
<path fill-rule="evenodd" clip-rule="evenodd" d="M37.2241 31.3965V31.4068L37.2139 31.4273L37.2036 31.4581L36.5213 32.7268L36.511 32.7474L36.4956 32.7679L36.4751 32.7833L36.4648 32.7936L37.2036 34.1701H37.2087L37.2549 34.1393L37.337 34.0623L37.4037 33.9801L37.4806 33.8517L38.6042 31.7458L38.6298 31.6944L38.6555 31.643L38.6709 31.5917L38.6863 31.5352L38.6965 31.4684L38.7017 31.3965H37.2241Z" fill="white"/>
</mask>
<g mask="url(#mask5_2217_74316)">
<path d="M37.2241 31.3965V31.4068L37.2139 31.4273L37.2036 31.4581L36.5213 32.7268L36.511 32.7474L36.4956 32.7679L36.4751 32.7833L36.4648 32.7936L37.2036 34.1701H37.2087L37.2549 34.1393L37.337 34.0623L37.4037 33.9801L37.4806 33.8517L38.6042 31.7458L38.6298 31.6944L38.6555 31.643L38.6709 31.5917L38.6863 31.5352L38.6965 31.4684L38.7017 31.3965H37.2241Z" fill="url(#paint6_linear_2217_74316)"/>
</g>
<path d="M24.3603 10.9224L24.2885 10.9326L24.1705 10.9686L24.0576 11.0302L24.8374 12.602L24.8682 12.5866L24.8939 12.5763H24.94H30.2755H30.3371L30.3935 12.5968L30.4346 12.6379L30.4705 12.6842L32.4713 11.3435L32.4148 11.246L32.3584 11.1638L32.2507 11.0662L32.1173 10.9789L32.0301 10.9429L31.8864 10.9224H24.3603Z" fill="#F6F5F5"/>
<path d="M39.4899 27.2617V29.6091L39.3719 29.5988L39.2282 29.5526L39.1051 29.4961L39.023 29.4293L38.9358 29.3214L31.5277 16.2287L31.4661 16.1003L31.4251 15.977L31.4199 15.8589H32.9693L32.9795 15.8897L32.9898 15.9154L33 15.9359L39.3308 27.1436L39.3616 27.195L39.4026 27.2309L39.4437 27.2515L39.4899 27.2617Z" fill="#C8C8C8"/>
<mask id="mask6_2217_74316" style="mask-type:alpha" maskUnits="userSpaceOnUse" x="31" y="10" width="5" height="6">
<path fill-rule="evenodd" clip-rule="evenodd" d="M34.2468 10.7271L34.2315 10.7373L34.1699 10.7784L34.1032 10.8349L34.0416 10.8966L34.0006 10.9479L31.3123 15.3601L31.2713 15.4217L31.2559 15.4782L31.2354 15.545L31.2148 15.658V15.7145V15.7196H32.8924L32.8976 15.6991L32.9078 15.6426L32.954 15.5707L35.0113 12.1961L35.0318 12.1652L35.0574 12.1344L35.0933 12.1139V12.1087L34.252 10.7271H34.2468Z" fill="white"/>
</mask>
<g mask="url(#mask6_2217_74316)">
<path d="M34.2468 10.7271L34.2315 10.7373L34.1699 10.7784L34.1032 10.8349L34.0416 10.8966L34.0006 10.9479L31.3123 15.3601L31.2713 15.4217L31.2559 15.4782L31.2354 15.545L31.2148 15.658V15.7145V15.7196H32.8924L32.8976 15.6991L32.9078 15.6426L32.954 15.5707L35.0113 12.1961L35.0318 12.1652L35.0574 12.1344L35.0933 12.1139V12.1087L34.252 10.7271H34.2468Z" fill="url(#paint7_linear_2217_74316)"/>
</g>
<mask id="mask7_2217_74316" style="mask-type:alpha" maskUnits="userSpaceOnUse" x="17" y="10" width="8" height="13">
<path fill-rule="evenodd" clip-rule="evenodd" d="M24.1381 10.7271L24.1175 10.7425L24.0611 10.7836L24.0149 10.8246L23.9688 10.8657L23.9431 10.8966L23.9175 10.9325L23.8918 10.9685L23.8764 10.9993L17.6636 21.7858L17.5867 21.9604L17.5559 22.0888L17.5508 22.135V22.171H19.1309L19.136 22.1402L19.1514 22.0939L19.1719 22.058L24.8666 12.1704L24.8871 12.1396L24.9179 12.1139L24.9281 12.1036V12.0985L24.1432 10.7271H24.1381Z" fill="white"/>
</mask>
<g mask="url(#mask7_2217_74316)">
<path d="M24.1381 10.7271L24.1175 10.7425L24.0611 10.7836L24.0149 10.8246L23.9688 10.8657L23.9431 10.8966L23.9175 10.9325L23.8918 10.9685L23.8764 10.9993L17.6636 21.7858L17.5867 21.9604L17.5559 22.0888L17.5508 22.135V22.171H19.1309L19.136 22.1402L19.1514 22.0939L19.1719 22.058L24.8666 12.1704L24.8871 12.1396L24.9179 12.1139L24.9281 12.1036V12.0985L24.1432 10.7271H24.1381Z" fill="url(#paint8_linear_2217_74316)"/>
</g>
<mask id="mask8_2217_74316" style="mask-type:alpha" maskUnits="userSpaceOnUse" x="18" y="24" width="7" height="2">
<path fill-rule="evenodd" clip-rule="evenodd" d="M23.9093 24.0488L23.8836 24.0642L23.8169 24.0796H19.7897L19.7486 24.0745L19.7127 24.0694L19.6768 24.0488L18.8662 25.487L18.8816 25.4973L18.9483 25.5281L19.0304 25.5589L19.1125 25.5743L19.1792 25.5846H24.3351H24.412L24.4685 25.5692L24.5403 25.5538L24.6429 25.5127L24.6993 25.4819L24.7147 25.4716L23.9093 24.0488Z" fill="white"/>
</mask>
<g mask="url(#mask8_2217_74316)">
<path d="M23.9093 24.0488L23.8836 24.0642L23.8169 24.0796H19.7897L19.7486 24.0745L19.7127 24.0694L19.6768 24.0488L18.8662 25.487L18.8816 25.4973L18.9483 25.5281L19.0304 25.5589L19.1125 25.5743L19.1792 25.5846H24.3351H24.412L24.4685 25.5692L24.5403 25.5538L24.6429 25.5127L24.6993 25.4819L24.7147 25.4716L23.9093 24.0488Z" fill="url(#paint9_linear_2217_74316)"/>
</g>
<path d="M19.8458 23.9897L19.8304 23.9794L19.8202 23.9692L19.8048 23.9486L19.7843 23.9281L19.0404 22.644L19.0301 22.6234L19.0199 22.5977L19.0147 22.5721V22.5566H17.3936V22.6234L17.4141 22.7364L17.45 22.8443L17.5269 22.9778L18.7633 25.0992L18.7941 25.1505L18.83 25.1968L18.8608 25.2379L18.907 25.2841L18.9583 25.3252L19.0352 25.3765L19.8458 23.9897Z" fill="#C8C8C8"/>
<path d="M17.0698 39.6958C18.0549 39.6958 18.9886 40.0091 18.9886 41.3291C18.9886 42.6133 18.0549 42.9625 17.0698 42.9625H16.6235C16.4491 42.9625 16.3157 42.8393 16.3157 42.6903V39.6958H17.0698ZM17.1673 44.0001C19.4092 44.0001 20.8868 43.6303 20.8868 41.3291C20.8868 38.9921 19.4144 38.6582 17.1673 38.6582H14.4072V43.995H17.1673V44.0001Z" fill="white"/>
<path d="M26.6433 44.0003V42.9679H23.5087C23.3702 42.9576 23.2573 42.8498 23.2573 42.7111V41.8379H26.3919V40.8003H23.2573V39.7011L26.6433 39.7063V38.6636H21.3643V44.0003H26.6433Z" fill="white"/>
<path d="M36.4678 44.1494C37.8684 44.1494 39.4485 43.7282 39.4793 42.5879V42.3671H37.5862V42.5571C37.5862 42.9167 37.0476 43.117 36.4678 43.117C35.5803 43.117 35.2725 42.3157 35.2776 41.422C35.2827 40.3382 35.5803 39.6242 36.4678 39.6242C37.0424 39.6242 37.5862 39.7937 37.5862 40.1173V40.3382H39.4793V40.1173C39.4793 38.9976 37.8941 38.5918 36.4678 38.5918C34.4978 38.6072 33.3486 39.3623 33.3486 41.3655C33.3486 43.6358 34.4978 44.1494 36.4678 44.1494Z" fill="white"/>
<path d="M29.1062 39.9474C29.1062 39.8139 29.214 39.706 29.3525 39.6958H29.8604C30.4812 39.6958 31.1737 39.6804 31.1737 40.3121C31.1737 40.8617 30.476 40.9234 29.8604 40.9234H29.1062V39.9474ZM29.1062 41.8839H29.8347C30.8249 41.8839 30.8505 42.2383 30.9583 42.8804C31.0301 43.245 31.1481 44.0052 31.1532 44.0001H33.272C33.272 44.0052 32.9591 42.6287 32.9591 42.6287C32.8411 41.8633 32.6102 41.3959 31.5944 41.3137C32.4512 41.1802 33.1181 40.9234 33.1181 40.0348C33.1181 38.6582 31.5893 38.6582 30.4042 38.6582H27.167V43.995H29.1062V41.8839Z" fill="white"/>
<path d="M43.0808 39.5627C44.3172 39.5627 44.5737 40.3332 44.5737 41.3399C44.5737 42.3621 44.3172 43.0709 43.0808 43.0709C41.8444 43.0709 41.5879 42.3621 41.5879 41.3399C41.593 40.3332 41.8495 39.5627 43.0808 39.5627ZM43.0808 44.1084C45.2509 44.1084 46.4771 43.2969 46.4771 41.3142C46.4771 39.3521 45.2509 38.52 43.0808 38.52C40.9107 38.52 39.6846 39.3521 39.6846 41.3142C39.6846 43.2969 40.9107 44.1084 43.0808 44.1084Z" fill="white"/>
<path d="M20.9797 48.844V47.7345C20.9797 47.2722 21.0669 47.1644 21.4517 47.1644H24.1964C24.5812 47.1644 24.7197 47.2722 24.7197 47.7345V48.844H20.9797ZM21.3081 51.0989C20.9695 51.0989 20.9797 50.8472 20.9797 50.6314V49.5477H25.8278V47.5239C25.8278 46.81 25.32 46.4658 24.5658 46.4658H20.9541C20.1897 46.5223 19.8613 47.1541 19.8613 47.7037V50.539C19.8613 51.4687 20.4154 51.7923 20.9079 51.7923H25.7047L25.8535 50.9961L25.2789 51.0937L21.3081 51.0989Z" fill="white"/>
<path d="M34.9797 51.099C34.6668 51.0939 34.6514 50.873 34.6514 50.7395V47.1645H37.1858V46.4608H34.6668V45.187L33.5074 45.3873V46.4711H32.707V47.1748H33.5074V50.3799C33.5074 51.3867 33.8152 51.8027 34.7591 51.8027H37.3294L37.432 51.0066L36.8728 51.1042L34.9797 51.099Z" fill="white"/>
<mask id="mask9_2217_74316" style="mask-type:alpha" maskUnits="userSpaceOnUse" x="14" y="46" width="6" height="6">
<path fill-rule="evenodd" clip-rule="evenodd" d="M14.0742 46.4624H19.5585V51.794H14.0742V46.4624Z" fill="white"/>
</mask>
<g mask="url(#mask9_2217_74316)">
<path d="M15.5261 51.0933C15.2131 51.0933 15.2029 50.8981 15.2029 50.7337V47.5029C15.2029 47.2872 15.2593 47.1588 15.5466 47.1588H18.8864C19.0711 47.1896 19.2558 47.2255 19.4456 47.2564L19.3943 46.4551H15.1772C14.5975 46.4551 14.0742 46.6965 14.0742 47.6827V50.5385C14.0742 51.2833 14.4744 51.7918 15.1259 51.7918H19.4405L19.5585 50.9957L18.9839 51.0933H15.5261Z" fill="white"/>
</g>
<path d="M45.9691 46.4658C45.7023 46.4812 45.492 46.5737 45.3689 46.9486H45.3484C45.3432 46.8562 45.3125 46.5583 45.3073 46.471H44.2607L44.3582 47.0257V51.2427C44.3582 51.2838 44.2915 51.6074 44.2607 51.7974H45.5946L45.4971 51.2273V47.678C45.4971 47.452 45.5279 47.3185 45.8101 47.3185H46.8259L48.1033 47.452L48.1546 46.471L45.9691 46.4658Z" fill="white"/>
<path d="M38.8997 47.7345C38.8997 47.2722 38.9869 47.1644 39.3716 47.1644H42.1163C42.5011 47.1644 42.6396 47.2722 42.6396 47.7345V48.8491H38.8997V47.7345ZM39.228 51.0989C38.8894 51.0989 38.8997 50.8472 38.8997 50.6314V49.5477H43.7478V47.5239C43.7478 46.81 43.2399 46.4658 42.4857 46.4658H38.874C38.1096 46.5223 37.7812 47.1541 37.7812 47.7037V50.539C37.7812 51.4687 38.3353 51.7923 38.8278 51.7923H43.6246L43.7734 50.9961L43.1988 51.0937L39.228 51.0989Z" fill="white"/>
<mask id="mask10_2217_74316" style="mask-type:alpha" maskUnits="userSpaceOnUse" x="26" y="46" width="7" height="6">
<path fill-rule="evenodd" clip-rule="evenodd" d="M26.3408 46.4673H32.5023V51.7989H26.3408V46.4673Z" fill="white"/>
</mask>
<g mask="url(#mask10_2217_74316)">
<path d="M32.3757 47.4586C32.3757 46.7601 31.9089 46.4673 31.1445 46.4673H28.0919C27.9791 46.4724 27.9021 46.5032 27.7739 46.5957C27.6815 46.6573 27.6097 46.7806 27.5533 46.8577H27.5327V46.4673H26.3477L26.4451 47.0272V51.2442C26.4451 51.2853 26.3784 51.6088 26.3477 51.7989H27.6815L27.5635 51.2082V47.5254C27.5635 47.2994 27.6046 47.1658 27.8919 47.1658H30.8572C31.1086 47.1658 31.2522 47.3867 31.2522 47.6538V50.6072C31.2522 50.6483 31.2214 51.0233 31.2009 51.3058C31.1906 51.4702 31.1496 51.6397 31.1188 51.7938H32.504L32.3706 51.2031V47.4586H32.3757Z" fill="white"/>
</g>
<defs>
<linearGradient id="paint0_linear_2217_74316" x1="56.4598" y1="27.4773" x2="70.6688" y2="28.9103" gradientUnits="userSpaceOnUse">
<stop offset="0.255208"/>
<stop offset="0.947917" stop-color="#9A9A9A" stop-opacity="0"/>
</linearGradient>
<linearGradient id="paint1_linear_2217_74316" x1="28.0911" y1="11.254" x2="28.0911" y2="25.7272" gradientUnits="userSpaceOnUse">
<stop stop-color="#C7C9CB"/>
<stop offset="1" stop-color="#E8E9EA"/>
</linearGradient>
<linearGradient id="paint2_linear_2217_74316" x1="41.6135" y1="23.0705" x2="41.6135" y2="30.0201" gradientUnits="userSpaceOnUse">
<stop stop-color="#C7C9CB"/>
<stop offset="1" stop-color="#E8E9EA"/>
</linearGradient>
<linearGradient id="paint3_linear_2217_74316" x1="40.0788" y1="10.7999" x2="40.0788" y2="22.5436" gradientUnits="userSpaceOnUse">
<stop stop-color="#DDDEDF"/>
<stop offset="1" stop-color="#F4F4F5"/>
</linearGradient>
<linearGradient id="paint4_linear_2217_74316" x1="30.4562" y1="32.6984" x2="30.4562" y2="34.1692" gradientUnits="userSpaceOnUse">
<stop stop-color="#BCBEC0"/>
<stop offset="1" stop-color="#D2D3D5"/>
</linearGradient>
<linearGradient id="paint5_linear_2217_74316" x1="37.0835" y1="26.965" x2="37.0835" y2="31.6932" gradientUnits="userSpaceOnUse">
<stop stop-color="#DDDEDF"/>
<stop offset="1" stop-color="#F4F4F5"/>
</linearGradient>
<linearGradient id="paint6_linear_2217_74316" x1="37.5835" y1="31.5396" x2="37.5835" y2="34.3633" gradientUnits="userSpaceOnUse">
<stop stop-color="#C7C9CB"/>
<stop offset="1" stop-color="#E8E9EA"/>
</linearGradient>
<linearGradient id="paint7_linear_2217_74316" x1="33.1483" y1="10.8032" x2="33.1483" y2="16.004" gradientUnits="userSpaceOnUse">
<stop stop-color="#DDDEDF"/>
<stop offset="1" stop-color="#F4F4F5"/>
</linearGradient>
<linearGradient id="paint8_linear_2217_74316" x1="21.2433" y1="10.7942" x2="21.2433" y2="22.5381" gradientUnits="userSpaceOnUse">
<stop stop-color="#DDDEDF"/>
<stop offset="1" stop-color="#F4F4F5"/>
</linearGradient>
<linearGradient id="paint9_linear_2217_74316" x1="21.7924" y1="24.4258" x2="21.7924" y2="25.8966" gradientUnits="userSpaceOnUse">
<stop stop-color="#BCBEC0"/>
<stop offset="1" stop-color="#D2D3D5"/>
</linearGradient>
</defs>
</svg>
