<svg width="368" height="71" viewBox="0 0 368 71" fill="none" xmlns="http://www.w3.org/2000/svg">
<path d="M41.8573 12.9773L41.9701 13.1747L42.0547 13.485V13.7388L42.0265 13.9644L41.9419 14.2182L27.1917 39.7984L27.0225 40.024L26.8533 40.2214L26.6559 40.3624H26.6277L26.5431 40.4188L26.3174 40.5034L26.2046 40.5317L26.0918 40.5599H25.9508H16.0233L15.8823 40.5317L15.7413 40.5034L15.5721 40.447L15.4593 40.3906L15.4029 40.3624L15.2619 40.2778L15.1773 40.1932L15.0644 40.1086L15.008 40.024L14.9516 39.9394L14.8952 39.8266L12.498 35.7089L12.357 35.4551L12.3005 35.2577L12.2441 35.0321V34.891L12.2723 34.8064V34.7218L12.3287 34.468L12.4698 34.1296L24.6817 12.9773L24.7381 12.9209L24.7663 12.8363L24.8227 12.7799L24.8791 12.7235L24.9637 12.6389L25.0765 12.5543L25.1611 12.4696L25.2175 12.4414L25.4432 12.3286L25.697 12.2722L25.8098 12.244H40.7292L40.983 12.2722L41.1522 12.3568L41.4343 12.4978L41.6317 12.6671L41.7727 12.8081L41.8573 12.9773Z" fill="white"/>
<path d="M55.3364 49.049H55.0825L54.8005 48.9362L54.5749 48.8515L54.4057 48.7105L54.2082 48.4849L39.4298 22.9048L39.317 22.6509L39.2324 22.4253V22.1997V22.1433V22.0587L39.2606 21.833L39.317 21.692L39.3452 21.5792L39.4016 21.4664L44.3654 12.8645L44.45 12.7517L44.5628 12.6389L44.6756 12.526L44.7884 12.4414H44.8448L44.9858 12.3568L45.1269 12.3004L45.2397 12.2722H45.3243L45.4371 12.244H45.5781H50.3162H50.6264L50.8239 12.3004L51.0495 12.385L51.1623 12.4414L51.2187 12.4978L51.3033 12.5543L51.5007 12.7235L51.6982 13.0055L63.9383 34.186L63.9665 34.2424L63.9947 34.2988L64.0229 34.3834L64.0511 34.468L64.0793 34.5808L64.1075 34.6936V34.8346L64.1357 34.891L64.1075 35.1449L64.0229 35.3987L63.9947 35.5115L56.5491 48.4003L56.3799 48.6259L56.2106 48.7669L55.9568 48.908L55.703 48.9926L55.5338 49.049H55.3364Z" fill="white"/>
<path d="M48.6834 42.1396L48.7116 42.1678L48.8245 42.2242L48.9937 42.3652L49.0783 42.478L49.1629 42.5626L49.2193 42.6754L54.183 51.2773L54.2394 51.3901L54.2958 51.5312L54.324 51.7004V51.8414V51.8978V52.067L54.2958 52.1798L54.2676 52.3208L54.2394 52.4055L54.183 52.5183L54.1266 52.6029L51.7576 56.7205L51.5884 56.9743L51.4473 57.1436L51.2781 57.2846L51.1653 57.3692L51.0807 57.3974L50.9961 57.4256L50.7705 57.5102L50.3756 57.5384H25.9518H25.8954H25.8108H25.7262L25.6416 57.5102L25.5288 57.482L25.4159 57.4538L25.2749 57.3692L25.2185 57.341L25.0211 57.2L24.8519 57.0307L24.7673 56.9461L17.3217 44.0292L17.2089 43.7753L17.1807 43.5779V43.2959L17.2089 43.0138L17.2653 42.8446L17.3781 42.6754L17.5191 42.478L17.7447 42.2806L17.9421 42.1114L18.1396 42.0549L18.4216 41.9703H47.9502L48.2322 41.9985L48.486 42.0549L48.6834 42.1396Z" fill="white"/>
<path fill-rule="evenodd" clip-rule="evenodd" d="M298.643 29.4484V34.8633H309.304V37.8529H298.559V53.0543C298.559 53.6184 298.615 54.5773 299.941 54.6055H308.007L310.376 54.1824L309.953 57.5668H299.066C295.061 57.5668 293.764 55.8182 293.764 51.5313V37.8811H290.352V34.8915H293.736V30.2945L298.643 29.4484Z" fill="white"/>
<path fill-rule="evenodd" clip-rule="evenodd" d="M339.286 34.8922H343.714C343.742 35.2589 343.855 36.528 343.883 36.9228H343.968C344.504 35.3435 345.378 34.9486 346.534 34.864H355.757L355.531 39.0381L350.116 38.474H345.801C344.616 38.474 344.475 39.0381 344.475 39.997V55.0574L344.898 57.4828H339.258C339.399 56.665 339.681 55.3112 339.681 55.142V37.2613L339.286 34.8922Z" fill="white"/>
<path fill-rule="evenodd" clip-rule="evenodd" d="M263.336 34.8921H268.356V36.5561H268.441C268.695 36.2176 269.005 35.71 269.4 35.4279C269.935 35.0331 270.274 34.9203 270.753 34.8921H283.699C286.942 34.8921 288.916 36.1612 288.916 39.1225V55.0572L289.48 57.5673H283.614C283.755 56.8904 283.924 56.1854 283.952 55.4803C284.037 54.2958 284.178 52.6882 284.178 52.519V39.9404C284.178 38.7841 283.558 37.8534 282.486 37.8534H269.907C268.695 37.8534 268.525 38.4175 268.525 39.3764V55.029L269.005 57.5391H263.364C263.505 56.7212 263.787 55.3675 263.787 55.1983V37.2611L263.336 34.8921Z" fill="white"/>
<path fill-rule="evenodd" clip-rule="evenodd" d="M240.604 44.9889V40.279C240.604 38.333 240.971 37.8535 242.607 37.8535H254.226C255.862 37.8535 256.426 38.3048 256.426 40.279V44.9889H240.604ZM255.806 34.864C258.993 34.864 261.136 36.3024 261.136 39.3483V47.9502H240.604V52.5473C240.604 53.478 240.576 54.5497 241.986 54.5497H258.823L261.249 54.1267L260.6 57.511H240.266C238.179 57.511 235.838 56.1291 235.838 52.1807V40.138C235.838 37.7971 237.22 35.0896 240.463 34.864H255.806Z" fill="white"/>
<path fill-rule="evenodd" clip-rule="evenodd" d="M316.555 45.0171V40.279C316.555 38.333 316.921 37.8535 318.557 37.8535H330.177C331.812 37.8535 332.405 38.3048 332.405 40.279V45.0171H316.555ZM331.784 34.8922C334.971 34.8922 337.115 36.3306 337.115 39.3765V47.9784H316.583V52.5755C316.583 53.5062 316.526 54.5779 317.965 54.5779H334.83L337.256 54.1549L336.607 57.5392H316.273C314.186 57.5392 311.845 56.1573 311.845 52.2089V40.138C311.845 37.7971 313.227 35.0896 316.47 34.864L331.784 34.8922Z" fill="white"/>
<path fill-rule="evenodd" clip-rule="evenodd" d="M233.891 34.864L234.116 38.2766C233.299 38.1356 232.537 37.9945 231.747 37.8535H217.589C216.377 37.8535 216.151 38.4176 216.151 39.3201V53.0268C216.151 53.7318 216.207 54.5497 217.533 54.5497H232.199L234.624 54.1549L234.116 57.5392H215.841C213.077 57.5392 211.385 55.3676 211.385 52.2089V40.0816C211.385 35.9075 213.585 34.864 216.038 34.864H233.891Z" fill="white"/>
<path fill-rule="evenodd" clip-rule="evenodd" d="M150.298 51.7005L151.624 57.5385H142.627C142.627 57.5667 142.119 54.3234 141.809 52.7722C141.33 50.0365 141.217 48.5418 137.043 48.5418H133.969V57.5385H125.762V34.8351H139.468C144.489 34.8351 150.975 34.8351 150.975 40.6731C150.975 44.4523 148.155 45.524 144.517 46.0881C148.832 46.4547 149.791 48.4289 150.298 51.7005ZM133.969 44.4523V40.3065C133.969 39.7424 134.448 39.263 135.041 39.2348H137.184C139.807 39.2348 142.768 39.1501 142.768 41.8294C142.768 44.1703 139.835 44.4241 137.184 44.4241H133.969V44.4523Z" fill="white"/>
<path fill-rule="evenodd" clip-rule="evenodd" d="M79.7624 39.2348V51.9543C79.7624 52.603 80.3264 53.1106 81.0879 53.1106H82.9775C87.1515 53.1106 91.1 51.6159 91.1 46.1727C91.1 40.5603 87.1515 39.2348 82.9775 39.2348H79.7624ZM71.6963 34.8351H83.3723C92.8768 34.8351 99.1096 36.2452 99.1096 46.1727C99.1096 55.9591 92.8768 57.5103 83.3723 57.5103H71.6963V34.8351Z" fill="white"/>
<path fill-rule="evenodd" clip-rule="evenodd" d="M199.512 46.2293C199.512 41.9425 198.441 38.6991 193.195 38.6991C187.949 38.6991 186.877 41.9707 186.877 46.2293C186.877 50.5726 187.949 53.5903 193.195 53.5903C198.441 53.5903 199.512 50.5726 199.512 46.2293ZM193.195 57.99C184.001 57.99 178.783 54.521 178.783 46.1165C178.783 37.7684 183.973 34.243 193.195 34.243C202.389 34.243 207.607 37.7684 207.607 46.1165C207.607 54.521 202.417 57.99 193.195 57.99Z" fill="white"/>
<path d="M123.534 57.511H101.169V34.864H123.534V39.2919L109.179 39.2637V43.9454H122.462V48.3451H109.179V52.0679C109.179 52.6601 109.63 53.1114 110.25 53.1396H123.534V57.511Z" fill="white"/>
<path d="M169.928 50.5728H177.966V51.5035C177.825 56.3544 171.141 58.1594 165.19 58.1594C156.842 58.1594 151.963 55.9596 151.963 46.3141C151.963 37.7968 156.842 34.5817 165.19 34.5253C171.254 34.5253 177.966 36.2457 177.966 41.012V41.9427H169.928V41.012C169.928 39.6582 167.616 38.9249 165.19 38.9249C161.439 38.9249 160.17 41.9427 160.142 46.568C160.142 50.3472 161.439 53.7597 165.19 53.7597C167.644 53.7597 169.928 52.9136 169.928 51.3907V50.5728Z" fill="white"/>
</svg>
