<?xml version="1.0" encoding="utf-8"?>
<!-- Generator: Adobe Illustrator 23.0.2, SVG Export Plug-In . SVG Version: 6.00 Build 0)  -->
<svg version="1.1" id="Capa_1" xmlns="http://www.w3.org/2000/svg" xmlns:xlink="http://www.w3.org/1999/xlink" x="0px" y="0px"
	 viewBox="0 0 105.5 90" style="enable-background:new 0 0 105.5 90;" xml:space="preserve">
<style type="text/css">
	.st0{fill:#BE0024;}
	.st1{fill-rule:evenodd;clip-rule:evenodd;fill:#FFFFFF;}
	.st2{fill:#FFFFFF;}
	.st3{fill-rule:evenodd;clip-rule:evenodd;fill:#F3F4F3;}
	.st4{fill-rule:evenodd;clip-rule:evenodd;fill:#D7D9D9;}
</style>
<g>
	<rect class="st0" width="90.5" height="90"/>
</g>
<g>
	<g>
		<g>
			<path class="st1" d="M49.9,65.9v1.7h3.4v1h-3.4v4.9c0,0.2,0,0.5,0.4,0.5h2.6l0.8-0.1l-0.1,1.1H50c-1.3,0-1.7-0.6-1.7-1.9v-4.4
				h-1.1v-1h1.1v-1.5L49.9,65.9z"/>
		</g>
		<g>
			<path class="st1" d="M62.9,67.7h1.4c0,0.1,0,0.5,0.1,0.7h0c0.2-0.5,0.5-0.6,0.8-0.7h3L68.2,69l-1.7-0.2H65
				c-0.4,0-0.4,0.2-0.4,0.5v4.8l0.1,0.8h-1.8c0-0.3,0.1-0.7,0.1-0.8v-5.7L62.9,67.7z"/>
		</g>
		<g>
			<path class="st1" d="M38.6,67.6h1.6v0.5h0c0.1-0.1,0.2-0.3,0.3-0.4c0.2-0.1,0.3-0.2,0.4-0.2h4.2c1,0,1.7,0.4,1.7,1.4v5.1l0.2,0.8
				h-1.9c0-0.2,0.1-0.4,0.1-0.7c0-0.4,0.1-0.9,0.1-0.9v-4c0-0.4-0.2-0.7-0.5-0.7h-4c-0.4,0-0.4,0.2-0.4,0.5v5l0.2,0.8h-1.8
				c0-0.3,0.1-0.7,0.1-0.8v-5.7L38.6,67.6z"/>
		</g>
		<path class="st1" d="M31.3,70.9v-1.5c0-0.6,0.1-0.8,0.6-0.8h3.7c0.5,0,0.7,0.1,0.7,0.8v1.5H31.3z M36.2,67.6c1,0,1.7,0.5,1.7,1.4
			v2.8h-6.6v1.5c0,0.3,0,0.6,0.4,0.6h5.4l0.8-0.1l-0.2,1.1h-6.5c-0.7,0-1.4-0.4-1.4-1.7v-3.9c0-0.7,0.4-1.6,1.5-1.7H36.2z"/>
		<path class="st1" d="M55.7,70.9v-1.5c0-0.6,0.1-0.8,0.6-0.8H60c0.5,0,0.7,0.1,0.7,0.8v1.5H55.7z M60.5,67.6c1,0,1.7,0.5,1.7,1.4
			v2.8h-6.6v1.5c0,0.3,0,0.6,0.4,0.6h5.4l0.8-0.1l-0.2,1.1h-6.5c-0.7,0-1.4-0.4-1.4-1.7v-3.9c0-0.7,0.4-1.6,1.5-1.7H60.5z"/>
		<g>
			<path class="st1" d="M29.1,67.6l0.1,1.1c-0.3,0-0.5-0.1-0.8-0.1l-4.5,0c-0.4,0-0.5,0.2-0.5,0.5v4.4c0,0.2,0,0.5,0.4,0.5h4.7
				l0.8-0.1l-0.2,1.1h-5.9c-0.9,0-1.4-0.7-1.4-1.7v-3.9c0-1.3,0.7-1.7,1.5-1.7H29.1z"/>
		</g>
	</g>
	<g>
		<g>
			<path class="st1" d="M48.7,61.6l0.5,2h-3.1c0,0-0.2-1.1-0.3-1.6c-0.2-0.9-0.2-1.4-1.6-1.4l-1,0v3.1h-2.8v-7.7H45
				c1.7,0,3.9,0,3.9,2c0,1.3-1,1.7-2.2,1.9C48.2,59.8,48.5,60.5,48.7,61.6z M43.2,59.2v-1.4c0-0.2,0.2-0.4,0.4-0.4h0.7
				c0.9,0,1.9,0,1.9,0.9c0,0.8-1,0.9-1.9,0.9H43.2z"/>
			<path class="st1" d="M24.7,57.4v4.3c0,0.2,0.2,0.4,0.4,0.4h0.6c1.4,0,2.8-0.5,2.8-2.4c0-1.9-1.3-2.4-2.8-2.4H24.7z M21.9,55.9h4
				c3.2,0,5.4,0.5,5.4,3.9c0,3.3-2.1,3.9-5.4,3.9h-4V55.9z"/>
			<path class="st1" d="M65.5,59.8c0-1.5-0.4-2.6-2.2-2.6c-1.8,0-2.2,1.1-2.2,2.6c0,1.5,0.4,2.5,2.2,2.5
				C65.1,62.3,65.5,61.2,65.5,59.8z M63.4,63.8c-3.1,0-4.9-1.2-4.9-4c0-2.8,1.8-4,4.9-4c3.1,0,4.9,1.2,4.9,4
				C68.3,62.6,66.5,63.8,63.4,63.8z"/>
			<path class="st2" d="M39.6,63.6H32v-7.7h7.6v1.5l-4.9,0V59l4.5,0v1.5h-4.5v1.3c0,0.2,0.2,0.4,0.4,0.4h4.5V63.6z"/>
			<g>
				<path class="st2" d="M55.4,61.2h2.7v0.3c0,1.7-2.3,2.3-4.4,2.3c-2.8,0-4.5-0.7-4.5-4c0-2.9,1.7-4,4.5-4c2.1,0,4.4,0.6,4.4,2.2
					v0.3h-2.7V58c0-0.5-0.8-0.7-1.6-0.7c-1.3,0-1.7,1-1.7,2.6c0,1.3,0.4,2.5,1.7,2.5c0.8,0,1.6-0.3,1.6-0.8L55.4,61.2z"/>
			</g>
		</g>
	</g>
	<g>
		<g>
			<polygon class="st2" points="47.7,15.8 47.8,16 47.8,16.2 47.9,16.4 47.8,16.5 47.8,16.7 36.8,35.7 36.7,35.9 36.6,36 36.4,36.1 
				36.4,36.1 36.3,36.2 36.2,36.2 36.1,36.3 36,36.3 35.9,36.3 28.5,36.3 28.4,36.3 28.3,36.2 28.2,36.2 28.1,36.2 28.1,36.1 
				28,36.1 27.9,36 27.8,35.9 27.8,35.9 27.7,35.8 27.7,35.7 25.9,32.7 25.8,32.5 25.8,32.3 25.7,32.2 25.7,32.1 25.7,32 25.7,31.9 
				25.8,31.8 25.9,31.5 35,15.8 35,15.8 35,15.7 35.1,15.7 35.1,15.6 35.2,15.6 35.2,15.5 35.3,15.4 35.3,15.4 35.3,15.4 35.5,15.3 
				35.7,15.3 35.8,15.3 46.8,15.3 47.1,15.3 47.2,15.4 47.4,15.5 47.5,15.6 47.6,15.7 			"/>
			<polygon class="st2" points="57.7,42.6 57.5,42.6 57.3,42.5 57.1,42.4 57,42.3 56.9,42.2 45.9,23.2 45.8,23 45.8,22.8 45.7,22.7 
				45.7,22.6 45.7,22.5 45.8,22.4 45.8,22.3 45.8,22.2 45.9,22.1 49.6,15.7 49.6,15.7 49.7,15.6 49.8,15.5 49.9,15.4 49.9,15.4 
				50,15.4 50.1,15.3 50.2,15.3 50.3,15.3 50.4,15.3 50.4,15.3 54,15.3 54.2,15.3 54.4,15.3 54.5,15.4 54.6,15.4 54.7,15.4 
				54.7,15.5 54.8,15.6 55,15.8 64.1,31.5 64.1,31.6 64.1,31.6 64.1,31.7 64.2,31.8 64.2,31.8 64.2,31.9 64.2,32 64.2,32.1 
				64.2,32.1 64.2,32.3 64.2,32.4 64.1,32.5 58.6,42.1 58.5,42.3 58.4,42.4 58.2,42.5 58,42.5 57.8,42.6 			"/>
			<polygon class="st2" points="52.8,37.5 52.8,37.5 52.9,37.5 53,37.6 53.1,37.7 53.1,37.8 53.2,37.8 56.8,44.2 56.9,44.3 
				56.9,44.4 56.9,44.5 56.9,44.7 56.9,44.7 56.9,44.8 56.9,44.9 56.9,45 56.9,45.1 56.8,45.1 56.8,45.2 55,48.3 54.9,48.5 
				54.8,48.6 54.7,48.7 54.6,48.7 54.5,48.8 54.5,48.8 54.3,48.9 54,48.9 35.9,48.9 35.8,48.9 35.8,48.9 35.7,48.9 35.7,48.9 
				35.6,48.8 35.5,48.8 35.4,48.8 35.4,48.7 35.4,48.7 35.2,48.6 35.1,48.5 35,48.4 29.5,38.9 29.4,38.7 29.4,38.5 29.4,38.3 
				29.4,38.1 29.5,38 29.5,37.8 29.6,37.7 29.8,37.5 29.9,37.4 30.1,37.4 30.3,37.3 52.2,37.3 52.4,37.3 52.6,37.4 			"/>
		</g>
		<g>
			<defs>
				<polygon id="SVGID_1_" points="44.8,17.5 47.7,15.8 47.8,16 47.8,16.2 47.9,16.4 47.8,16.5 47.8,16.7 36.8,35.7 36.7,35.9 
					36.6,36 36.4,36.1 35.3,34.1 35.3,34.1 35.3,34.1 35.3,34 44.7,17.8 44.8,17.7 44.8,17.6 44.8,17.6 				"/>
			</defs>
			<linearGradient id="SVGID_2_" gradientUnits="userSpaceOnUse" x1="41.5599" y1="17.566" x2="41.5599" y2="35.9014">
				<stop  offset="0" style="stop-color:#CDCECF"/>
				<stop  offset="1" style="stop-color:#ECEDEC"/>
			</linearGradient>
			<use xlink:href="#SVGID_1_"  style="overflow:visible;fill-rule:evenodd;clip-rule:evenodd;fill:url(#SVGID_2_);"/>
			<clipPath id="SVGID_3_">
				<use xlink:href="#SVGID_1_"  style="overflow:visible;"/>
			</clipPath>
		</g>
		<g>
			<defs>
				<polygon id="SVGID_4_" points="61.9,32.1 64.2,32.1 64.2,32.3 64.2,32.4 64.1,32.5 58.6,42.1 58.5,42.3 58.4,42.4 58.2,42.5 
					58,42.5 57.8,42.6 57.7,42.6 57.7,39.2 57.8,39.2 57.8,39.1 57.9,39.1 58,39 61.9,32.2 61.9,32.2 61.9,32.1 				"/>
			</defs>
			<linearGradient id="SVGID_5_" gradientUnits="userSpaceOnUse" x1="60.9547" y1="32.0507" x2="60.9547" y2="43.2015">
				<stop  offset="5.618000e-03" style="stop-color:#CDCECF"/>
				<stop  offset="1" style="stop-color:#ECEDEC"/>
			</linearGradient>
			<use xlink:href="#SVGID_4_"  style="overflow:visible;fill-rule:evenodd;clip-rule:evenodd;fill:url(#SVGID_5_);"/>
			<clipPath id="SVGID_6_">
				<use xlink:href="#SVGID_4_"  style="overflow:visible;"/>
			</clipPath>
		</g>
		<g>
			<defs>
				<polygon id="SVGID_7_" points="53.4,17.4 53.5,17.4 53.5,17.5 53.6,17.6 61.9,31.9 61.9,32 61.9,32 61.9,32.1 64.2,32.1 
					64.2,32 64.2,31.9 64.2,31.8 64.2,31.8 64.1,31.7 64.1,31.6 64.1,31.6 64.1,31.5 55,15.8 54.8,15.6 54.7,15.5 54.7,15.4 
					54.6,15.4 				"/>
			</defs>
			<linearGradient id="SVGID_8_" gradientUnits="userSpaceOnUse" x1="58.8274" y1="17.3433" x2="58.8274" y2="31.4621">
				<stop  offset="5.618000e-03" style="stop-color:#E2E3E1"/>
				<stop  offset="1" style="stop-color:#F3F4F3"/>
			</linearGradient>
			<use xlink:href="#SVGID_7_"  style="overflow:visible;fill-rule:evenodd;clip-rule:evenodd;fill:url(#SVGID_8_);"/>
			<clipPath id="SVGID_9_">
				<use xlink:href="#SVGID_7_"  style="overflow:visible;"/>
			</clipPath>
		</g>
		<polygon class="st3" points="51.1,17.4 51.1,17.4 51.1,17.4 51.1,17.4 51.2,17.4 53.3,17.4 53.3,17.4 53.4,17.4 53.4,17.4 
			53.4,17.4 54.6,15.4 54.5,15.4 54.4,15.3 54.2,15.3 54,15.3 50.4,15.3 50.4,15.3 50.3,15.3 50.2,15.3 50.1,15.3 50,15.4 
			49.9,15.4 		"/>
		<polygon class="st4" points="36.5,46.7 35.4,48.7 35.2,48.6 35.1,48.5 35,48.4 29.5,38.9 29.4,38.7 29.4,38.5 29.4,38.3 
			29.4,38.1 29.5,38 29.5,37.8 32.5,39.5 32.4,39.6 32.4,39.7 32.4,39.8 32.5,39.9 36.4,46.6 36.4,46.7 36.5,46.7 		"/>
		<g>
			<defs>
				<polygon id="SVGID_10_" points="53.4,46.7 53.4,46.8 53.3,46.8 53.3,46.8 36.6,46.8 36.6,46.8 36.5,46.8 36.5,46.7 35.4,48.7 
					35.4,48.8 35.5,48.8 35.6,48.8 35.7,48.9 35.7,48.9 35.8,48.9 35.8,48.9 35.9,48.9 54,48.9 54.3,48.9 54.5,48.8 54.5,48.8 
					54.6,48.7 				"/>
			</defs>
			<linearGradient id="SVGID_11_" gradientUnits="userSpaceOnUse" x1="44.9804" y1="46.9129" x2="44.9804" y2="48.8161">
				<stop  offset="5.618000e-03" style="stop-color:#C4C5C5"/>
				<stop  offset="1" style="stop-color:#D7D9D9"/>
			</linearGradient>
			<use xlink:href="#SVGID_10_"  style="overflow:visible;fill-rule:evenodd;clip-rule:evenodd;fill:url(#SVGID_11_);"/>
			<clipPath id="SVGID_12_">
				<use xlink:href="#SVGID_10_"  style="overflow:visible;"/>
			</clipPath>
		</g>
		<polygon class="st3" points="32.5,39.5 29.5,37.8 29.6,37.7 29.8,37.5 29.9,37.4 30.1,37.4 30.3,37.3 52.2,37.3 52.4,37.3 
			52.6,37.4 52.8,37.5 51.6,39.5 51.6,39.4 51.5,39.4 51.5,39.4 32.7,39.4 32.7,39.4 32.6,39.5 32.5,39.5 		"/>
		<g>
			<defs>
				<polygon id="SVGID_13_" points="52.7,37.5 51.6,39.4 51.7,39.5 51.7,39.5 51.8,39.6 54.6,44.5 54.6,44.6 54.6,44.6 54.6,44.7 
					56.9,44.7 56.9,44.7 56.9,44.5 56.9,44.4 56.9,44.3 56.8,44.2 53.2,37.8 53.1,37.8 53.1,37.7 53,37.6 52.9,37.5 52.8,37.5 				
					"/>
			</defs>
			<linearGradient id="SVGID_14_" gradientUnits="userSpaceOnUse" x1="54.2641" y1="38.4509" x2="54.2641" y2="44.5753">
				<stop  offset="5.618000e-03" style="stop-color:#E2E3E1"/>
				<stop  offset="1" style="stop-color:#F3F4F3"/>
			</linearGradient>
			<use xlink:href="#SVGID_13_"  style="overflow:visible;fill-rule:evenodd;clip-rule:evenodd;fill:url(#SVGID_14_);"/>
			<clipPath id="SVGID_15_">
				<use xlink:href="#SVGID_13_"  style="overflow:visible;"/>
			</clipPath>
		</g>
		<g>
			<defs>
				<polygon id="SVGID_16_" points="54.6,44.7 54.6,44.7 54.6,44.7 54.6,44.8 54.6,44.8 53.5,46.6 53.5,46.7 53.5,46.7 53.5,46.7 
					53.4,46.7 54.6,48.7 54.7,48.7 54.8,48.6 54.9,48.5 55,48.3 56.8,45.2 56.8,45.1 56.9,45.1 56.9,45 56.9,44.9 56.9,44.8 
					56.9,44.7 				"/>
			</defs>
			<linearGradient id="SVGID_17_" gradientUnits="userSpaceOnUse" x1="55.197" y1="44.673" x2="55.197" y2="48.7563">
				<stop  offset="5.618000e-03" style="stop-color:#CDCECF"/>
				<stop  offset="1" style="stop-color:#ECEDEC"/>
			</linearGradient>
			<use xlink:href="#SVGID_16_"  style="overflow:visible;fill-rule:evenodd;clip-rule:evenodd;fill:url(#SVGID_17_);"/>
			<clipPath id="SVGID_18_">
				<use xlink:href="#SVGID_16_"  style="overflow:visible;"/>
			</clipPath>
		</g>
		<polygon class="st3" points="36.5,17.4 35.3,15.4 35.5,15.3 35.7,15.3 35.8,15.3 46.8,15.3 47.1,15.3 47.2,15.4 47.4,15.5 
			47.5,15.6 47.6,15.7 47.7,15.8 44.8,17.5 44.7,17.5 44.6,17.4 44.6,17.4 44.5,17.4 36.6,17.4 36.6,17.4 36.5,17.4 		"/>
		<polygon class="st4" points="57.7,39.2 57.7,42.6 57.5,42.6 57.3,42.5 57.1,42.4 57,42.3 56.9,42.2 45.9,23.2 45.8,23 45.8,22.8 
			45.7,22.7 48,22.7 48.1,22.7 48.1,22.7 48.1,22.8 57.5,39 57.5,39.1 57.6,39.1 57.6,39.2 		"/>
		<g>
			<defs>
				<polygon id="SVGID_19_" points="45.7,22.7 48,22.7 48.1,22.6 48.1,22.5 48.1,22.4 50.9,17.5 51,17.5 51,17.4 51.1,17.4 
					49.9,15.4 49.9,15.4 49.8,15.5 49.7,15.6 49.6,15.7 49.6,15.7 45.9,22.1 45.8,22.2 45.8,22.3 45.8,22.4 45.7,22.5 45.7,22.6 
									"/>
			</defs>
			<linearGradient id="SVGID_20_" gradientUnits="userSpaceOnUse" x1="48.4003" y1="16.256" x2="48.4003" y2="22.2234">
				<stop  offset="5.618000e-03" style="stop-color:#E2E3E1"/>
				<stop  offset="1" style="stop-color:#F3F4F3"/>
			</linearGradient>
			<use xlink:href="#SVGID_19_"  style="overflow:visible;fill-rule:evenodd;clip-rule:evenodd;fill:url(#SVGID_20_);"/>
			<clipPath id="SVGID_21_">
				<use xlink:href="#SVGID_19_"  style="overflow:visible;"/>
			</clipPath>
		</g>
		<g>
			<defs>
				<polygon id="SVGID_22_" points="28,32.1 28,32 28.1,32 28.1,31.9 36.4,17.5 36.4,17.5 36.5,17.4 36.5,17.4 35.3,15.4 35.3,15.4 
					35.2,15.5 35.2,15.6 35.1,15.6 35.1,15.7 35,15.7 35,15.8 35,15.8 25.9,31.5 25.8,31.8 25.7,31.9 25.7,32 25.7,32.1 				"/>
			</defs>
			<linearGradient id="SVGID_23_" gradientUnits="userSpaceOnUse" x1="31.1142" y1="17.88" x2="31.1142" y2="30.0749">
				<stop  offset="0" style="stop-color:#E2E3E1"/>
				<stop  offset="1" style="stop-color:#F3F4F3"/>
			</linearGradient>
			<use xlink:href="#SVGID_22_"  style="overflow:visible;fill-rule:evenodd;clip-rule:evenodd;fill:url(#SVGID_23_);"/>
			<clipPath id="SVGID_24_">
				<use xlink:href="#SVGID_22_"  style="overflow:visible;"/>
			</clipPath>
		</g>
		<g>
			<defs>
				<polygon id="SVGID_25_" points="36.4,36.1 35.3,34.1 35.2,34.2 35.1,34.2 35,34.2 29.4,34.2 29.3,34.2 29.3,34.2 29.2,34.1 
					28.1,36.1 28.1,36.2 28.2,36.2 28.3,36.2 28.4,36.3 28.5,36.3 35.9,36.3 36,36.3 36.1,36.3 36.2,36.2 36.3,36.2 36.4,36.1 				
					"/>
			</defs>
			<linearGradient id="SVGID_26_" gradientUnits="userSpaceOnUse" x1="32.2467" y1="34.1985" x2="32.2467" y2="36.1739">
				<stop  offset="5.618000e-03" style="stop-color:#C4C5C5"/>
				<stop  offset="1" style="stop-color:#D7D9D9"/>
			</linearGradient>
			<use xlink:href="#SVGID_25_"  style="overflow:visible;fill-rule:evenodd;clip-rule:evenodd;fill:url(#SVGID_26_);"/>
			<clipPath id="SVGID_27_">
				<use xlink:href="#SVGID_25_"  style="overflow:visible;"/>
			</clipPath>
		</g>
		<polygon class="st4" points="29.2,34.1 29.2,34.1 29.2,34.1 29.2,34.1 29.1,34.1 28.1,32.2 28.1,32.2 28,32.1 28,32.1 28,32.1 
			25.7,32.1 25.7,32.2 25.8,32.3 25.8,32.5 25.9,32.7 27.7,35.7 27.7,35.8 27.8,35.9 27.8,35.9 27.9,36 28,36.1 28.1,36.1 		"/>
	</g>
</g>
</svg>
