<svg width="819" height="546" viewBox="0 0 819 546" fill="none" xmlns="http://www.w3.org/2000/svg">
<path d="M724.728 480.294C724.728 480.447 583.587 480.578 409.511 480.578C235.435 480.578 94.2725 480.48 94.2725 480.294C94.2725 480.109 235.392 480.01 409.511 480.01C583.63 480.01 724.728 480.131 724.728 480.294Z" fill="#263238"/>
<path d="M129.173 411.902C131.019 412.035 132.82 412.539 134.467 413.384C136.114 414.228 137.574 415.395 138.761 416.816C141.119 419.675 142.789 423.038 143.642 426.644C145.487 433.546 144.352 441.703 142.386 448.572C134.917 445.896 130.298 437.925 128.19 433.731C124.914 427.114 122.959 413.136 129.14 411.891" fill="#E0102C"/>
<path d="M153.142 456.947C152.021 455.208 151.379 453.202 151.284 451.135C151.188 449.067 151.641 447.011 152.596 445.176C153.582 443.357 154.92 441.753 156.533 440.458C158.145 439.162 160 438.201 161.988 437.63C163.811 437.062 165.93 436.833 167.513 437.892C168.227 438.432 168.783 439.153 169.123 439.981C169.463 440.809 169.574 441.713 169.446 442.598C169.159 444.373 168.406 446.039 167.262 447.425C163.626 452.35 159.214 456.445 153.066 456.947" fill="#E0102C"/>
<path d="M153.972 480.021C153.81 479.557 153.697 479.078 153.634 478.591C153.437 477.564 153.175 476.243 152.859 474.66C151.878 470.324 151.605 465.858 152.05 461.435C152.565 456.991 154.258 452.765 156.954 449.194C157.777 448.126 158.727 447.162 159.782 446.322C160.069 446.095 160.367 445.883 160.677 445.689C160.776 445.607 160.886 445.541 161.005 445.492C159.624 446.672 158.362 447.985 157.237 449.412C154.684 452.987 153.076 457.149 152.564 461.512C151.865 466.601 152.728 471.263 153.23 474.616C153.492 476.287 153.71 477.641 153.83 478.58C153.916 479.056 153.964 479.538 153.972 480.021Z" fill="#263238"/>
<path d="M131.575 422.418C131.7 422.59 131.803 422.778 131.881 422.975C132.078 423.412 132.34 423.958 132.645 424.646C133.311 426.098 134.24 428.206 135.364 430.816C137.614 436.046 140.628 443.319 143.773 451.422C146.918 459.524 149.593 466.917 151.417 472.301C152.356 474.987 153.088 477.171 153.601 478.689C153.83 479.41 154.005 479.988 154.147 480.436C154.225 480.637 154.28 480.846 154.311 481.059C154.2 480.873 154.112 480.675 154.049 480.469C153.885 480.032 153.677 479.464 153.404 478.755L151.1 472.421C149.145 467.081 146.415 459.699 143.281 451.607C140.147 443.516 137.177 436.221 135.015 430.958C133.923 428.37 133.082 426.262 132.46 424.722C132.176 424.023 131.946 423.467 131.772 423.019C131.69 422.824 131.624 422.624 131.575 422.418Z" fill="#263238"/>
<path d="M145.094 464.755C142.847 461.014 139.742 457.862 136.036 455.558C132.329 453.255 128.128 451.867 123.778 451.509C121.594 451.356 118.908 451.728 117.925 453.693C116.942 455.659 118.253 458.061 119.76 459.656C122.962 463.005 127.083 465.332 131.606 466.342C136.128 467.353 140.848 467.002 145.171 465.334" fill="#E0102C"/>
<path d="M127.142 457.428C127.605 457.405 128.069 457.423 128.528 457.482C129.067 457.511 129.603 457.573 130.134 457.668C130.756 457.788 131.488 457.854 132.252 458.072C133.107 458.253 133.949 458.486 134.775 458.771C135.731 459.078 136.668 459.443 137.581 459.863C139.68 460.803 141.666 461.979 143.5 463.368C145.312 464.79 146.954 466.417 148.392 468.217C149.013 469 149.585 469.821 150.106 470.674C150.577 471.41 151.007 472.172 151.395 472.956C151.723 473.594 152.015 474.25 152.269 474.922C152.488 475.418 152.674 475.929 152.825 476.45C152.987 476.886 153.108 477.336 153.186 477.794C153.066 477.794 152.542 475.915 151.067 473.12C150.666 472.369 150.225 471.64 149.746 470.936C149.214 470.109 148.638 469.31 148.021 468.544C145.164 465.015 141.522 462.203 137.385 460.333C136.435 459.918 135.528 459.524 134.644 459.241C133.832 458.945 133.004 458.693 132.165 458.487C129.107 457.646 127.131 457.548 127.142 457.428Z" fill="#263238"/>
<path d="M622.833 115.184C619.622 115.916 618.061 119.618 617.755 122.894C617.449 126.17 617.864 129.642 616.488 132.634C614.938 135.998 611.236 138.487 611.116 142.189C611.039 144.45 612.382 146.557 612.317 148.84C612.208 152.552 608.429 155.392 608.222 159.061C608.08 161.736 609.86 164.291 609.434 166.934C609.106 168.987 607.501 170.603 606.824 172.569C605.481 176.5 608.178 180.813 611.684 183.019C613.647 184.254 615.857 185.045 618.158 185.337C620.459 185.629 622.797 185.415 625.006 184.71C627.216 184.005 629.246 182.826 630.953 181.255C632.659 179.684 634.003 177.759 634.889 175.615C636.832 170.898 636.406 165.58 635.981 160.502C634.67 144.661 633.695 128.798 633.054 112.913" fill="#263238"/>
<path d="M613.507 171.073C614.168 170.662 614.684 170.055 614.981 169.337C615.297 168.482 615.423 167.569 615.353 166.661C615.233 165.457 614.965 164.272 614.556 163.134C614.033 161.703 613.839 160.173 613.988 158.657C614.261 156.953 615.484 155.556 616.587 154.18C617.181 153.506 617.677 152.753 618.061 151.941C618.446 151.12 618.508 150.185 618.236 149.32C617.668 147.54 615.921 146.23 615.123 144.166C614.749 143.144 614.688 142.034 614.949 140.977C615.196 139.987 615.563 139.03 616.041 138.127C616.963 136.502 617.696 134.776 618.225 132.984C618.989 129.522 618.629 126.213 619.153 123.494C619.444 121.317 620.41 119.285 621.916 117.685C622.342 117.254 622.827 116.886 623.357 116.593C623.54 116.498 623.734 116.428 623.936 116.385C623.251 116.762 622.623 117.233 622.069 117.783C620.674 119.399 619.795 121.396 619.546 123.516C619.355 124.965 619.252 126.423 619.24 127.884C619.237 129.604 619.069 131.319 618.738 133.006C618.217 134.839 617.484 136.606 616.554 138.269C615.735 139.984 614.982 141.993 615.702 143.871C616.423 145.749 618.159 147.049 618.825 149.058C619.126 150.051 619.052 151.119 618.618 152.061C618.192 152.954 617.641 153.782 616.98 154.518C615.888 155.894 614.698 157.204 614.435 158.733C614.283 160.183 614.454 161.649 614.938 163.025C615.328 164.199 615.57 165.417 615.659 166.65C615.712 167.6 615.544 168.55 615.167 169.424C614.932 169.972 614.555 170.447 614.075 170.8C613.904 170.925 613.712 171.017 613.507 171.073Z" fill="#455A64"/>
<path d="M604.968 196.964L595.14 225.356L554.037 227.54L547.179 242.828L590.095 247.196C592.122 248.029 594.298 248.441 596.489 248.409C598.681 248.378 600.843 247.902 602.846 247.011C604.848 246.12 606.649 244.832 608.14 243.225C609.631 241.619 610.781 239.726 611.52 237.663L622.975 205.689L604.968 196.964Z" fill="#B78876"/>
<path d="M689.936 464.864C689.936 464.864 659.819 369.183 659.175 366.082C658.596 363.265 670.095 294.414 671.558 276.538L630.859 278.056V278.46L613.562 279.421L629.047 475.02H647.774L645.918 410.101C657.471 441.102 674.026 472.705 674.026 472.705L689.936 464.864Z" fill="#B78876"/>
<path d="M646.682 433.393C646.682 432.803 646.453 411.64 646.453 411.64C646.224 412.907 639.279 393.273 639.442 392.083C639.53 391.46 646.682 433.393 646.682 433.393Z" fill="#A36957"/>
<path d="M638.656 382.779C638.56 383.168 638.52 383.569 638.536 383.969C638.476 385.06 638.476 386.154 638.536 387.245C638.536 387.933 638.634 388.676 638.722 389.484C638.809 390.292 638.929 391.144 639.115 392.028C639.503 393.96 640.017 395.864 640.654 397.728C642.009 401.692 643.516 405.154 644.575 407.665C645.077 408.757 645.514 409.795 645.885 410.625C646.019 411.011 646.203 411.378 646.431 411.717C646.373 411.339 646.263 410.972 646.104 410.625C645.852 409.904 645.47 408.867 645.012 407.589C644.051 405.034 642.609 401.539 641.266 397.619C640.631 395.782 640.109 393.907 639.704 392.006C639.508 391.133 639.377 390.292 639.257 389.506C639.137 388.719 639.049 387.977 638.995 387.322C638.864 385.967 638.809 384.875 638.776 384.111C638.797 383.664 638.756 383.215 638.656 382.779Z" fill="#A36957"/>
<path d="M628.697 476.014V474.256L647.884 473.415L647.938 480.677L646.759 480.753C641.484 481.059 619.95 481.954 616.434 480.895C612.492 479.716 628.697 476.014 628.697 476.014Z" fill="#455A64"/>
<path d="M648.189 480.24C648.08 480.247 647.971 480.247 647.861 480.24L646.922 480.305L643.45 480.458C640.523 480.578 636.472 480.687 632.006 480.709C627.539 480.731 623.477 480.655 620.54 480.567L617.078 480.425H616.128H615.8C615.909 480.417 616.019 480.417 616.128 480.425H617.078L620.551 480.491C623.477 480.491 627.528 480.578 631.995 480.556C636.461 480.535 640.523 480.458 643.45 480.382L646.922 480.294H648.189V480.24Z" fill="#263238"/>
<path d="M622.44 480.851C622.28 480.28 622.061 479.727 621.785 479.202C621.439 478.718 621.04 478.275 620.594 477.881C621.19 478.094 621.685 478.523 621.981 479.082C622.342 479.597 622.505 480.226 622.44 480.851Z" fill="#263238"/>
<path d="M628.097 477.979C628.097 477.979 627.78 477.684 627.496 477.248C627.212 476.811 627.037 476.429 627.092 476.396C627.147 476.363 627.409 476.68 627.693 477.117C627.976 477.553 628.151 477.947 628.097 477.979Z" fill="#263238"/>
<path d="M629.647 477.204C629.647 477.259 629.297 477.051 628.97 476.756C628.642 476.462 628.402 476.189 628.446 476.145C628.489 476.101 628.795 476.298 629.123 476.593C629.45 476.888 629.69 477.106 629.647 477.204Z" fill="#263238"/>
<path d="M630.619 475.348C630.298 475.465 629.955 475.51 629.614 475.479C629.28 475.523 628.94 475.49 628.621 475.381C628.938 475.263 629.277 475.219 629.614 475.25C629.952 475.203 630.296 475.237 630.619 475.348Z" fill="#263238"/>
<path d="M630.946 474.081C630.621 474.292 630.242 474.406 629.854 474.408C629.483 474.457 629.106 474.405 628.762 474.256C629.123 474.195 629.488 474.166 629.854 474.168C630.215 474.104 630.58 474.075 630.946 474.081Z" fill="#263238"/>
<path d="M627.452 476.309C627.044 476.385 626.626 476.385 626.218 476.309C625.777 476.255 625.342 476.16 624.919 476.025C624.657 475.952 624.404 475.85 624.165 475.719C624.02 475.633 623.911 475.497 623.859 475.337C623.839 475.246 623.846 475.151 623.879 475.063C623.912 474.976 623.97 474.9 624.045 474.845C624.347 474.699 624.679 474.621 625.015 474.618C625.351 474.615 625.683 474.687 625.988 474.828C626.293 474.969 626.563 475.176 626.779 475.434C626.994 475.692 627.149 475.994 627.234 476.32C627.256 476.428 627.256 476.539 627.234 476.647C627.11 476.253 626.918 475.883 626.666 475.555C626.375 475.228 625.996 474.993 625.574 474.878C625.091 474.722 624.565 474.761 624.111 474.987C623.925 475.129 624.001 475.359 624.209 475.49C624.432 475.61 624.666 475.709 624.908 475.784C625.318 475.919 625.738 476.025 626.164 476.101C626.983 476.276 627.452 476.276 627.452 476.309Z" fill="#263238"/>
<path d="M627.135 476.374C626.976 476.121 626.921 475.815 626.982 475.522C627.022 475.201 627.138 474.894 627.321 474.627C627.423 474.445 627.57 474.291 627.748 474.18C627.925 474.07 628.128 474.005 628.337 473.994C628.46 474.022 628.568 474.097 628.639 474.202C628.71 474.308 628.739 474.436 628.719 474.561C628.692 474.757 628.621 474.944 628.511 475.107C628.345 475.378 628.151 475.631 627.932 475.861C627.743 476.079 627.503 476.247 627.234 476.352C627.234 476.352 627.474 476.134 627.812 475.741C628.009 475.516 628.181 475.27 628.326 475.009C628.489 474.747 628.61 474.278 628.326 474.223C628.042 474.168 627.714 474.507 627.528 474.747C627.355 474.984 627.235 475.256 627.179 475.544C627.134 475.819 627.12 476.097 627.135 476.374Z" fill="#263238"/>
<path d="M647.785 475.02C647.785 475.02 647.239 475.02 646.376 475.075C645.253 475.209 644.19 475.656 643.308 476.365C642.426 477.073 641.76 478.015 641.386 479.082C641.102 479.901 641.08 480.458 641.037 480.447C640.993 480.436 641.037 480.305 641.037 480.065C641.064 479.713 641.13 479.366 641.233 479.028C641.581 477.91 642.249 476.919 643.155 476.178C644.073 475.45 645.187 475.013 646.355 474.922C646.717 474.878 647.084 474.878 647.447 474.922C647.563 474.94 647.677 474.973 647.785 475.02Z" fill="#263238"/>
<path d="M638.602 478.711C637.686 478.924 636.746 479.016 635.806 478.984C634.871 479.031 633.934 478.95 633.021 478.744C633.021 478.678 634.266 478.744 635.806 478.744C637.346 478.744 638.591 478.645 638.602 478.711Z" fill="#263238"/>
<path d="M642.336 478.678C642.336 478.678 642.238 478.94 642.107 479.224C641.976 479.508 641.91 479.77 641.845 479.759C641.779 479.748 641.747 479.465 641.899 479.126C642.052 478.787 642.293 478.624 642.336 478.678Z" fill="#263238"/>
<path d="M643.745 476.92C643.745 476.92 643.668 477.16 643.472 477.357C643.275 477.553 643.079 477.684 643.024 477.641C642.97 477.597 643.101 477.401 643.297 477.193C643.494 476.986 643.69 476.866 643.745 476.92Z" fill="#263238"/>
<path d="M645.754 476.112C645.754 476.178 645.492 476.178 645.208 476.276C644.924 476.374 644.727 476.527 644.673 476.483C644.618 476.44 644.782 476.178 645.132 476.057C645.481 475.937 645.776 476.047 645.754 476.112Z" fill="#263238"/>
<path d="M647.184 475.719C647.184 475.784 647.108 475.883 646.944 475.937C646.78 475.992 646.638 476.003 646.617 475.937C646.595 475.872 646.704 475.774 646.857 475.719C647.01 475.664 647.162 475.664 647.184 475.719Z" fill="#263238"/>
<path d="M673.644 474.321L672.923 472.716L690.078 464.1L693.103 470.652L692.011 471.209C687.327 473.644 668.053 483.276 664.405 483.756C660.376 484.335 673.644 474.321 673.644 474.321Z" fill="#455A64"/>
<path d="M693.169 470.183L692.885 470.357L692.044 470.794L688.943 472.367C686.322 473.666 682.675 475.424 678.601 477.281C674.528 479.137 670.794 480.72 668.085 481.845L664.864 483.145L663.99 483.483C663.89 483.53 663.783 483.563 663.674 483.581L663.969 483.44L664.831 483.057L668.02 481.692C670.717 480.535 674.43 478.919 678.503 477.062C682.576 475.206 686.235 473.48 688.877 472.214L692 470.718L692.863 470.314L693.169 470.183Z" fill="#263238"/>
<path d="M669.964 481.288C669.585 480.827 669.157 480.41 668.686 480.043C668.174 479.74 667.628 479.498 667.059 479.323C667.686 479.314 668.301 479.498 668.82 479.849C669.339 480.201 669.738 480.703 669.964 481.288Z" fill="#263238"/>
<path d="M673.906 476.352C673.906 476.352 673.491 476.221 673.054 475.937C672.617 475.654 672.301 475.381 672.333 475.326C672.366 475.271 672.748 475.457 673.185 475.741C673.622 476.025 673.939 476.298 673.906 476.352Z" fill="#263238"/>
<path d="M674.976 475.02C674.976 475.075 674.605 475.02 674.179 474.889C673.753 474.758 673.436 474.594 673.447 474.529C673.723 474.503 674.001 474.548 674.255 474.66C674.67 474.758 674.998 474.911 674.976 475.02Z" fill="#263238"/>
<path d="M675.129 472.923C675.129 472.989 674.768 473.218 674.266 473.458C673.976 473.632 673.652 473.74 673.316 473.775C673.316 473.71 673.676 473.48 674.168 473.24C674.462 473.067 674.789 472.959 675.129 472.923Z" fill="#263238"/>
<path d="M674.91 471.635C674.91 471.635 674.593 472.072 674.026 472.388C673.704 472.607 673.323 472.721 672.934 472.716C673.247 472.505 673.579 472.326 673.927 472.181C674.462 471.886 674.856 471.58 674.91 471.635Z" fill="#263238"/>
<path d="M672.672 475.107C672.339 475.336 671.97 475.506 671.58 475.61C671.151 475.735 670.713 475.826 670.269 475.883C670.001 475.916 669.73 475.916 669.461 475.883C669.293 475.87 669.136 475.792 669.024 475.664C668.974 475.586 668.947 475.495 668.947 475.402C668.947 475.309 668.974 475.218 669.024 475.14C669.356 474.738 669.818 474.464 670.33 474.364C670.842 474.264 671.372 474.346 671.831 474.594C672.102 474.736 672.34 474.933 672.53 475.173C672.661 475.348 672.716 475.457 672.705 475.468C672.436 475.167 672.114 474.919 671.755 474.736C671.37 474.555 670.941 474.491 670.521 474.55C670.27 474.576 670.028 474.651 669.807 474.771C669.586 474.891 669.39 475.054 669.232 475.249C669.112 475.457 669.232 475.631 669.527 475.664C669.778 475.686 670.03 475.686 670.28 475.664C670.715 475.621 671.146 475.544 671.569 475.435C672.191 475.26 672.672 475.075 672.672 475.107Z" fill="#263238"/>
<path d="M672.366 475.293C672.122 475.12 671.951 474.864 671.886 474.572C671.79 474.265 671.767 473.94 671.82 473.622C671.839 473.413 671.911 473.211 672.029 473.037C672.148 472.863 672.309 472.723 672.497 472.629C672.77 472.541 673.403 473.098 673.447 473.306C673.491 473.513 673.13 473.404 673.109 473.579C673.073 473.889 673 474.193 672.89 474.485C672.811 474.766 672.66 475.022 672.453 475.228C672.453 475.228 672.584 474.933 672.737 474.441C672.815 474.151 672.87 473.856 672.901 473.557C672.901 473.251 672.901 472.781 672.552 472.858C672.202 472.934 672.104 473.36 672.027 473.666C671.961 473.95 671.961 474.245 672.027 474.529C672.118 474.793 672.231 475.049 672.366 475.293Z" fill="#263238"/>
<path d="M690.657 465.585C690.657 465.585 690.133 465.771 689.391 466.219C688.419 466.799 687.629 467.639 687.108 468.643C686.603 469.657 686.388 470.79 686.486 471.919C686.551 472.792 686.759 473.295 686.715 473.317C686.645 473.208 686.589 473.091 686.551 472.967C686.443 472.633 686.366 472.289 686.322 471.941C686.166 470.778 686.367 469.595 686.9 468.549C687.432 467.504 688.271 466.645 689.303 466.088C689.612 465.917 689.938 465.777 690.275 465.673C690.397 465.625 690.526 465.595 690.657 465.585Z" fill="#263238"/>
<path d="M683.788 472.727C682.249 473.798 680.528 474.582 678.71 475.042C678.71 474.977 679.857 474.54 681.255 473.95C682.653 473.36 683.755 472.672 683.788 472.727Z" fill="#263238"/>
<path d="M687.184 471.165C687.239 471.165 687.184 471.438 687.184 471.755C687.184 472.072 687.184 472.334 687.184 472.356C687.184 472.377 686.966 472.115 686.966 471.755C686.966 471.395 687.13 471.133 687.184 471.165Z" fill="#263238"/>
<path d="M687.741 468.981C687.796 468.981 687.741 469.233 687.676 469.495C687.61 469.757 687.447 469.953 687.392 469.931C687.337 469.91 687.392 469.68 687.457 469.418C687.523 469.156 687.676 468.96 687.741 468.981Z" fill="#263238"/>
<path d="M689.248 467.376C689.248 467.442 689.03 467.54 688.811 467.747C688.593 467.955 688.473 468.173 688.418 468.151C688.364 468.13 688.418 467.824 688.659 467.573C688.899 467.322 689.237 467.376 689.248 467.376Z" fill="#263238"/>
<path d="M690.395 466.481C690.395 466.481 690.395 466.655 690.264 466.775C690.133 466.896 690.013 466.961 689.969 466.917C689.925 466.874 689.969 466.743 690.1 466.623C690.231 466.502 690.351 466.437 690.395 466.481Z" fill="#263238"/>
<path d="M668.915 244.215L665.727 205.231L682.106 205.526C682.106 205.526 682.86 199.771 680.447 187.169C678.962 179.438 673.818 174.698 668.042 171.881V171.772L667.539 171.641C662.784 169.506 657.705 168.181 652.513 167.72L632.366 167.95C632.366 167.95 616.98 165.984 608.495 177.002C605.219 181.228 595.052 210.156 595.052 210.156L619.24 221.796L616.98 205.755C616.98 205.755 617.438 217.385 618.923 221.043C619.742 223.096 622.199 229.473 622.199 229.473L621.883 248.714L668.915 244.215Z" fill="#E0102C"/>
<path d="M657.809 199.574L654.817 212.307H683.024L681.167 190.947L657.809 199.574Z" fill="#E0102C"/>
<path d="M683.024 212.307C681.791 212.08 680.542 211.956 679.289 211.936C676.974 211.804 673.829 211.684 670.248 211.706C666.666 211.728 663.51 211.881 661.195 212.056C659.943 212.099 658.697 212.253 657.471 212.514C658.721 212.614 659.977 212.614 661.228 212.514C663.532 212.438 666.688 212.35 670.248 212.34C673.808 212.329 676.963 212.34 679.278 212.394C680.527 212.464 681.78 212.435 683.024 212.307Z" fill="#263238"/>
<path d="M656.587 190.849C656.452 191.936 656.423 193.033 656.499 194.125C656.499 196.123 656.587 198.875 656.707 201.922C656.827 204.968 656.969 207.731 657.1 209.719C657.105 210.82 657.223 211.917 657.45 212.995C657.584 211.908 657.613 210.811 657.537 209.719C657.537 207.72 657.45 204.958 657.329 201.911C657.209 198.864 657.067 196.112 656.936 194.114C656.932 193.017 656.815 191.922 656.587 190.849Z" fill="#263238"/>
<g opacity="0.3">
<path opacity="0.3" d="M630.925 201.878C630.925 201.878 637.193 248.365 654.818 247.131C654.818 247.131 662.757 247.043 665.301 241.769V239.694L630.925 201.878Z" fill="black"/>
</g>
<g opacity="0.3">
<path opacity="0.3" d="M656.587 193.59L653.212 216.38L655.396 220.377L659 212.558L657.471 212.514L656.587 193.59Z" fill="black"/>
</g>
<path d="M622.101 229.495C621.892 229.155 621.73 228.787 621.621 228.403C621.348 227.693 620.987 226.656 620.529 225.356C619.435 221.97 618.535 218.525 617.832 215.037C617.131 211.547 616.685 208.01 616.499 204.455C616.434 203.09 616.412 201.987 616.434 201.179C616.406 200.785 616.432 200.388 616.51 200C616.598 200 616.663 201.682 616.892 204.368C617.2 207.891 617.699 211.394 618.388 214.862C619.197 218.924 620.168 222.561 620.911 225.171C621.26 226.383 621.555 227.42 621.796 228.272C621.945 228.666 622.048 229.077 622.101 229.495Z" fill="#263238"/>
<path d="M629.221 242.85C629.068 242.85 628.631 241.9 628.249 240.666C627.92 239.91 627.774 239.087 627.823 238.264C628.305 238.931 628.637 239.695 628.795 240.502C629.108 241.244 629.254 242.046 629.221 242.85Z" fill="#263238"/>
<path d="M631.656 242.675C630.831 240.485 630.796 238.075 631.558 235.861C631.643 236.995 631.643 238.134 631.558 239.268C631.677 240.4 631.71 241.539 631.656 242.675Z" fill="#263238"/>
<path d="M619.732 222.331C619.655 222.462 614.031 219.798 607.163 216.369C600.294 212.94 594.779 210.035 594.845 209.893C594.91 209.751 600.545 212.427 607.414 215.856C614.282 219.285 619.797 222.189 619.732 222.331Z" fill="#263238"/>
<path d="M629.647 171.717C629.767 166.192 629.8 160.382 629.8 160.382C629.8 160.382 622.713 159.017 621.479 149.692C620.3 140.803 623.597 119.935 623.597 119.935C633.95 116.025 644.706 119.574 651.793 127.961L650.035 172.809C649.827 178.018 645.186 181.993 639.617 181.731C633.982 181.458 629.527 176.981 629.647 171.717Z" fill="#B78876"/>
<path d="M623.051 136.609C623.042 136.915 623.149 137.214 623.352 137.443C623.555 137.672 623.838 137.816 624.143 137.843C624.298 137.858 624.455 137.841 624.603 137.794C624.751 137.747 624.888 137.669 625.006 137.567C625.123 137.465 625.219 137.34 625.286 137.2C625.354 137.059 625.392 136.907 625.399 136.751C625.409 136.446 625.3 136.149 625.097 135.922C624.894 135.694 624.611 135.553 624.307 135.528C624.152 135.505 623.993 135.515 623.841 135.558C623.69 135.602 623.55 135.678 623.431 135.78C623.312 135.883 623.216 136.01 623.15 136.153C623.085 136.296 623.051 136.452 623.051 136.609Z" fill="#263238"/>
<path d="M622.615 135.048C622.757 135.201 623.707 134.556 624.962 134.6C626.218 134.644 627.146 135.299 627.299 135.146C627.452 134.993 627.234 134.797 626.83 134.48C626.283 134.084 625.627 133.866 624.951 133.857C624.286 133.832 623.631 134.024 623.084 134.403C622.68 134.698 622.538 134.971 622.615 135.048Z" fill="#263238"/>
<path d="M636.057 137.417C636.045 137.724 636.152 138.024 636.355 138.254C636.559 138.484 636.843 138.626 637.149 138.651C637.306 138.675 637.465 138.665 637.617 138.62C637.769 138.576 637.91 138.5 638.03 138.396C638.149 138.292 638.244 138.163 638.309 138.019C638.374 137.874 638.407 137.718 638.405 137.559C638.417 137.254 638.31 136.955 638.106 136.727C637.902 136.499 637.618 136.359 637.313 136.336C637.157 136.313 636.998 136.323 636.847 136.367C636.696 136.41 636.556 136.486 636.437 136.588C636.317 136.691 636.222 136.818 636.156 136.961C636.091 137.104 636.057 137.26 636.057 137.417Z" fill="#263238"/>
<path d="M635.969 135.856C636.111 136.02 637.061 135.375 638.317 135.408C639.573 135.441 640.501 136.107 640.665 135.954C640.829 135.801 640.589 135.605 640.184 135.299C639.646 134.892 638.992 134.67 638.317 134.665C637.649 134.645 636.992 134.837 636.439 135.211C636.046 135.506 635.904 135.779 635.969 135.856Z" fill="#263238"/>
<path d="M631.077 145.236C630.407 145.006 629.71 144.862 629.003 144.81C628.675 144.81 628.369 144.69 628.326 144.472C628.299 144.13 628.383 143.79 628.566 143.5L629.592 141.043C630.547 138.955 631.333 136.793 631.94 134.578C630.822 136.585 629.865 138.677 629.079 140.835C628.741 141.698 628.402 142.528 628.085 143.314C627.873 143.704 627.804 144.156 627.889 144.592C627.932 144.71 628.001 144.817 628.092 144.904C628.183 144.991 628.293 145.056 628.413 145.094C628.594 145.147 628.781 145.176 628.97 145.181C629.667 145.289 630.375 145.307 631.077 145.236Z" fill="#263238"/>
<path d="M629.8 160.382C634.169 160.557 638.5 159.518 642.314 157.379C642.314 157.379 639.136 163.68 629.865 162.577L629.8 160.382Z" fill="#A36957"/>
<path d="M640.076 132.132C639.813 132.536 638.831 132.361 637.739 132.132C636.647 131.903 635.686 131.717 635.555 131.247C635.424 130.778 636.57 130.155 638.034 130.45C639.497 130.745 640.338 131.783 640.076 132.132Z" fill="#263238"/>
<path d="M627.332 130.276C627.233 130.745 626.185 130.92 624.984 130.975C623.783 131.029 622.724 130.975 622.582 130.494C622.44 130.014 623.455 129.337 624.908 129.271C626.36 129.206 627.43 129.828 627.332 130.276Z" fill="#263238"/>
<path d="M631.099 148.305C630.962 148.272 630.817 148.287 630.688 148.346C630.559 148.405 630.454 148.506 630.39 148.632C630.328 148.744 630.296 148.869 630.297 148.997C630.298 149.124 630.333 149.249 630.397 149.359C630.462 149.469 630.554 149.561 630.665 149.624C630.776 149.687 630.901 149.721 631.028 149.721C631.156 149.721 631.281 149.687 631.392 149.624C631.503 149.561 631.595 149.469 631.659 149.359C631.724 149.249 631.759 149.124 631.76 148.997C631.761 148.869 631.729 148.744 631.667 148.632C631.589 148.486 631.463 148.37 631.31 148.305C631.157 148.239 630.987 148.228 630.826 148.272" fill="#A36957"/>
<path d="M631.394 148.436C631.394 148.381 631.186 148.064 630.63 148.184C630.463 148.228 630.311 148.314 630.188 148.435C630.066 148.556 629.977 148.707 629.931 148.872C629.872 149.081 629.877 149.303 629.945 149.509C630.013 149.716 630.141 149.897 630.313 150.03C630.495 150.154 630.71 150.221 630.93 150.221C631.15 150.221 631.365 150.154 631.547 150.03C631.692 149.932 631.806 149.795 631.876 149.634C631.946 149.474 631.968 149.296 631.94 149.124C631.831 148.545 631.405 148.457 631.383 148.534C631.361 148.61 631.536 148.807 631.503 149.145C631.496 149.229 631.468 149.31 631.422 149.38C631.377 149.451 631.314 149.509 631.241 149.549C631.156 149.598 631.06 149.624 630.963 149.624C630.865 149.624 630.769 149.598 630.684 149.549C630.608 149.485 630.55 149.402 630.515 149.308C630.481 149.214 630.471 149.113 630.488 149.014C630.5 148.928 630.533 148.846 630.585 148.776C630.636 148.705 630.704 148.649 630.782 148.61C631.088 148.425 631.361 148.512 631.394 148.436Z" fill="#263238"/>
<path d="M647.556 138.913C646.464 141.469 643.755 143.445 644.127 146.208C644.367 147.988 645.514 149.648 645.295 151.439C645.011 153.623 642.685 155.239 642.347 157.477C641.943 160.218 644.618 162.348 645.677 164.903C647.239 168.638 645.252 172.831 645.197 176.915C645.261 180.016 646.447 182.988 648.536 185.281C650.624 187.574 653.472 189.032 656.554 189.386C659.043 189.593 661.85 188.84 663.106 186.699C664.198 184.93 663.957 182.681 664.591 180.726C665.552 177.8 668.336 175.659 668.959 172.645C670.051 167.185 663.39 162.599 663.826 157.008C664.012 154.616 665.486 152.542 666.109 150.227C666.505 148.705 666.535 147.112 666.198 145.576C665.86 144.041 665.163 142.607 664.165 141.392C662.516 139.438 660.135 138.116 658.705 136.02C657.122 133.606 657.067 130.56 656.521 127.71C655.788 124.245 654.188 121.023 651.872 118.345C649.555 115.667 646.598 113.62 643.275 112.395C639.953 111.17 636.374 110.807 632.874 111.341C629.373 111.875 626.065 113.287 623.259 115.446C623.259 115.446 621.675 122.643 629.068 123.855C636.461 125.067 639.879 123.669 640.709 126.628C640.513 127.848 640.609 129.096 640.989 130.271C641.368 131.445 642.021 132.514 642.893 133.388C645.907 136.642 648.779 135.943 647.556 138.913Z" fill="#263238"/>
<path d="M659.295 188.829C659.067 188.836 658.839 188.814 658.617 188.763C657.977 188.65 657.348 188.478 656.739 188.25C654.484 187.385 652.507 185.925 651.017 184.024C649.973 182.712 649.154 181.236 648.593 179.656C647.955 177.856 647.619 175.963 647.599 174.054C647.577 171.949 647.841 169.852 648.385 167.819C648.683 166.745 649.048 165.691 649.477 164.663C649.928 163.639 650.326 162.593 650.668 161.529C650.968 160.48 650.968 159.367 650.668 158.318C650.348 157.285 649.935 156.284 649.434 155.326C648.928 154.376 648.5 153.387 648.156 152.367C647.82 151.357 647.741 150.28 647.927 149.233C648.364 147.18 649.609 145.651 650.351 144.089C651.058 142.644 651.396 141.046 651.334 139.437C651.235 137.084 650.381 134.825 648.899 132.995C648.325 132.353 647.708 131.751 647.053 131.193C647.819 131.623 648.503 132.185 649.073 132.853C650.664 134.681 651.601 136.986 651.738 139.405C651.828 141.083 651.498 142.757 650.777 144.275C650.023 145.891 648.811 147.431 648.44 149.309C648.069 151.187 648.953 153.164 649.925 155.064C650.455 156.049 650.887 157.084 651.214 158.154C651.536 159.297 651.536 160.506 651.214 161.649C650.85 162.75 650.431 163.833 649.958 164.892C649.529 165.898 649.164 166.93 648.866 167.982C648.324 169.964 648.056 172.01 648.069 174.065C648.035 177.564 649.164 180.974 651.279 183.762C652.694 185.639 654.577 187.111 656.739 188.031C658.366 188.665 659.305 188.763 659.295 188.829Z" fill="#455A64"/>
<path d="M658.203 133.727C657.671 133.864 657.125 133.945 656.576 133.967C655.077 134.127 653.564 134.087 652.077 133.847C650.949 133.68 649.866 133.289 648.891 132.699C647.916 132.108 647.069 131.329 646.398 130.407C645.774 129.24 645.276 128.01 644.913 126.738C644.447 125.467 643.571 124.387 642.423 123.669C640.032 122.151 637.226 121.966 634.779 121.671C632.523 121.558 630.333 120.875 628.413 119.683C627.127 118.832 626.199 117.538 625.803 116.047C625.708 115.643 625.682 115.226 625.727 114.813C625.727 114.529 625.792 114.387 625.814 114.387C625.827 114.928 625.897 115.466 626.022 115.992C626.474 117.386 627.401 118.577 628.642 119.356C630.527 120.455 632.654 121.07 634.834 121.147C637.28 121.431 640.185 121.573 642.74 123.189C643.991 123.974 644.944 125.154 645.448 126.541C645.79 127.781 646.263 128.982 646.857 130.123C648.129 131.868 650.034 133.044 652.164 133.399C653.604 133.667 655.07 133.765 656.532 133.694C657.089 133.662 657.648 133.673 658.203 133.727Z" fill="#455A64"/>
<path d="M655.495 124.837C655.083 124.975 654.651 125.038 654.217 125.023C652.182 125.037 650.222 124.253 648.757 122.839C648.089 122.169 647.519 121.408 647.064 120.579C646.082 118.919 645.132 116.877 643.09 116.025C641.122 115.365 639.026 115.182 636.974 115.49C635.243 115.733 633.486 115.733 631.755 115.49C630.55 115.323 629.416 114.824 628.479 114.049C628.237 113.837 628.024 113.595 627.845 113.328C627.714 113.139 627.66 113.04 627.681 113.033C627.681 113.033 627.987 113.382 628.621 113.874C629.554 114.538 630.639 114.958 631.776 115.097C633.477 115.289 635.194 115.259 636.887 115.009C639.029 114.66 641.224 114.847 643.275 115.555C644.33 116.029 645.233 116.785 645.885 117.739C646.461 118.591 646.989 119.473 647.468 120.382C647.899 121.176 648.431 121.91 649.052 122.566C649.6 123.121 650.23 123.589 650.919 123.953C651.935 124.483 653.051 124.792 654.195 124.859C655.036 124.848 655.484 124.783 655.495 124.837Z" fill="#455A64"/>
<path d="M662.549 186.47C662.494 186.47 662.844 185.749 663.248 184.395C663.795 182.494 664.038 180.519 663.969 178.542C663.889 175.616 663.09 172.754 661.643 170.21C660.845 168.78 659.633 167.502 658.64 165.93C658.114 165.128 657.743 164.236 657.548 163.298C657.375 162.311 657.458 161.296 657.788 160.349C658.399 158.46 659.491 156.877 659.732 155.141C659.972 153.404 659.142 151.865 658.312 150.412C657.884 149.705 657.494 148.976 657.144 148.228C656.824 147.503 656.614 146.733 656.521 145.946C656.418 144.558 656.462 143.164 656.652 141.785C657.001 139.837 656.82 137.83 656.128 135.976C655.819 135.326 655.38 134.747 654.839 134.272C654.839 134.272 654.894 134.272 654.97 134.338C655.1 134.402 655.218 134.487 655.32 134.589C655.747 134.945 656.093 135.388 656.335 135.889C657.125 137.759 657.371 139.814 657.045 141.818C656.895 143.171 656.876 144.535 656.991 145.891C657.26 147.417 657.864 148.864 658.76 150.128C659.226 150.866 659.624 151.645 659.95 152.454C660.294 153.328 660.407 154.276 660.278 155.206C660.015 157.117 658.891 158.733 658.323 160.513C658.025 161.372 657.946 162.292 658.094 163.189C658.284 164.056 658.632 164.882 659.12 165.624C660.048 167.142 661.304 168.441 662.101 169.937C663.564 172.567 664.345 175.522 664.373 178.531C664.407 180.546 664.097 182.551 663.455 184.461C663.281 184.978 663.069 185.481 662.822 185.968C662.755 186.147 662.663 186.316 662.549 186.47Z" fill="#455A64"/>
<path d="M618.072 389.942C618.072 389.942 610.712 320.229 610.286 294.469C609.86 268.708 621.872 243.287 621.872 243.287L668.915 241.332C668.915 241.332 678.219 267.464 678.383 278.46C678.711 299.798 672.716 320.862 673.403 337.788L674.976 389.986" fill="#263238"/>
<path d="M676.559 304.231C676.314 304.445 676.055 304.642 675.784 304.821L675.358 305.116L674.899 305.564C674.495 305.913 674.129 306.305 673.807 306.732C672.289 308.589 671.186 311.919 670.127 316.058C669.586 318.353 668.787 320.581 667.747 322.697C667.43 323.277 667.065 323.828 666.655 324.346C666.458 324.608 666.272 324.892 666.043 325.143L665.322 325.864C664.29 326.829 663.091 327.598 661.784 328.135C659.153 329.293 656.171 329.839 653.463 331.204C650.689 332.697 648.545 335.139 647.425 338.083C646.092 341.043 645.241 344.144 644.149 347.049C643.057 349.953 641.582 352.727 639.235 354.496C636.99 356.056 634.324 356.898 631.591 356.91C629.057 357.062 626.709 356.986 624.602 357.303C622.705 357.499 620.892 358.184 619.338 359.29C618.204 360.177 617.354 361.377 616.892 362.741C616.599 363.601 616.535 364.523 616.707 365.416C616.838 366.028 617.001 366.323 616.969 366.333C616.793 366.059 616.667 365.756 616.597 365.438C616.367 364.527 616.397 363.57 616.685 362.675C617.119 361.243 617.975 359.976 619.142 359.039C620.735 357.837 622.62 357.083 624.602 356.855C626.786 356.505 629.112 356.549 631.612 356.385C634.266 356.368 636.851 355.545 639.027 354.027C641.234 352.098 642.863 349.596 643.734 346.798C644.826 343.926 645.623 340.813 647.01 337.8C648.185 334.734 650.426 332.194 653.321 330.647C656.139 329.249 659.12 328.714 661.686 327.6C662.942 327.08 664.096 326.341 665.093 325.416L665.781 324.728C665.999 324.488 666.185 324.215 666.382 323.964C666.767 323.467 667.107 322.937 667.397 322.38C668.443 320.293 669.253 318.096 669.811 315.828C670.903 311.701 672.093 308.326 673.698 306.459C674.018 306.034 674.384 305.645 674.79 305.302C674.965 305.149 675.118 304.996 675.271 304.876L675.718 304.592C675.991 304.455 676.272 304.334 676.559 304.231Z" fill="#FAFAFA"/>
<path d="M676.843 271.974C676.893 272.28 676.915 272.591 676.909 272.902C676.905 273.803 676.795 274.701 676.581 275.577C675.641 278.772 673.793 281.624 671.263 283.789C669.593 285.324 667.763 286.675 665.803 287.819C663.696 289.063 661.37 290.254 658.978 291.608C656.466 292.955 654.127 294.601 652.011 296.511C649.841 298.664 648.054 301.172 646.726 303.926C645.387 306.717 643.858 309.413 642.15 311.995C641.282 313.199 640.278 314.298 639.158 315.271C638.054 316.211 636.84 317.014 635.544 317.663C633.198 318.816 630.753 319.755 628.238 320.469C625.901 321.19 623.717 321.834 621.817 322.653C620.093 323.339 618.452 324.219 616.925 325.274C615.777 326.071 614.744 327.023 613.857 328.102C613.114 329.039 612.494 330.066 612.011 331.16C612.089 330.857 612.191 330.562 612.317 330.276C612.675 329.451 613.133 328.673 613.682 327.96C614.553 326.835 615.583 325.842 616.74 325.012C618.273 323.919 619.925 323.003 621.664 322.282C623.768 321.425 625.915 320.678 628.096 320.043C630.575 319.312 632.986 318.37 635.304 317.226C636.533 316.585 637.687 315.808 638.743 314.911C639.821 313.952 640.788 312.875 641.626 311.701C643.311 309.131 644.824 306.453 646.158 303.685C647.528 300.87 649.375 298.313 651.618 296.129C653.771 294.19 656.155 292.525 658.716 291.171C661.118 289.828 663.444 288.659 665.552 287.425C667.506 286.32 669.336 285.01 671.012 283.516C673.521 281.416 675.384 278.648 676.385 275.534C676.665 274.367 676.819 273.173 676.843 271.974Z" fill="#FAFAFA"/>
<path d="M610.526 298.116C610.483 298.048 610.45 297.975 610.428 297.898C610.346 297.687 610.277 297.472 610.22 297.253C610.033 296.385 610.071 295.483 610.329 294.633C610.941 292.449 613.354 289.642 617.242 288.255C619.186 287.589 621.381 287.163 623.674 286.595C625.578 286.28 627.379 285.514 628.927 284.361C630.476 283.208 631.726 281.701 632.574 279.967C633.194 278.694 633.738 277.385 634.201 276.047C635.054 273.14 636.215 270.332 637.662 267.671C639.321 265.055 641.838 263.098 644.782 262.135C647.46 261.266 650.193 260.573 652.961 260.06C655.432 259.585 657.824 258.77 660.07 257.636C661.972 256.549 663.612 255.058 664.875 253.268C666.739 250.683 667.803 247.607 667.932 244.422C667.937 243.254 667.861 242.086 667.703 240.928C668.033 242.062 668.184 243.241 668.151 244.422C668.108 247.676 667.08 250.84 665.202 253.497C663.924 255.346 662.249 256.887 660.299 258.007C658.024 259.183 655.594 260.032 653.081 260.529C650.338 261.05 647.632 261.747 644.979 262.615C642.152 263.541 639.735 265.421 638.143 267.933C636.718 270.558 635.573 273.325 634.725 276.189C634.253 277.551 633.695 278.883 633.054 280.174C632.407 281.416 631.583 282.556 630.608 283.56C628.69 285.309 626.33 286.498 623.783 286.999C621.468 287.589 619.284 287.96 617.373 288.594C613.584 289.882 611.181 292.536 610.537 294.654C610.272 295.471 610.201 296.339 610.329 297.188C610.422 297.491 610.488 297.801 610.526 298.116Z" fill="#FAFAFA"/>
<path d="M672.803 357.084C672.847 357.311 672.873 357.541 672.879 357.772C672.9 358.434 672.83 359.095 672.672 359.738C671.985 362.105 670.534 364.179 668.544 365.634C667.215 366.693 665.745 367.56 664.176 368.211C662.505 368.921 660.66 369.489 658.716 370.09C656.698 370.679 654.724 371.409 652.808 372.274C650.818 373.225 649.033 374.556 647.556 376.194C645.961 377.854 644.585 379.677 643.057 381.294C641.594 382.859 639.896 384.186 638.022 385.225C634.835 386.964 631.269 387.894 627.638 387.933C625.205 387.959 622.788 387.556 620.496 386.743C619.874 386.528 619.268 386.269 618.683 385.967C618.47 385.879 618.268 385.765 618.083 385.629C618.303 385.689 618.518 385.766 618.727 385.858C619.326 386.115 619.939 386.341 620.561 386.535C622.85 387.253 625.24 387.588 627.638 387.529C631.189 387.437 634.665 386.489 637.771 384.766C639.586 383.738 641.232 382.438 642.653 380.911C644.149 379.317 645.514 377.504 647.141 375.801C648.706 374.102 650.591 372.729 652.688 371.76C654.632 370.892 656.636 370.162 658.683 369.576C660.605 368.987 662.44 368.484 664.143 367.764C665.667 367.14 667.099 366.313 668.402 365.307C670.359 363.925 671.818 361.949 672.562 359.672C672.723 358.819 672.804 357.952 672.803 357.084Z" fill="#FAFAFA"/>
<path d="M667.441 212.35L658.334 212.569C657.984 214.405 657.287 216.158 656.281 217.734C648.637 204.521 642.773 186.83 641.31 179.721C641.528 179.012 641.779 178.225 642.096 177.352C642.323 176.025 642.282 174.666 641.976 173.355C641.714 171.772 641.277 169.642 641.146 168.659C640.742 165.646 640.25 165.176 639.202 165.515C637.783 165.984 639.792 173.956 638.623 174.13C637.99 174.218 637.226 171.488 637.007 169.249C636.789 167.011 635.762 160.109 635.031 159.65C633.939 158.973 632.989 160.044 633.273 162.271C633.556 164.499 633.895 171.269 632.716 171.368C631.536 171.466 630.532 160.022 630.532 160.022C630.532 160.022 630.717 157.532 629.341 157.587C626.873 157.696 628.806 169.751 629.014 170.898C629.167 171.684 627.922 171.837 627.769 170.975C627.616 170.112 627.048 159.541 624.493 159.629C622.549 159.629 625.989 169.555 624.897 171.848C623.805 174.141 623.062 164.073 621.217 164.204C620.529 164.259 620.016 164.39 621.282 170.079C622.496 174.599 623.954 179.05 625.65 183.412C628.577 199.192 641.419 249.675 661.545 240.437C672.814 235.26 677.379 212.35 677.379 212.35H667.441Z" fill="#B78876"/>
<path d="M628.62 171.663C628.706 171.684 628.797 171.684 628.883 171.663C629.014 171.622 629.127 171.536 629.201 171.42C629.275 171.304 629.306 171.166 629.287 171.029C629.287 170.352 629.156 169.369 629.003 168.092C628.747 166.552 628.579 164.999 628.5 163.44C628.5 162.522 628.5 161.54 628.555 160.502C628.571 159.975 628.626 159.449 628.719 158.93C628.806 158.438 629.134 157.838 629.516 157.936H629.581C629.964 157.936 630.269 158.22 630.39 158.679C630.525 159.154 630.576 159.649 630.542 160.142C630.767 163.2 631.158 166.244 631.711 169.26C631.798 169.664 631.886 170.079 632.017 170.494C632.075 170.706 632.148 170.914 632.235 171.117C632.291 171.229 632.353 171.338 632.421 171.444C632.47 171.524 632.537 171.591 632.616 171.64C632.696 171.69 632.786 171.72 632.879 171.728C633.038 171.711 633.189 171.646 633.311 171.543C633.434 171.44 633.523 171.303 633.567 171.149C633.661 170.936 633.731 170.712 633.775 170.483C633.86 170.043 633.918 169.598 633.949 169.151C634.049 167.331 634.023 165.507 633.873 163.691C633.735 162.784 633.698 161.865 633.764 160.95C633.804 160.555 633.995 160.191 634.299 159.934C634.369 159.893 634.447 159.866 634.528 159.857C634.609 159.848 634.691 159.855 634.768 159.88C634.861 159.902 634.95 159.939 635.031 159.989C635.086 160.031 635.128 160.088 635.151 160.153C635.495 161.038 635.747 161.957 635.904 162.894C636.101 163.855 636.265 164.848 636.417 165.842C636.57 166.836 636.712 167.841 636.832 168.856C636.926 169.904 637.094 170.944 637.335 171.968C637.464 172.492 637.628 173.006 637.826 173.508C637.938 173.789 638.092 174.05 638.285 174.283C638.358 174.38 638.458 174.454 638.572 174.497C638.686 174.539 638.81 174.548 638.929 174.524C639.04 174.487 639.139 174.423 639.217 174.337C639.296 174.251 639.351 174.146 639.377 174.032C639.506 173.474 639.546 172.899 639.497 172.329C639.497 171.783 639.431 171.237 639.377 170.712C639.3 169.795 639.213 168.889 639.18 167.993C639.153 167.553 639.153 167.112 639.18 166.672C639.202 166.477 639.25 166.286 639.322 166.104C639.345 166.044 639.378 165.989 639.42 165.94H639.562C640.283 165.646 640.523 166.65 640.72 167.458C640.916 168.266 640.993 169.184 641.168 170.046C641.452 171.761 641.823 173.475 642.008 175.113C642.135 175.898 642.105 176.699 641.921 177.472C641.659 178.258 641.397 179.034 641.146 179.809V179.885V179.951C642.425 185.316 644.055 190.59 646.027 195.741C647.752 200.404 649.489 204.477 651.007 207.753C652.524 211.029 653.9 213.595 654.839 215.321L655.931 217.275C656.05 217.508 656.192 217.728 656.357 217.931C656.265 217.688 656.152 217.454 656.019 217.232L654.927 215.233C654.031 213.475 652.743 210.865 651.258 207.589C649.773 204.313 648.091 200.24 646.409 195.577C644.485 190.434 642.887 185.175 641.626 179.831V179.984C641.877 179.219 642.129 178.444 642.391 177.669C642.618 176.818 642.663 175.928 642.522 175.059C642.325 173.344 641.965 171.684 641.681 169.959C641.517 169.107 641.408 168.234 641.233 167.338C641.222 166.878 641.145 166.422 641.004 165.984C640.879 165.718 640.667 165.502 640.403 165.373C640.123 165.281 639.821 165.281 639.54 165.373H639.366C639.273 165.402 639.188 165.451 639.115 165.515C638.993 165.617 638.9 165.749 638.842 165.897C638.742 166.133 638.679 166.384 638.656 166.639C638.623 167.112 638.623 167.586 638.656 168.059C638.656 168.976 638.787 169.893 638.863 170.811C638.863 171.346 638.951 171.903 638.973 172.394C639.016 172.887 638.99 173.383 638.896 173.868C638.896 173.978 638.809 173.956 638.896 174.01L638.831 173.945C638.692 173.766 638.581 173.567 638.503 173.355C638.312 172.883 638.155 172.397 638.034 171.903C637.794 170.908 637.63 169.897 637.542 168.878C637.426 167.851 637.284 166.836 637.116 165.831C636.963 164.827 636.789 163.844 636.592 162.861C636.428 161.861 636.149 160.882 635.762 159.945C635.687 159.789 635.57 159.656 635.424 159.563C635.296 159.489 635.161 159.431 635.02 159.388C634.864 159.348 634.702 159.338 634.542 159.361C634.383 159.383 634.23 159.437 634.091 159.519C633.866 159.688 633.678 159.901 633.539 160.145C633.4 160.389 633.313 160.66 633.283 160.939C633.213 161.435 633.213 161.939 633.283 162.435C633.283 162.905 633.393 163.363 633.425 163.822C633.577 165.609 633.61 167.404 633.524 169.195C633.498 169.62 633.443 170.043 633.36 170.461C633.328 170.657 633.273 170.847 633.196 171.029C633.168 171.101 633.127 171.168 633.076 171.226C633.076 171.324 632.999 171.226 633.01 171.357C633.01 171.248 633.01 171.357 633.01 171.215C632.962 171.141 632.918 171.064 632.879 170.985C632.803 170.811 632.737 170.614 632.672 170.429C632.552 170.035 632.464 169.631 632.377 169.238C631.807 166.248 631.395 163.23 631.143 160.197C631.176 159.647 631.113 159.097 630.957 158.569C630.885 158.294 630.738 158.045 630.531 157.849C630.425 157.745 630.298 157.665 630.159 157.613C630.02 157.56 629.872 157.536 629.723 157.543H629.789C629.604 157.516 629.415 157.544 629.246 157.624C629.077 157.703 628.936 157.831 628.839 157.991C628.677 158.251 628.565 158.54 628.511 158.842C628.42 159.384 628.368 159.931 628.358 160.48C628.358 161.572 628.358 162.522 628.358 163.451C628.462 165.019 628.663 166.58 628.959 168.124C629.145 169.391 629.287 170.374 629.352 171.04C629.373 171.157 629.353 171.277 629.295 171.381C629.237 171.484 629.146 171.564 629.035 171.608C628.708 171.641 628.61 171.652 628.62 171.663Z" fill="#A36957"/>
<path d="M557.499 227.387C555.367 227.342 553.24 227.588 551.176 228.119C545.53 229.604 535.801 235.501 535.396 242.784H542.473C542.473 242.784 538.509 251.215 539.666 250.428C542.691 248.397 548.697 242.293 548.697 242.293L557.499 227.387Z" fill="#B78876"/>
<path d="M653.955 100.464C653.791 100.464 653.158 94.6328 652.524 87.3601C651.891 80.0874 651.498 74.2561 651.651 74.2561C651.804 74.2561 652.448 80.0874 653.081 87.3601C653.715 94.6328 654.108 100.464 653.955 100.464Z" fill="#263238"/>
<path d="M684.979 74.7037C685.099 74.7911 680.327 81.7253 674.31 90.1883C668.293 98.6513 663.303 105.476 663.172 105.345C663.041 105.214 667.824 98.3237 673.84 89.8607C679.857 81.3977 684.848 74.6164 684.979 74.7037Z" fill="#263238"/>
<path d="M697.864 106.132C697.864 106.284 692.317 107.562 685.415 108.982C678.514 110.401 672.879 111.428 672.846 111.275C672.814 111.122 678.383 109.844 685.295 108.425C692.208 107.005 697.788 105.979 697.864 106.132Z" fill="#263238"/>
<path d="M326.508 256.118L287.851 454.643L282.828 480.633L540.54 479.388C552.115 479.333 562.38 469.058 566.082 453.792L611.793 266.372C614.621 254.785 608.419 242.73 599.639 242.741L338.739 243.014C333.06 243.003 327.971 248.375 326.508 256.118Z" fill="white"/>
<g opacity="0.5">
<path opacity="0.5" d="M326.508 256.118L287.851 454.643L282.828 480.633L540.54 479.388C552.115 479.333 562.38 469.058 566.082 453.792L611.793 266.372C614.621 254.785 608.419 242.73 599.639 242.741L338.739 243.014C333.06 243.003 327.971 248.375 326.508 256.118Z" fill="black"/>
</g>
<path d="M515.85 441.168L488.55 221.228C487.458 212.219 480.262 205.493 471.777 205.525L411.935 205.711C409.711 205.736 407.516 206.214 405.483 207.115C403.449 208.016 401.621 209.322 400.109 210.952L371.717 241.168L205.296 242.064C195.129 242.118 187.311 251.75 188.654 262.56L213.999 465.836C215.091 474.834 222.288 481.55 230.751 481.539L520.84 480.96C553.142 481.627 556.232 472.093 556.232 472.093C519.148 480.294 515.85 441.223 515.85 441.168Z" fill="white"/>
<path d="M390.761 397.182L380.977 407.687L305.629 339.896L315.413 329.391L390.761 397.182Z" fill="#E0102C"/>
<path d="M376.882 327.065L387.693 336.795L319.519 410.013L308.697 400.284L376.882 327.065Z" fill="#E0102C"/>
<path d="M557.27 113.328C556.916 113.179 556.613 112.932 556.394 112.617C556.176 112.302 556.051 111.931 556.036 111.548L555.599 101.414C555.584 101.099 555.642 100.785 555.769 100.496C555.896 100.208 556.088 99.9528 556.331 99.7515C556.573 99.5502 556.86 99.4081 557.167 99.3365C557.474 99.2649 557.793 99.2658 558.1 99.3391C558.945 99.5215 559.819 99.5294 560.668 99.3623C561.517 99.1952 562.322 98.8566 563.036 98.3672C563.692 97.9515 564.257 97.4057 564.695 96.7633C565.132 96.121 565.433 95.3959 565.58 94.6326C565.679 93.8597 565.622 93.0748 565.412 92.3245C565.201 91.5742 564.843 90.8737 564.357 90.2646C563.845 89.5715 563.202 88.9862 562.463 88.5421C561.725 88.098 560.907 87.8039 560.054 87.6765C558.336 87.581 556.636 88.0681 555.229 89.059C553.822 90.0498 552.79 91.4865 552.301 93.1365C552.138 93.6365 551.788 94.0542 551.325 94.3027C550.862 94.5513 550.32 94.6114 549.813 94.4707C549.307 94.3299 548.874 93.9991 548.605 93.5472C548.336 93.0952 548.252 92.557 548.37 92.0445C549.113 89.4493 550.727 87.1891 552.94 85.6438C555.154 84.0986 557.832 83.3626 560.524 83.5597C561.925 83.7464 563.275 84.2128 564.492 84.9313C565.71 85.6498 566.77 86.6056 567.611 87.742C568.429 88.7953 569.027 90.002 569.371 91.2906C569.714 92.5792 569.795 93.9235 569.609 95.2441C569.361 96.5627 568.846 97.8166 568.094 98.9284C567.343 100.04 566.372 100.986 565.241 101.709C563.603 102.812 561.69 103.436 559.716 103.511L560.054 111.329C560.067 111.673 559.993 112.014 559.839 112.321C559.684 112.628 559.455 112.892 559.172 113.086C558.889 113.281 558.561 113.402 558.219 113.436C557.877 113.471 557.532 113.418 557.215 113.284L557.27 113.328Z" fill="#E0102C"/>
<path d="M560.262 117.477C560.285 117.807 560.209 118.136 560.045 118.423C559.881 118.71 559.636 118.942 559.34 119.089C559.044 119.237 558.711 119.293 558.383 119.251C558.055 119.209 557.747 119.071 557.498 118.853C557.248 118.636 557.069 118.35 556.983 118.031C556.896 117.712 556.906 117.374 557.011 117.061C557.117 116.748 557.313 116.473 557.575 116.271C557.836 116.069 558.152 115.949 558.482 115.927C558.701 115.91 558.921 115.938 559.129 116.007C559.337 116.076 559.53 116.186 559.696 116.33C559.861 116.475 559.996 116.65 560.094 116.847C560.191 117.044 560.248 117.258 560.262 117.477Z" fill="#E0102C"/>
<path d="M522.184 99.0335C522.231 98.8174 522.263 98.5985 522.282 98.3782C522.282 97.8978 522.402 97.2863 522.489 96.4236C522.597 95.3644 522.776 94.3137 523.024 93.2786C523.166 92.6671 523.243 91.99 523.461 91.3021C523.68 90.6141 523.898 89.8716 524.138 89.1181C525.403 85.3848 527.245 81.8732 529.598 78.7113C532.682 74.617 536.593 71.2166 541.075 68.7304C543.627 67.2919 546.344 66.1698 549.167 65.3889C552.214 64.5813 555.352 64.1703 558.504 64.1659C560.164 64.1392 561.824 64.2268 563.472 64.428C564.313 64.5153 565.143 64.7337 565.984 64.8757C566.834 65.0213 567.673 65.2257 568.495 65.4872C571.937 66.4491 575.211 67.9332 578.203 69.888C584.856 74.2027 589.923 80.5657 592.639 88.0152C594.102 92.0056 594.842 96.2249 594.823 100.475C594.869 104.853 594.094 109.201 592.541 113.295L592.05 114.54L591.984 114.704L592.05 114.867C594.791 121.168 597.51 127.36 600.076 133.355L600.535 132.831L584.155 126.552L583.958 126.475L583.794 126.628C579.461 130.827 574.157 133.888 568.353 135.539C563.395 136.904 558.203 137.202 553.121 136.413C548.038 135.625 543.181 133.767 538.869 130.964C535.338 128.648 532.225 125.749 529.664 122.391C525.952 117.49 523.547 111.726 522.675 105.64C522.544 104.548 522.435 103.631 522.337 102.801C522.238 101.971 522.337 101.294 522.282 100.715C522.227 100.136 522.282 99.7542 522.282 99.4375C522.336 99.4292 522.386 99.4007 522.42 99.3576C522.454 99.3145 522.471 99.2601 522.467 99.2051C522.463 99.1502 522.438 99.0989 522.398 99.0614C522.357 99.024 522.304 99.0032 522.249 99.0032C522.194 99.0032 522.141 99.024 522.101 99.0614C522.06 99.0989 522.036 99.1502 522.031 99.2051C522.027 99.2601 522.044 99.3145 522.078 99.3576C522.113 99.4007 522.162 99.4292 522.216 99.4375C522.216 99.7542 522.216 100.18 522.216 100.715C522.216 101.25 522.216 101.993 522.216 102.823C522.216 103.653 522.402 104.603 522.511 105.684C522.87 108.31 523.496 110.893 524.379 113.393C525.629 116.694 527.31 119.816 529.38 122.675C531.952 126.093 535.087 129.047 538.651 131.411C543.016 134.285 547.942 136.198 553.102 137.022C558.263 137.847 563.54 137.565 568.583 136.194C574.456 134.526 579.827 131.436 584.22 127.196L583.86 127.273L600.24 133.584L601.059 133.901L600.698 133.06C598.099 127.065 595.413 120.884 592.683 114.573V114.889L593.185 113.612C594.779 109.429 595.572 104.984 595.522 100.508C595.557 96.1674 594.817 91.8557 593.338 87.7749C590.563 80.177 585.383 73.6931 578.585 69.3092C575.518 67.3089 572.158 65.7984 568.626 64.832C567.791 64.5676 566.937 64.3668 566.071 64.2314C565.219 64.0785 564.378 63.8601 563.527 63.7837C561.857 63.5764 560.175 63.4815 558.493 63.4998C555.29 63.5133 552.104 63.9465 549.014 64.7883C546.154 65.6006 543.4 66.7517 540.813 68.2172C536.286 70.7643 532.351 74.2446 529.271 78.4274C526.924 81.6416 525.107 85.2101 523.887 88.998C523.658 89.7842 523.439 90.5377 523.243 91.182C523.069 91.8403 522.931 92.5073 522.828 93.1803C522.594 94.2225 522.44 95.2813 522.369 96.3471C522.304 97.188 522.26 97.8322 522.227 98.3127C522.181 98.55 522.167 98.7923 522.184 99.0335Z" fill="#263238"/>
</svg>
