<svg width="32" height="32" viewBox="0 0 32 32" fill="none" xmlns="http://www.w3.org/2000/svg">
<path d="M5.34925 27.8906H26.653C26.999 27.8906 27.3391 27.8007 27.64 27.6299C27.9409 27.4591 28.1923 27.2131 28.3698 26.9161C28.5472 26.619 28.6445 26.281 28.6522 25.9351C28.6598 25.5892 28.5777 25.2472 28.4136 24.9425L17.7624 5.16125C17.0068 3.75875 14.9955 3.75875 14.2399 5.16125L3.58863 24.9425C3.4246 25.2472 3.34241 25.5892 3.3501 25.9351C3.35779 26.281 3.4551 26.619 3.63251 26.9161C3.80992 27.2131 4.06136 27.4591 4.36226 27.6299C4.66317 27.8007 5.00324 27.8906 5.34925 27.8906Z" fill="#FF4242" stroke="#FF4242" stroke-width="2" stroke-linecap="round" stroke-linejoin="round"/>
<path d="M15.6428 12.2117L16.0016 19.8367L16.3597 12.2149C16.3619 12.1661 16.3542 12.1175 16.3369 12.0718C16.3197 12.0262 16.2933 11.9846 16.2595 11.9495C16.2256 11.9144 16.1849 11.8866 16.1399 11.8677C16.095 11.8489 16.0466 11.8394 15.9978 11.8399V11.8399C15.9499 11.8403 15.9026 11.8504 15.8586 11.8695C15.8146 11.8885 15.7749 11.9162 15.7418 11.9509C15.7087 11.9855 15.6829 12.0265 15.6659 12.0713C15.6489 12.1161 15.6411 12.1638 15.6428 12.2117V12.2117Z" stroke="white" stroke-width="2" stroke-linecap="round" stroke-linejoin="round"/>
<path d="M16 24.8281C15.7528 24.8281 15.5111 24.7548 15.3055 24.6175C15.1 24.4801 14.9398 24.2849 14.8452 24.0565C14.7505 23.8281 14.7258 23.5767 14.774 23.3343C14.8223 23.0918 14.9413 22.8691 15.1161 22.6942C15.2909 22.5194 15.5137 22.4004 15.7561 22.3521C15.9986 22.3039 16.2499 22.3287 16.4784 22.4233C16.7068 22.5179 16.902 22.6781 17.0393 22.8837C17.1767 23.0892 17.25 23.3309 17.25 23.5781C17.25 23.9096 17.1183 24.2276 16.8839 24.462C16.6495 24.6964 16.3315 24.8281 16 24.8281Z" fill="white"/>
</svg>
