<svg width="40" height="40" viewBox="0 0 40 40" fill="none" xmlns="http://www.w3.org/2000/svg">
<path d="M24.0308 9.14991C23.2374 9.00335 22.5087 9.50967 22.3576 10.2841C22.2066 11.0586 22.7145 11.8148 23.4863 11.9663C25.8101 12.4193 27.6044 14.2181 28.0592 16.5498V16.5515C28.1887 17.2227 28.7796 17.7107 29.4601 17.7107C29.5514 17.7107 29.6427 17.7024 29.7356 17.6857C30.5074 17.5308 31.0154 16.7763 30.8643 16.0002C30.1854 12.5176 27.5048 9.82778 24.0308 9.14991Z" fill="#E0102C"/>
<path d="M23.9261 3.34656C23.5543 3.29326 23.1808 3.40319 22.8837 3.63969C22.5783 3.87953 22.3874 4.22596 22.3459 4.61402C22.258 5.39848 22.824 6.108 23.6074 6.19627C29.0102 6.79919 33.2096 11.008 33.8171 16.4276C33.8984 17.1537 34.5075 17.7017 35.2346 17.7017C35.2893 17.7017 35.3424 17.6984 35.3972 17.6917C35.7773 17.6501 36.1159 17.4619 36.3549 17.1621C36.5923 16.8623 36.7002 16.4892 36.657 16.1078C35.9001 9.34577 30.6667 4.09771 23.9261 3.34656Z" fill="#E0102C"/>
<path fill-rule="evenodd" clip-rule="evenodd" d="M18.3859 21.6206C25.0344 28.2673 26.5426 20.5779 30.7758 24.808C34.8568 28.8879 37.2024 29.7053 32.0317 34.8745C31.3841 35.395 27.269 41.6571 12.8073 27.1994C-1.65612 12.74 4.60232 8.62074 5.12296 7.97325C10.3061 2.78974 11.1094 5.14897 15.1905 9.22888C19.4236 13.4608 11.7374 14.974 18.3859 21.6206Z" fill="#E0102C"/>
</svg>
