<svg width="17" height="16" viewBox="0 0 17 16" fill="none" xmlns="http://www.w3.org/2000/svg">
<path d="M10.112 3.66C9.79465 3.60138 9.50318 3.8039 9.44277 4.11369C9.38235 4.42348 9.58551 4.72594 9.89424 4.78656C10.8238 4.96777 11.5415 5.68728 11.7234 6.61997V6.62064C11.7752 6.88912 12.0115 7.08432 12.2837 7.08432C12.3203 7.08432 12.3568 7.08099 12.394 7.07432C12.7027 7.01237 12.9058 6.71057 12.8454 6.40012C12.5739 5.00708 11.5016 3.93115 10.112 3.66Z" fill="#FEFEFE"/>
<path d="M10.0702 1.33866C9.92152 1.31734 9.77213 1.36131 9.65329 1.45591C9.53113 1.55185 9.45477 1.69042 9.43818 1.84565C9.40299 2.15943 9.62939 2.44324 9.94277 2.47854C12.1039 2.71971 13.7836 4.40322 14.0266 6.57107C14.0592 6.86153 14.3028 7.08072 14.5936 7.08072C14.6155 7.08072 14.6368 7.07938 14.6587 7.07672C14.8107 7.06006 14.9462 6.98478 15.0418 6.86487C15.1367 6.74495 15.1799 6.59572 15.1626 6.44316C14.8599 3.73835 12.7665 1.63912 10.0702 1.33866Z" fill="#FEFEFE"/>
<path fill-rule="evenodd" clip-rule="evenodd" d="M7.85466 8.64826C10.514 11.3069 11.1173 8.23115 12.8106 9.92321C14.443 11.5552 15.3812 11.8821 13.313 13.9498C13.0539 14.158 11.4079 16.6628 5.62323 10.8798C-0.162156 5.096 2.34122 3.4483 2.54948 3.1893C4.62274 1.1159 4.94407 2.05959 6.57649 3.69155C8.26974 5.38433 5.19527 5.98961 7.85466 8.64826Z" fill="#FEFEFE"/>
</svg>
