<svg width="34" height="35" viewBox="0 0 34 35" fill="none" xmlns="http://www.w3.org/2000/svg">
<path d="M6.34925 29.3906H27.653C27.999 29.3906 28.3391 29.3007 28.64 29.1299C28.9409 28.9591 29.1923 28.7131 29.3698 28.4161C29.5472 28.119 29.6445 27.781 29.6522 27.4351C29.6598 27.0892 29.5777 26.7472 29.4136 26.4425L18.7624 6.66125C18.0068 5.25875 15.9955 5.25875 15.2399 6.66125L4.58863 26.4425C4.4246 26.7472 4.34241 27.0892 4.3501 27.4351C4.35779 27.781 4.4551 28.119 4.63251 28.4161C4.80992 28.7131 5.06136 28.9591 5.36226 29.1299C5.66317 29.3007 6.00324 29.3906 6.34925 29.3906Z" fill="#FF4242" stroke="#FF4242" stroke-width="2" stroke-linecap="round" stroke-linejoin="round"/>
<path d="M16.6428 13.7117L17.0016 21.3367L17.3597 13.7149C17.3619 13.6661 17.3542 13.6175 17.3369 13.5718C17.3197 13.5262 17.2933 13.4846 17.2595 13.4495C17.2256 13.4144 17.1849 13.3866 17.1399 13.3677C17.095 13.3489 17.0466 13.3394 16.9978 13.3399V13.3399C16.9499 13.3403 16.9026 13.3504 16.8586 13.3695C16.8146 13.3885 16.7749 13.4162 16.7418 13.4509C16.7087 13.4855 16.6829 13.5265 16.6659 13.5713C16.6489 13.6161 16.6411 13.6638 16.6428 13.7117V13.7117Z" stroke="white" stroke-width="2" stroke-linecap="round" stroke-linejoin="round"/>
<path d="M17 26.3281C16.7528 26.3281 16.5111 26.2548 16.3055 26.1175C16.1 25.9801 15.9398 25.7849 15.8452 25.5565C15.7505 25.3281 15.7258 25.0767 15.774 24.8343C15.8223 24.5918 15.9413 24.3691 16.1161 24.1942C16.2909 24.0194 16.5137 23.9004 16.7561 23.8521C16.9986 23.8039 17.2499 23.8287 17.4784 23.9233C17.7068 24.0179 17.902 24.1781 18.0393 24.3837C18.1767 24.5892 18.25 24.8309 18.25 25.0781C18.25 25.4096 18.1183 25.7276 17.8839 25.962C17.6495 26.1964 17.3315 26.3281 17 26.3281Z" fill="white"/>
</svg>
