<svg width="136" height="72" viewBox="0 0 136 72" fill="none" xmlns="http://www.w3.org/2000/svg">
<path d="M39.6798 46.3284C37.0036 46.3284 34.8272 48.5268 34.8272 51.2284C34.8272 53.93 37.0044 56.1284 39.6798 56.1284C42.3553 56.1284 44.5325 53.93 44.5325 51.2284C44.5317 48.5268 42.3545 46.3284 39.6798 46.3284ZM39.6798 54.6599C37.8069 54.6599 36.283 53.1211 36.283 51.23C36.283 49.3388 37.807 47.8 39.6798 47.8C41.5527 47.8 43.0766 49.3388 43.0766 51.23C43.0766 53.1212 41.5527 54.6599 39.6798 54.6599ZM97.9141 46.3284C95.2379 46.3284 93.0615 48.5268 93.0615 51.2284C93.0615 53.93 95.2386 56.1284 97.9141 56.1284C100.59 56.1284 102.767 53.93 102.767 51.2284C102.767 48.5268 100.591 46.3284 97.9141 46.3284ZM97.9141 54.6599C96.0412 54.6599 94.5173 53.1211 94.5173 51.23C94.5173 49.3388 96.0412 47.8 97.9141 47.8C99.7871 47.8 101.311 49.3388 101.311 51.23C101.311 53.1212 99.7877 54.6599 97.9141 54.6599ZM108.096 36.7462C107.999 34.2243 107.21 20.4751 101.567 18.9211C96.1123 17.419 72.0874 15.9367 65.1337 17.9449C60.418 19.3048 53.2942 23.6842 48.0925 26.8819C45.8502 28.2602 43.9143 29.4504 43.202 29.7379C42.4632 30.036 41.4548 30.2485 40.2882 30.4954C37.9005 30.9992 34.6314 31.6887 30.9652 33.7076C27.4283 35.6561 25.8445 40.8481 25.2155 43.7714C24.5016 47.0922 24.2267 51.3333 25.3154 52.7971C26.75 54.728 29.5087 54.764 30.6124 54.6944C32.0024 58.3913 35.5378 61.03 39.6803 61.03C43.8357 61.03 47.3796 58.3744 48.7597 54.6592H88.8326C90.2142 58.3742 93.7579 61.03 97.9119 61.03C102.051 61.03 105.585 58.3942 106.977 54.7012C107.11 54.7112 107.247 54.7181 107.391 54.7181C108.756 54.7181 110.539 54.2502 110.987 52.4476C112.671 45.6525 108.856 38.1442 108.096 36.7462ZM102.802 29.6546C103.628 29.6722 104.731 29.7952 105.461 30.1836C105.852 32.454 106.077 34.7808 106.152 36.7278C105.672 36.3318 105.073 35.9672 104.346 35.7096C104.023 32.8262 103.083 30.3448 102.802 29.6546ZM105.358 29.6034C104.321 29.1845 102.98 29.1539 102.361 29.1661C97.8992 27.1234 93.2872 24.1698 93.5378 22.9039C93.8134 21.5095 98.1058 20.8712 101.157 20.8491C103.212 21.5279 104.576 25.3938 105.358 29.6034ZM31.8941 35.4292C34.983 33.7283 37.7143 33.0525 39.981 32.5648C40.1892 32.8201 40.3406 33.119 40.2164 33.369C39.9734 33.8208 37.0694 36.0759 33.6641 37.5489C31.6344 38.4264 29.769 39.1328 28.6085 39.554C29.5246 37.5626 30.6602 36.1089 31.8941 35.4292ZM39.6804 59.0692C35.3985 59.0692 31.9162 55.5527 31.9162 51.2293C31.9162 46.9058 35.3987 43.3893 39.6804 43.3893C43.9621 43.3893 47.4446 46.9058 47.4446 51.2293C47.4446 55.5522 43.9606 59.0692 39.6804 59.0692ZM49.2646 52.6983C49.3365 52.2175 49.3865 51.7298 49.3865 51.2291C49.3865 45.8254 45.0319 41.4283 39.6804 41.4283C34.3289 41.4283 29.9743 45.8254 29.9743 51.2291C29.9743 51.7489 30.0265 52.255 30.1038 52.7526C29.187 52.7649 27.613 52.6242 26.8682 51.622C26.501 51.129 26.2626 48.14 27.1127 44.1887C27.3784 42.9549 27.7138 41.812 28.1037 40.7762C29.0174 40.4559 31.3945 39.599 34.0481 38.4508C37.3776 37.0098 40.6882 34.6118 41.0849 33.8098C41.3385 33.2961 41.2446 32.7886 41.0054 32.3482C42.1236 32.1113 43.1055 31.8911 43.9231 31.5601C44.7862 31.2115 46.5963 30.0993 49.1022 28.5582C53.9207 25.5959 61.2043 21.1194 65.6672 19.8313C71.1861 18.2398 88.8423 19.0157 97.3677 20.1524C95.1783 20.4826 92.8891 21.1912 92.587 22.7132C92.0691 25.3262 99.8924 29.1086 101.908 30.0358C102.376 31.216 104.962 38.2092 102.271 42.4853C100.959 41.8172 99.4821 41.4312 97.915 41.4312C92.5635 41.4312 88.2089 45.8282 88.2089 51.232C88.2089 51.7327 88.2581 52.2219 88.3308 52.7012L49.2657 52.7004L49.2646 52.6983ZM97.9133 59.0692C93.6314 59.0692 90.1492 55.5527 90.1492 51.2293C90.1492 46.9058 93.6316 43.3893 97.9133 43.3893C102.195 43.3893 105.678 46.9058 105.678 51.2293C105.678 55.5522 102.195 59.0692 97.9133 59.0692ZM109.104 51.9707C108.944 52.6152 108.108 52.7466 107.49 52.752C107.567 52.2543 107.619 51.7483 107.619 51.2285C107.619 47.758 105.818 44.7101 103.116 42.9688C104.357 40.9713 104.588 38.5175 104.4 36.2509C105.223 36.5842 105.855 37.075 106.322 37.5574C106.672 38.1903 110.677 45.6198 109.104 51.9707ZM88.9309 30.1566C88.9309 30.1291 88.9332 30.1031 88.9309 30.0756L87.9604 21.2548C87.921 20.9009 87.6371 20.6257 87.2851 20.6027C86.6863 20.5622 72.5453 19.6319 66.6779 21.1134C60.7827 22.6017 51.7594 29.2813 51.3788 29.5651C51.1888 29.7065 51.0828 29.9282 51.0828 30.1567C51.0828 31.0228 51.1449 51.2272 56.4215 51.2272H81.6568C86.8274 51.2272 88.9359 45.1217 88.9359 30.1567L88.9309 30.1566ZM87.3941 29.4227H85.2948V21.965C85.8225 21.991 86.2608 22.0154 86.5795 22.0338L87.3941 29.4227ZM67.0311 22.5405C71.1268 21.5062 79.8094 21.721 84.325 21.9206V29.4243L59.7061 29.4235L58.4789 26.5883C61.2739 24.8913 64.5027 23.1781 67.0305 22.5405L67.0311 22.5405ZM57.6422 27.1026L58.6476 29.4225H54.113C55.0494 28.7758 56.2757 27.9548 57.6422 27.1026ZM81.6565 50.7386H56.4213C52.5913 50.7386 51.6397 36.9903 51.5731 30.8501C51.6488 30.8761 51.7283 30.8929 51.8116 30.8929H88.208C88.2905 30.8929 88.3707 30.8754 88.4465 30.8478C88.3632 48.2992 85.1398 50.7383 81.6565 50.7383V50.7386Z" fill="black"/>
</svg>
