<svg width="136" height="72" viewBox="0 0 136 72" fill="none" xmlns="http://www.w3.org/2000/svg">
<path fill-rule="evenodd" clip-rule="evenodd" d="M122.634 42.1259L122.056 41.8888L121.377 30.7205C121.341 30.1262 120.849 29.6638 120.257 29.6638H88.3449L86.773 20.465C86.683 19.9461 86.2467 19.5583 85.722 19.5308C83.2416 19.4044 61.3572 18.3265 57.3813 19.5818C49.7208 21.999 42.419 27.8957 40.8777 29.188C38.4442 29.3756 25.1832 30.437 20.4648 31.654C16.1344 32.7703 14.6363 36.7341 14.3856 39.0407C13.8985 39.5494 13.0526 40.57 12.7887 41.7531C12.4441 43.2918 12.9156 46.6881 13.2915 47.5344C13.4857 47.9749 14.016 48.7003 20.5189 50.8341C21.3499 55.4777 25.3897 59.0199 30.258 59.0199C34.828 59.0199 38.6744 55.9007 39.8179 51.6764H87.8998C89.0425 55.9016 92.888 59.0199 97.4596 59.0199C102.326 59.0199 106.376 55.4847 107.208 50.8419C109.346 50.7493 117.654 50.3324 119.887 49.4217C122.741 48.2591 123.274 43.7873 123.326 43.2825C123.372 42.7871 123.091 42.3176 122.632 42.1261L122.634 42.1259ZM119.745 40.8934C119.437 40.8235 119.203 40.7458 119.136 40.6798C118.856 40.3061 117.761 37.3032 116.8 34.4393L119.293 33.4328L119.745 40.8934ZM85.5077 40.9703C85.207 41.9807 83.5607 46.3441 83.2028 47.2909H66.2715L66.8213 43.5814C66.8245 43.5602 66.8245 43.5398 66.8237 43.5194C66.819 43.455 66.3679 37.1886 66.4125 35.9082C66.4454 34.981 66.5268 33.4548 66.5699 32.6563C69.16 32.5464 71.971 32.4067 75.0144 32.2355L75.3542 32.2166L75.3544 32.2166C75.8618 32.1883 76.177 32.1707 76.2542 32.1688C76.8134 32.1688 79.1623 31.2628 83.2388 29.4767C83.3148 29.4429 83.3814 29.3919 83.4432 29.3393C84.0228 30.111 85.1185 31.3766 86.3168 31.7667C86.428 36.1215 85.7466 40.1716 85.5077 40.9701L85.5077 40.9703ZM76.2149 30.4833C76.063 30.4888 75.6134 30.5123 74.9234 30.5516C72.0545 30.7125 69.459 30.8405 67.1063 30.9433V23.7748C72.5904 23.7835 78.8919 24.0221 80.8697 24.1022L81.9129 28.2168C79.387 29.3112 76.7257 30.393 76.2151 30.4833L76.2149 30.4833ZM20.1531 34.1387C20.5502 34.1614 21.3177 34.3106 22.0947 34.5053C21.3624 35.456 20.4546 36.5826 20.1468 36.8181C19.8202 37.0694 18.4825 37.7375 17.4228 38.2422L17.1534 37.2868C17.628 36.1343 18.5138 34.8445 20.1531 34.1387V34.1387ZM15.8642 46.7273C15.619 46.615 15.4209 46.5177 15.2862 46.4368C15.2055 46.1275 15.1108 45.5748 15.0371 44.9617L15.5658 43.7598L16.7367 45.8465C16.4344 46.1551 16.1258 46.4683 15.8642 46.7274L15.8642 46.7273ZM30.2563 56.77C26.0277 56.77 22.588 53.3228 22.588 49.0834C22.588 44.8439 26.0286 41.3968 30.2563 41.3968C34.4848 41.3968 37.9246 44.8439 37.9246 49.0834C37.9246 53.3228 34.484 56.77 30.2563 56.77ZM97.4559 56.77C93.2274 56.77 89.7876 53.3228 89.7876 49.0834C89.7876 44.8439 93.2282 41.3968 97.4559 41.3968C101.684 41.3968 105.124 44.8439 105.124 49.0834C105.124 53.3228 101.684 56.77 97.4559 56.77ZM107.343 48.5856C107.081 43.339 102.753 39.1458 97.4535 39.1458C91.9875 39.1458 87.539 43.6035 87.539 49.084C87.539 49.1495 87.5436 49.2134 87.5483 49.277V49.2771C87.552 49.327 87.5556 49.3767 87.557 49.4271H40.1527C40.1546 49.382 40.1576 49.3376 40.1606 49.2933L40.1606 49.2932C40.1653 49.2232 40.17 49.1536 40.17 49.0824C40.17 43.6025 35.7229 39.1443 30.2555 39.1443C25.0096 39.1443 20.7136 43.251 20.3746 48.427C19.1912 48.029 17.9646 47.5839 16.988 47.1984C17.2284 46.9527 17.5002 46.674 17.8346 46.327C18.0061 46.1488 18.0414 45.8771 17.92 45.6597L15.9925 42.2258C15.8883 42.0397 15.7027 41.9298 15.4764 41.9384C15.2641 41.9494 15.0754 42.0789 14.99 42.2752L14.9618 42.338C14.9641 42.3251 14.9662 42.3118 14.9683 42.2986C14.9713 42.2798 14.9743 42.2612 14.9775 42.2446C15.1467 41.4862 15.9322 40.6478 16.2173 40.3895C16.4429 40.1893 16.5791 39.8996 16.5924 39.5981C16.5932 39.5754 16.5995 39.4898 16.6128 39.3626C16.7326 39.5259 16.8869 39.5989 17.06 39.5989C17.1407 39.5989 17.2214 39.5816 17.2958 39.5471C17.5918 39.4097 20.2062 38.1897 20.8256 37.7147C21.4443 37.2405 23.1564 34.9694 23.4932 34.5188C23.7259 34.2095 23.5833 33.7526 23.1987 33.6395C23.0695 33.6026 22.8729 33.5469 22.6419 33.4856C28.6467 32.3669 41.2657 31.417 41.4051 31.4067C41.6455 31.3887 41.8734 31.2929 42.0559 31.1359C42.1343 31.0676 50.0447 24.2578 58.0512 21.7315C60.9617 20.8122 77.4887 21.3892 84.7077 21.737C84.7077 21.737 86.2968 31.1044 86.2984 31.1665C85.2137 30.7119 84.1924 29.4252 83.738 28.7931C83.749 28.6973 82.3455 23.0801 82.3455 23.0801C82.2531 22.719 81.9382 22.4615 81.5662 22.4442C80.83 22.4112 63.4743 21.6497 58.7854 22.4552C53.9866 23.2803 44.593 30.3538 44.1958 30.6545C43.9577 30.8343 43.8324 31.1271 43.8668 31.4246C43.8755 31.5 43.7549 42.1062 43.7549 42.1062C43.7549 42.1486 43.7635 42.1918 43.7815 42.231C44.5639 43.8836 45.0941 45.6939 45.3581 47.6126C45.3769 47.7508 45.4959 47.856 45.6369 47.856H83.3971C83.5138 47.856 83.6179 47.7853 83.6587 47.6746L83.6817 47.6137C83.919 46.9872 85.7201 42.2306 86.0466 41.1318C86.3709 40.0413 86.9763 35.9661 86.8799 31.7847C87.0358 31.8672 87.2112 31.9151 87.3976 31.9151L119.199 31.9166L119.219 32.2471L115.888 33.592C115.611 33.7034 115.471 34.0096 115.566 34.2922C116.384 36.7558 117.832 40.9629 118.32 41.4537C118.641 41.7732 119.255 41.9514 119.816 42.0535L119.858 42.731C119.858 42.7334 119.858 42.7355 119.859 42.7377C119.859 42.7398 119.86 42.742 119.86 42.7443H119.466C119.287 42.7443 119.116 42.8299 119.011 42.9759L115.382 47.9885C112.896 48.2672 109.729 48.4768 107.344 48.5852L107.343 48.5856ZM54.4911 32.9635C57.6272 32.9635 61.4601 32.8693 66.0059 32.6801C65.9612 33.4935 65.8837 34.9773 65.8508 35.8879C65.8067 37.106 66.185 42.4623 66.2528 43.4219L66.2528 43.4221L66.2604 43.5297L65.7028 47.2926L45.8799 47.2918C45.6011 45.4289 45.0772 43.6656 44.3182 42.0483L44.4756 32.1431C45.8447 32.6903 49.1545 32.9635 54.4912 32.9635L54.4911 32.9635ZM46.6779 30.9286C49.5059 28.9094 55.7246 24.6921 59.0712 24.1173C60.4418 23.8818 63.0335 23.7899 65.9822 23.7766V30.9899C54.419 31.4649 49.0995 31.26 46.6779 30.9286ZM119.038 47.3375C118.639 47.5008 117.878 47.6523 116.91 47.7936L119.751 43.8683H120.912V43.8526L120.956 43.8707C120.691 45.1535 120.064 46.9199 119.038 47.3375L119.038 47.3375ZM97.3208 44.2049C94.4509 44.2049 92.1183 46.5393 92.1183 49.4069C92.1183 52.2746 94.4525 54.609 97.3208 54.609C100.188 54.609 102.522 52.2746 102.522 49.4069C102.522 46.5393 100.19 44.2049 97.3208 44.2049ZM97.3208 52.9277C95.3799 52.9277 93.7995 51.3488 93.7995 49.4069C93.7995 47.4652 95.3791 45.8862 97.3208 45.8862C99.2601 45.8862 100.841 47.4651 100.841 49.4069C100.84 51.3487 99.2624 52.9277 97.3208 52.9277ZM24.9644 49.4069C24.9644 46.5393 27.2971 44.2049 30.1664 44.2049C33.0349 44.2049 35.3677 46.5393 35.3685 49.4069C35.3685 52.2746 33.0341 54.609 30.1664 54.609C27.2987 54.609 24.9644 52.2746 24.9644 49.4069ZM26.6457 49.4069C26.6457 51.3488 28.2254 52.9277 30.1664 52.9277C32.1082 52.9277 33.6864 51.3487 33.6872 49.4069C33.6872 47.4651 32.1074 45.8862 30.1664 45.8862C28.2254 45.8862 26.6457 47.4652 26.6457 49.4069Z" fill="black"/>
</svg>
