<svg width="136" height="72" viewBox="0 0 136 72" fill="none" xmlns="http://www.w3.org/2000/svg">
<path d="M37.3833 45.0377C34.7631 45.0377 32.6325 47.1538 32.6325 49.7561C32.6325 52.3585 34.7631 54.4746 37.3833 54.4746C40.0035 54.4746 42.1342 52.3585 42.1342 49.7561C42.1342 47.1547 40.0035 45.0377 37.3833 45.0377ZM37.3833 52.9018C35.6362 52.9018 34.2161 51.4913 34.2161 49.7561C34.2161 48.0209 35.6362 46.6105 37.3833 46.6105C39.1304 46.6105 40.5506 48.0209 40.5506 49.7561C40.5506 51.4913 39.1304 52.9018 37.3833 52.9018ZM99.6737 45.0377C97.0535 45.0377 94.9229 47.1538 94.9229 49.7561C94.9229 52.3585 97.0535 54.4746 99.6737 54.4746C102.294 54.4746 104.425 52.3585 104.425 49.7561C104.425 47.1547 102.294 45.0377 99.6737 45.0377ZM99.6737 52.9018C97.9266 52.9018 96.5065 51.4913 96.5065 49.7561C96.5065 48.0209 97.9266 46.6105 99.6737 46.6105C101.421 46.6105 102.841 48.0209 102.841 49.7561C102.841 51.4913 101.421 52.9018 99.6737 52.9018ZM116.565 39.7031V31.9312C116.565 29.8098 111.89 27.0959 108.332 25.3379L109.394 24.2838C109.674 24.0056 109.774 23.5957 109.652 23.2209C109.53 22.847 109.208 22.5714 108.817 22.5073C107.624 22.3134 79.4699 17.7828 68.3303 19.8902C57.8255 21.8773 45.7221 28.7995 43.9154 29.8571C41.0407 30.1046 24.517 31.6845 21.2742 35.4411C18.1106 39.1062 18.3095 46.2587 18.373 47.5392L17.3656 51.0394C17.2772 51.3475 17.3356 51.6784 17.5229 51.939C17.712 52.1997 18.0081 52.3595 18.3298 52.3744L28.9891 52.879C30.2678 56.2545 33.542 58.6675 37.3827 58.6675C41.2153 58.6675 44.4852 56.2653 45.7682 52.9011H91.2858C92.5707 56.2653 95.8387 58.6675 99.6713 58.6675C103.504 58.6675 106.774 56.2653 108.057 52.9011H111.285C113.823 52.9011 118.675 51.0641 118.675 48.1826V42.4162C118.679 41.1865 117.42 40.2176 116.567 39.7033L116.565 39.7031ZM114.455 35.6008H111.288C109.777 35.6008 107.884 34.1087 106.712 32.98H114.455V35.6008ZM22.605 37.1516V37.1727H28.6302C27.9135 37.7757 26.9352 38.5077 26.1328 38.7719C25.0635 39.1256 22.6907 39.488 21.368 39.6715C21.6711 38.7446 22.0714 37.8722 22.6052 37.1516L22.605 37.1516ZM37.3842 56.5715C33.6 56.5715 30.5213 53.5137 30.5213 49.7553C30.5213 45.9969 33.6 42.9392 37.3842 42.9392C41.1684 42.9392 44.2471 45.9969 44.2471 49.7553C44.2471 53.5137 41.1684 56.5715 37.3842 56.5715V56.5715ZM99.6746 56.5715C95.8905 56.5715 92.8117 53.5137 92.8117 49.7553C92.8117 45.9969 95.8905 42.9392 99.6746 42.9392C103.459 42.9392 106.538 45.9969 106.538 49.7553C106.538 53.5137 103.459 56.5715 99.6746 56.5715ZM116.566 48.1834C116.566 49.3147 113.246 50.8042 111.287 50.8042L108.581 50.805C108.621 50.4601 108.649 50.1117 108.649 49.7571C108.649 44.842 104.623 40.845 99.6755 40.845C94.7267 40.845 90.7023 44.8429 90.7023 49.7571C90.7023 50.1117 90.7288 50.4601 90.7703 50.805H46.291C46.3317 50.4601 46.3591 50.1117 46.3591 49.7571C46.3591 44.842 42.3338 40.845 37.3859 40.845C32.4371 40.845 28.4126 44.8429 28.4126 49.7571C28.4126 50.0959 28.4356 50.4294 28.4736 50.7576L19.7646 50.346L20.4539 47.9481C20.4866 47.8323 20.5008 47.7111 20.4919 47.5909C20.4884 47.5391 20.2701 44.0381 21.0566 40.7766C22.2311 40.6194 25.165 40.2017 26.4676 39.7698C28.1502 39.2125 30.2801 37.1113 30.3683 37.0219C30.5194 36.8718 30.5645 36.6471 30.4823 36.4505C30.401 36.2539 30.2084 36.1275 29.9945 36.1275H23.7458C27.2657 34.0325 37.8402 32.4676 44.3337 31.9303C44.4945 31.9163 44.6501 31.8672 44.7888 31.7846C44.9196 31.7065 57.9491 23.9933 68.724 21.9536C77.8131 20.2334 99.6407 23.25 106.428 24.2654L105.788 24.9018C105.545 25.1431 105.435 25.4872 105.494 25.8225C105.553 26.1586 105.774 26.4456 106.084 26.5913C110.312 28.567 114.224 31.0842 114.452 31.9337H105.479C105.272 31.9337 105.086 32.0531 104.999 32.2392C104.913 32.4253 104.943 32.6447 105.077 32.7992C105.213 32.9563 108.435 36.6521 111.285 36.6521H114.453V40.3226C114.453 40.7193 114.678 41.081 115.035 41.26C115.728 41.6076 116.488 42.2053 116.564 42.4203L116.566 48.1834ZM99.5013 24.8854C99.3794 24.7345 99.2062 24.6327 99.0135 24.6011C98.2314 24.4712 79.7681 21.4518 69.7257 23.0274C59.6107 24.6142 50.2266 31.7911 49.8314 32.0956C49.6352 32.2474 49.5274 32.4782 49.5274 32.7161H49.5265V43.201C49.5265 45.0643 50.0691 46.7468 50.5233 47.8291C50.8821 48.6813 51.7128 49.2308 52.6425 49.2308L88.8914 49.2299C89.0293 49.2299 89.1451 49.1246 89.1548 48.9868C89.4853 44.4604 92.6878 40.6839 97.1249 39.5903C97.2239 39.5666 97.2981 39.4885 97.3202 39.3902C97.8495 36.8975 98.5035 32.5689 97.2672 30.3676C99.5313 29.5092 101.151 28.7895 101.319 28.7158C101.542 28.6166 101.707 28.4191 101.763 28.1839C101.821 27.9469 101.764 27.6985 101.612 27.5081L99.5013 24.8854ZM78.0377 24.164L78.5264 31.9297H75.4254L75.8849 24.1559C76.5902 24.1489 77.3086 24.1515 78.0377 24.1638V24.164ZM69.9737 24.5809C71.423 24.3536 73.071 24.2272 74.827 24.178L74.3684 31.9298L56.9167 31.9307V29.4292C60.4674 27.4597 65.1759 25.3331 69.9736 24.5809L69.9737 24.5809ZM55.8616 30.0278V31.9306H52.8048C53.6187 31.3882 54.6562 30.7291 55.8616 30.0278ZM51.011 47.6281C50.5753 46.5898 50.0548 44.9792 50.0548 43.2029V33.4552C50.1388 33.4842 50.2271 33.5026 50.3182 33.5026H74.2738C73.9592 34.8639 73.8089 36.2541 73.8416 37.6427C73.9097 40.5479 74.0908 44.795 74.5671 48.7068H52.6422C51.9264 48.7068 51.2866 48.2838 51.0109 47.6281L51.011 47.6281ZM96.8386 39.1225C92.3441 40.3013 89.0875 44.1167 88.6511 48.7068H75.1003C74.5957 44.586 74.426 40.015 74.3703 37.6304C74.3376 36.2462 74.4905 34.8586 74.8139 33.5035H84.6312C88.1141 33.5035 93.1371 31.9079 96.7647 30.5581C97.9895 32.5952 97.2657 37.0653 96.8389 39.1225H96.8386ZM84.6309 31.9307H79.584L79.0962 24.1886C87.5135 24.4326 96.6981 25.8281 98.4556 26.1046L99.7291 27.6853C97.0374 28.8158 89.2121 31.9308 84.6309 31.9308L84.6309 31.9307Z" fill="black"/>
</svg>
