<svg width="136" height="72" viewBox="0 0 136 72" fill="none" xmlns="http://www.w3.org/2000/svg">
<path d="M97.5729 45.5388C95.3614 45.5388 93.5631 47.3446 93.5631 49.5631C93.5631 51.7825 95.3623 53.5874 97.5729 53.5874C99.7843 53.5874 101.583 51.7816 101.583 49.5631C101.584 47.3437 99.7843 45.5388 97.5729 45.5388ZM97.5729 52.0786C96.1908 52.0786 95.0664 50.9502 95.0664 49.5631C95.0664 48.176 96.1908 47.0476 97.5729 47.0476C98.955 47.0476 100.079 48.176 100.079 49.5631C100.08 50.9502 98.955 52.0786 97.5729 52.0786ZM35.918 45.5388C33.7065 45.5388 31.9081 47.3446 31.9081 49.5631C31.9081 51.7825 33.7074 53.5874 35.918 53.5874C38.1294 53.5874 39.9278 51.7816 39.9278 49.5631C39.9286 47.3437 38.1294 45.5388 35.918 45.5388ZM35.918 52.0786C34.5359 52.0786 33.4115 50.9502 33.4115 49.5631C33.4115 48.176 34.5359 47.0476 35.918 47.0476C37.3001 47.0476 38.4244 48.176 38.4244 49.5631C38.4253 50.9502 37.3001 52.0786 35.918 52.0786ZM116.453 40.9565C115.691 39.806 114.617 37.8147 114.617 36.9867V30.9508C114.617 29.3587 110.369 24.761 106.804 21.1844C106.648 21.027 106.444 20.9274 106.226 20.8976C106.11 20.8832 94.288 19.3804 64.4908 19.3804C64.4602 19.3804 64.4297 19.3812 64.3992 19.3838C64.1635 19.4059 58.5393 20.0084 46.5865 28.9579C44.047 29.1161 27.568 30.3228 21.2725 35.1834C21.0257 35.3741 20.8807 35.6693 20.8807 35.9817V42.2839L19.4825 45.0895C19.3418 45.3729 19.3418 45.7065 19.4825 45.9899L21.487 50.0141C21.6574 50.3545 22.0033 50.5706 22.3841 50.5706H26.9543C27.4555 55.0918 31.2822 58.6198 35.9176 58.6198C40.5539 58.6198 44.3805 55.0918 44.8808 50.5706H88.6084C89.1095 55.0918 92.9362 58.6198 97.5716 58.6198C102.272 58.6198 106.14 54.9914 106.554 50.38L114.833 48.5343C114.913 48.5173 114.99 48.4892 115.063 48.4526C116.098 47.9318 116.623 45.5984 116.623 41.5138C116.623 41.3147 116.564 41.1206 116.454 40.9564L116.453 40.9565ZM112.612 36.483H107.807L111.817 32.4588H112.612L112.612 36.483ZM111.139 28.8678L103.579 28.4457L97.5236 24.5143L107.61 24.9032C108.952 26.3268 110.214 27.7395 111.139 28.8677V28.8678ZM27.8141 36.9869C27.3435 37.4626 26.6261 38.0693 25.6697 38.5493C24.5013 39.1347 23.5033 39.5483 22.8861 39.7874V36.9861L27.8141 36.9869ZM35.9175 56.6058C32.0486 56.6058 28.9003 53.4462 28.9003 49.5633C28.9003 45.6804 32.0486 42.5208 35.9175 42.5208C39.7865 42.5208 42.9348 45.6804 42.9348 49.5633C42.9356 53.4462 39.7882 56.6058 35.9175 56.6058ZM97.5724 56.6058C93.7035 56.6058 90.5552 53.4462 90.5552 49.5633C90.5552 45.6804 93.7035 42.5208 97.5724 42.5208C101.441 42.5208 104.59 45.6804 104.59 49.5633C104.591 53.4462 101.442 56.6058 97.5724 56.6058V56.6058ZM114.038 46.6488L106.502 48.3303C105.9 43.9206 102.13 40.5083 97.5731 40.5083C92.9368 40.5083 89.1102 44.0363 88.6098 48.5575L44.8801 48.5566C44.379 44.0355 40.5523 40.5075 35.9169 40.5075C31.2806 40.5075 27.454 44.0355 26.9536 48.5566H23.0033L21.4999 45.5384L22.7803 42.9702C22.8498 42.8298 22.8863 42.6766 22.8863 42.5201V40.8632C23.4467 40.6573 24.6414 40.1901 26.1186 39.4489C28.2188 38.3946 29.2753 36.8289 29.3194 36.7625C29.4211 36.6084 29.4313 36.4102 29.3448 36.2468C29.2575 36.0834 29.0887 35.9804 28.9022 35.9804H23.7011C30.7499 31.8806 46.8315 30.958 47.003 30.9478C47.2014 30.9367 47.3922 30.8669 47.5499 30.7478C58.6397 22.4008 64.0975 21.4571 64.5529 21.3907C91.4038 21.3915 103.533 22.6144 105.635 22.8518C105.792 23.01 105.951 23.1726 106.108 23.3351L94.8492 22.9011C94.4981 22.8901 94.2047 23.1037 94.1038 23.427C94.0021 23.7512 94.1284 24.1044 94.4125 24.2882L102.934 29.8219C103.043 29.8925 103.17 29.9342 103.301 29.941L112.324 30.444V30.4405C112.474 30.6763 112.577 30.8686 112.616 31.0013V31.4506H111.613C111.479 31.4506 111.353 31.5034 111.258 31.5978L106.245 36.6288C106.102 36.7726 106.059 36.9887 106.136 37.1768C106.214 37.3648 106.397 37.4882 106.599 37.4882H112.661C112.904 39.0012 114.105 41.0077 114.618 41.8103C114.593 45.0449 114.213 46.2582 114.038 46.6488L114.038 46.6488ZM94.8463 28.6552L89.3325 23.1215C89.1951 22.9836 89.0102 22.9045 88.8169 22.9011L64.7554 22.3982C64.6918 22.3948 64.6316 22.4033 64.5705 22.4177C57.9442 23.952 49.5575 31.3289 49.2048 31.643C49.0648 31.7664 48.9868 31.9349 48.9639 32.1119L48.3729 33.0012C48.0948 33.4207 47.9473 33.9091 47.9473 34.4138L47.9507 43.8221L48.4518 46.8403C48.4722 46.9611 48.5773 47.0505 48.6985 47.0505H72.2587V47.0428C72.2723 47.0454 72.2841 47.0505 72.2985 47.0505H86.8935C87.008 47.0505 87.1072 46.9722 87.1369 46.8616C88.1145 43.0493 91.0814 40.0718 94.8791 39.0906C94.9893 39.0617 95.0673 38.9613 95.0673 38.8464V29.1906C95.0673 29.1761 95.0614 29.1634 95.0589 29.1489C95.0487 28.9659 94.9809 28.789 94.8469 28.6553L94.8463 28.6552ZM73.0118 29.8738V24.0786L74.5152 24.1101V29.7706L73.0118 29.8738ZM92.6129 28.5471L75.5174 29.7036V24.1307L88.4826 24.4013L92.6129 28.5471ZM64.82 23.9077L72.0086 24.0574V29.9401L56.6139 30.9834L55.5871 28.6067C58.3877 26.664 61.8362 24.6243 64.8199 23.9078L64.82 23.9077ZM54.7493 29.1963L55.5532 31.0539L51.9783 31.2956C52.7262 30.6991 53.6767 29.9673 54.7494 29.1963H54.7493ZM48.4501 43.7784V34.412C48.4501 34.0069 48.568 33.6155 48.7918 33.2785L49.1615 32.722C49.3014 32.8692 49.4948 32.9611 49.7033 32.9611C49.7203 32.9611 49.7373 32.9611 49.7542 32.9602L72.5112 31.4209V32.6701C72.3883 33.0462 71.5082 35.782 71.5082 37.2389V43.2748C71.5082 43.9028 71.6726 45.0056 71.9923 46.5442H48.9141L48.4501 43.7784ZM86.7034 46.5449H72.5026C72.1795 45.0029 72.0091 43.8745 72.0091 43.2754V37.2396C72.0091 35.7887 72.9884 32.8215 72.9986 32.7916C73.0071 32.7661 73.0105 32.7389 73.0105 32.7125L73.0113 31.3859L94.365 29.9418C94.4346 29.9367 94.5016 29.9214 94.566 29.8992V38.6523C90.7437 39.7083 87.7573 42.707 86.7033 46.5448L86.7034 46.5449Z" fill="black"/>
</svg>
