<svg width="16" height="16" viewBox="0 0 16 16" fill="none" xmlns="http://www.w3.org/2000/svg">
<g clip-path="url(#clip0_2431_5438)">
<path d="M14.2051 11.3333H1.79483C1.17432 11.3333 0.666626 10.8533 0.666626 10.2667V8.13333C0.666626 6.96 1.68201 6 2.92304 6H13.0769C14.3179 6 15.3333 6.96 15.3333 8.13333V10.2667C15.3333 10.8533 14.8256 11.3333 14.2051 11.3333Z" stroke="#E0102C" stroke-width="2" stroke-miterlimit="10" stroke-linecap="round" stroke-linejoin="round"/>
<path d="M13.3333 6.00008H2.66663L3.73329 3.80961C4.05329 3.14294 4.79996 2.66675 5.65329 2.66675H10.2933C11.1466 2.66675 11.8933 3.14294 12.2666 3.80961L13.3333 6.00008Z" stroke="#E0102C" stroke-width="2" stroke-miterlimit="10" stroke-linecap="round" stroke-linejoin="round"/>
<path d="M4.66659 11.3335H1.33325V12.3335C1.33325 12.8835 1.83325 13.3335 2.44436 13.3335H3.55547C4.16659 13.3335 4.66659 12.8835 4.66659 12.3335V11.3335Z" stroke="#E0102C" stroke-width="2" stroke-miterlimit="10" stroke-linecap="round" stroke-linejoin="round"/>
<path d="M14.6666 11.3335H11.3333V12.3335C11.3333 12.8835 11.8333 13.3335 12.4444 13.3335H13.5555C14.1666 13.3335 14.6666 12.8835 14.6666 12.3335V11.3335Z" stroke="#E0102C" stroke-width="2" stroke-miterlimit="10" stroke-linecap="round" stroke-linejoin="round"/>
<path d="M1.33325 5.3335L2.66659 5.3335" stroke="#E0102C" stroke-width="2" stroke-miterlimit="10" stroke-linecap="round" stroke-linejoin="round"/>
<path d="M13.3333 5.3335H14.6666" stroke="#E0102C" stroke-width="2" stroke-miterlimit="10" stroke-linecap="round" stroke-linejoin="round"/>
<path d="M10.6666 11.3335H5.33325L6.07992 9.8835C6.23992 9.5335 6.61325 9.3335 7.03992 9.3335H8.90659C9.33325 9.3335 9.70659 9.5335 9.86659 9.8835L10.6666 11.3335Z" stroke="#E0102C" stroke-width="2" stroke-miterlimit="10" stroke-linecap="round" stroke-linejoin="round"/>
<path d="M2.66663 8H3.99996" stroke="#E0102C" stroke-width="2" stroke-miterlimit="10" stroke-linecap="round" stroke-linejoin="round"/>
<path d="M12 8H13.3333" stroke="#E0102C" stroke-width="2" stroke-miterlimit="10" stroke-linecap="round" stroke-linejoin="round"/>
</g>
<defs>
<clipPath id="clip0_2431_5438">
<rect width="16" height="16" fill="white"/>
</clipPath>
</defs>
</svg>
