<svg width="88" height="46" viewBox="0 0 88 46" fill="none" xmlns="http://www.w3.org/2000/svg">
<path d="M15.6801 30.3284C13.0038 30.3284 10.8274 32.5268 10.8274 35.2284C10.8274 37.93 13.0046 40.1284 15.6801 40.1284C18.3555 40.1284 20.5327 37.93 20.5327 35.2284C20.532 32.5268 18.3548 30.3284 15.6801 30.3284ZM15.6801 38.6599C13.8071 38.6599 12.2833 37.1211 12.2833 35.23C12.2833 33.3388 13.8072 31.8 15.6801 31.8C17.5529 31.8 19.0769 33.3388 19.0769 35.23C19.0769 37.1212 17.5529 38.6599 15.6801 38.6599ZM73.9144 30.3284C71.2381 30.3284 69.0617 32.5268 69.0617 35.2284C69.0617 37.93 71.2389 40.1284 73.9144 40.1284C76.5906 40.1284 78.767 37.93 78.767 35.2284C78.767 32.5268 76.5912 30.3284 73.9144 30.3284ZM73.9144 38.6599C72.0414 38.6599 70.5176 37.1211 70.5176 35.23C70.5176 33.3388 72.0415 31.8 73.9144 31.8C75.7873 31.8 77.3112 33.3388 77.3112 35.23C77.3112 37.1212 75.788 38.6599 73.9144 38.6599ZM84.0966 20.7462C83.999 18.2243 83.2101 4.4751 77.5672 2.92108C72.1126 1.41897 48.0876 -0.0632677 41.1339 1.9449C36.4183 3.30482 29.2944 7.68425 24.0927 10.8819C21.8504 12.2602 19.9145 13.4504 19.2023 13.7379C18.4634 14.036 17.455 14.2485 16.2884 14.4954C13.9008 14.9992 10.6317 15.6887 6.96548 17.7076C3.42856 19.6561 1.84479 24.8481 1.2157 27.7714C0.501802 31.0922 0.226989 35.3333 1.31563 36.7971C2.75023 38.728 5.50897 38.764 6.61268 38.6944C8.00263 42.3913 11.538 45.03 15.6806 45.03C19.8359 45.03 23.3798 42.3744 24.7599 38.6592H64.8328C66.2144 42.3742 69.7582 45.03 73.9122 45.03C78.0516 45.03 81.5856 42.3942 82.9777 38.7012C83.1102 38.7112 83.2472 38.7181 83.3911 38.7181C84.756 38.7181 86.5396 38.2502 86.9871 36.4476C88.6708 29.6525 84.8567 22.1442 84.0966 20.7462ZM78.8027 13.6546C79.6279 13.6722 80.7316 13.7952 81.4615 14.1836C81.8521 16.454 82.077 18.7808 82.1527 20.7278C81.6719 20.3318 81.0731 19.9672 80.3464 19.7096C80.0231 16.8262 79.0828 14.3448 78.8027 13.6546ZM81.3578 13.6034C80.3214 13.1845 78.9798 13.1539 78.3614 13.1661C73.8994 11.1234 69.2875 8.1698 69.5381 6.90385C69.8136 5.50952 74.106 4.87116 77.1577 4.84905C79.2124 5.52788 80.5766 9.39376 81.3578 13.6034ZM7.89438 19.4292C10.9832 17.7283 13.7145 17.0525 15.9813 16.5648C16.1894 16.8201 16.3409 17.119 16.2167 17.369C15.9737 17.8208 13.0697 20.0759 9.66436 21.5489C7.63465 22.4264 5.76928 23.1328 4.60878 23.554C5.52482 21.5626 6.66043 20.1089 7.89438 19.4292ZM15.6807 43.0692C11.3988 43.0692 7.91648 39.5527 7.91648 35.2293C7.91648 30.9058 11.3989 27.3893 15.6807 27.3893C19.9624 27.3893 23.4448 30.9058 23.4448 35.2293C23.4448 39.5522 19.9608 43.0692 15.6807 43.0692ZM25.2649 36.6983C25.3368 36.2175 25.3867 35.7298 25.3867 35.2291C25.3867 29.8254 21.0322 25.4283 15.6806 25.4283C10.3291 25.4283 5.97454 29.8254 5.97454 35.2291C5.97454 35.7489 6.02678 36.255 6.104 36.7526C5.18721 36.7649 3.61323 36.6242 2.86844 35.622C2.50128 35.129 2.2628 32.14 3.11296 28.1887C3.37869 26.9549 3.71406 25.812 4.10394 24.7762C5.01769 24.4559 7.39473 23.599 10.0483 22.4508C13.3779 21.0098 16.6884 18.6118 17.0851 17.8098C17.3388 17.2961 17.2449 16.7886 17.0056 16.3482C18.1238 16.1113 19.1057 15.8911 19.9234 15.5601C20.7864 15.2115 22.5965 14.0993 25.1024 12.5582C29.921 9.59591 37.2045 5.11938 41.6674 3.83132C47.1864 2.23977 64.8425 3.01566 73.368 4.15238C71.1786 4.48261 68.8894 5.19124 68.5872 6.71324C68.0694 9.32617 75.8927 13.1086 77.908 14.0358C78.3767 15.216 80.962 22.2092 78.2714 26.4853C76.9595 25.8172 75.4824 25.4312 73.9153 25.4312C68.5638 25.4312 64.2092 29.8282 64.2092 35.232C64.2092 35.7327 64.2584 36.2219 64.3311 36.7012L25.266 36.7004L25.2649 36.6983ZM73.9136 43.0692C69.6317 43.0692 66.1494 39.5527 66.1494 35.2293C66.1494 30.9058 69.6319 27.3893 73.9136 27.3893C78.1953 27.3893 81.6778 30.9058 81.6778 35.2293C81.6778 39.5522 78.1953 43.0692 73.9136 43.0692ZM85.1042 35.9707C84.9445 36.6152 84.108 36.7466 83.4902 36.752C83.5674 36.2543 83.6197 35.7483 83.6197 35.2285C83.6197 31.758 81.8179 28.7101 79.116 26.9688C80.3576 24.9713 80.5878 22.5175 80.4 20.2509C81.2229 20.5842 81.855 21.075 82.3221 21.5574C82.6719 22.1903 86.6768 29.6198 85.1042 35.9707ZM64.9312 14.1566C64.9312 14.1291 64.9334 14.1031 64.9312 14.0756L63.9606 5.25479C63.9213 4.90086 63.6374 4.62567 63.2853 4.60274C62.6865 4.56222 48.5455 3.63191 42.6781 5.11338C36.783 6.60174 27.7597 13.2813 27.379 13.5651C27.189 13.7065 27.083 13.9282 27.083 14.1567C27.083 15.0228 27.1451 35.2272 32.4218 35.2272H57.657C62.8277 35.2272 64.9361 29.1217 64.9361 14.1567L64.9312 14.1566ZM63.3943 13.4227H61.2951V5.96498C61.8227 5.99097 62.2611 6.01543 62.5798 6.03378L63.3943 13.4227ZM43.0313 6.54052C47.127 5.50623 55.8096 5.72105 60.3253 5.92056V13.4243L35.7063 13.4235L34.4791 10.5883C37.2742 8.89125 40.503 7.17812 43.0308 6.54054L43.0313 6.54052ZM33.6425 11.1026L34.6479 13.4225H30.1132C31.0497 12.7758 32.276 11.9548 33.6425 11.1026ZM57.6568 34.7386H32.4215C28.5916 34.7386 27.64 20.9903 27.5733 14.8501C27.649 14.8761 27.7285 14.8929 27.8118 14.8929H64.2082C64.2907 14.8929 64.371 14.8754 64.4467 14.8478C64.3634 32.2992 61.14 34.7383 57.6568 34.7383V34.7386Z" fill="black"/>
</svg>
