<svg width="65" height="65" viewBox="0 0 65 65" fill="none" xmlns="http://www.w3.org/2000/svg">
<path d="M32.5 0.40332C14.836 0.40332 0.5 14.7393 0.5 32.4033C0.5 50.0673 14.836 64.4033 32.5 64.4033C50.164 64.4033 64.5 50.0673 64.5 32.4033C64.5 14.7393 50.164 0.40332 32.5 0.40332ZM37.012 51.8913V58.0033H28.468V51.8273C22.996 50.6753 18.356 47.1553 18.004 40.9473H24.276C24.596 44.3073 26.9 46.9313 32.756 46.9313C39.028 46.9313 40.436 43.7953 40.436 41.8433C40.436 39.1873 39.028 36.6913 31.892 34.9953C23.956 33.0753 18.516 29.8113 18.516 23.2513C18.516 17.7473 22.964 14.1633 28.468 12.9793V6.80332H37.012V13.0433C42.964 14.4833 45.94 18.9953 46.132 23.8913H39.86C39.7 20.3393 37.812 17.9073 32.756 17.9073C27.956 17.9073 25.076 20.0833 25.076 23.1553C25.076 25.8433 27.156 27.6033 33.62 29.2673C40.084 30.9313 46.996 33.7153 46.996 41.7793C46.964 47.6353 42.58 50.8353 37.012 51.8913Z" fill="#E0102C"/>
</svg>
