<svg width="65" height="65" viewBox="0 0 65 65" fill="none" xmlns="http://www.w3.org/2000/svg">
<path d="M32.5 0.40332C14.836 0.40332 0.5 14.7393 0.5 32.4033C0.5 50.0673 14.836 64.4033 32.5 64.4033C50.164 64.4033 64.5 50.0673 64.5 32.4033C64.5 14.7393 50.164 0.40332 32.5 0.40332ZM32.5 10.0033C37.812 10.0033 42.1 14.2913 42.1 19.6033C42.1 24.9153 37.812 29.2033 32.5 29.2033C27.188 29.2033 22.9 24.9153 22.9 19.6033C22.9 14.2913 27.188 10.0033 32.5 10.0033ZM32.5 55.4433C24.5 55.4433 17.428 51.3473 13.3 45.1393C13.396 38.7713 26.1 35.2833 32.5 35.2833C38.868 35.2833 51.604 38.7713 51.7 45.1393C47.572 51.3473 40.5 55.4433 32.5 55.4433Z" fill="#E0102C"/>
</svg>
