<svg width="90" height="55" viewBox="0 0 90 55" fill="none" xmlns="http://www.w3.org/2000/svg">
<g opacity="0.7">
<path d="M45.0309 2C60.2033 2 64.1667 7.9586 63.2378 19.6749C62.247 31.4582 58.2836 36.5465 45.0309 36.5465C31.7164 36.5465 27.8149 31.4582 26.824 19.7419C25.8332 7.9586 29.8585 2 45.0309 2ZM44.969 2.87036C37.4138 2.87036 32.6453 4.34327 30.1062 7.42299C27.9388 9.96712 27.1337 13.8502 27.6291 19.608C28.1245 25.7005 29.425 29.4497 31.8402 31.8599C34.4412 34.471 38.5904 35.6761 44.969 35.6761C51.3476 35.6761 55.5587 34.471 58.1597 31.8599C60.5749 29.4497 61.8754 25.7005 62.3708 19.608C62.8663 13.9172 62.0612 10.0341 59.8937 7.42299C57.3546 4.34327 52.6481 2.87036 44.969 2.87036ZM45.0309 3.74071C58.6551 3.74071 62.3089 9.09676 61.4419 19.6749C60.5749 30.2531 56.9831 34.8058 45.0309 34.8058C33.0788 34.8058 29.487 30.2531 28.62 19.6749C27.691 9.09676 31.3448 3.74071 45.0309 3.74071ZM36.2991 6.55264C34.4412 7.15519 33.0788 8.0925 32.0879 9.23066C30.292 11.3731 29.6108 14.6537 30.0443 19.541C30.4778 24.7632 31.5925 27.9768 33.6981 29.9853C35.6798 31.9269 38.8381 32.9312 43.5447 33.132C43.6685 33.199 43.7304 33.0651 43.6685 32.9312L37.5995 20.947C36.8564 19.541 36.4848 17.9342 36.4848 16.3274V6.68654C36.4848 6.61959 36.4229 6.55264 36.2991 6.55264ZM53.7628 6.55264C53.7009 6.48569 53.577 6.55264 53.577 6.68654V16.3274C53.577 17.9342 53.1435 19.541 52.4623 20.947L46.3934 32.9312C46.3314 32.9981 46.3934 33.132 46.5172 33.132C51.2238 32.9981 54.3821 31.9269 56.3638 29.9853C58.4074 27.9768 59.5221 24.7632 59.9556 19.541C60.3891 14.5867 59.7079 11.3061 57.9739 9.23066C56.9831 8.0925 55.5587 7.15519 53.7628 6.55264ZM45.0929 5.41448C42.4299 5.41448 40.2005 5.61533 38.2808 6.01703C38.1569 6.01703 38.095 6.15093 38.1569 6.21789C40.8198 13.3816 43.7304 20.0767 44.7213 22.2191C44.8451 22.4869 45.2167 22.4869 45.3406 22.2191C46.2695 20.0767 49.2421 13.3816 51.905 6.21789C51.9669 6.08398 51.905 6.01703 51.905 6.01703C49.9852 5.61533 47.7558 5.41448 45.0929 5.41448Z" fill="white"/>
<path d="M69.3687 48.7473V51.894C69.3687 53.0991 69.988 53.3669 70.7312 53.3669C71.4743 53.3669 72.0936 53.0991 72.0936 51.894V48.7473H73.8276V52.2288C73.8276 54.3712 72.5271 54.9737 70.5454 54.9737C68.5637 54.9737 67.2632 54.3712 67.2632 52.2288V48.7473H69.3687ZM86.0274 48.5465C88.5046 48.5465 89.7431 49.4838 89.7431 51.7601C89.7431 54.0364 88.5046 54.9737 86.0274 54.9737C83.5503 54.9737 82.3117 54.0364 82.3117 51.7601C82.3117 49.4838 83.6122 48.5465 86.0274 48.5465ZM25.8332 48.7473C26.2048 48.7473 26.5144 48.8143 26.7002 49.0151L29.425 51.7601C29.5489 51.894 29.6108 51.7601 29.6108 51.6931V48.8143H31.4067V54.572C31.4067 54.7729 31.2829 54.8398 31.159 54.8398H30.1682C29.8585 54.7729 29.5489 54.7059 29.3012 54.4381L26.6383 51.8271C26.5144 51.6932 26.4525 51.7601 26.4525 51.894V54.7729H24.7185V48.7473H25.8332ZM50.4806 48.7473C50.8522 48.7473 51.1618 48.8143 51.3476 49.0151L54.0725 51.7601C54.1963 51.894 54.2583 51.7601 54.2583 51.6931V48.8143H55.9922V54.572C55.9922 54.7729 55.8684 54.8398 55.7445 54.8398H54.8156C54.444 54.7729 54.1344 54.7059 53.9486 54.4381L51.2857 51.8271C51.1618 51.6932 51.0999 51.7601 51.0999 51.894V54.7729H49.3659V48.7473H50.4806ZM7.00704 48.7473V50.2872H4.52991C3.53906 50.2872 3.22942 50.555 3.22942 51.6931C3.22942 52.8983 3.53906 53.1661 4.59184 53.1661H7.06896V54.7059H4.28219V54.7729C2.23856 54.7729 1 54.0364 1 51.6931C1 49.6177 2.23856 48.7473 4.34412 48.7473H7.00704ZM10.8466 48.7473V50.8897H13.1379V48.7473H15.2435V54.7729H13.1379V52.4966H10.8466V54.7729H8.74103V48.7473H10.8466ZM20.6312 48.7473C21.1267 48.7473 21.3125 48.9482 21.4363 49.2829L23.6657 54.7729H21.4363L20.012 51.0906C19.8881 50.8228 19.7642 50.8228 19.7023 51.0906L18.278 54.7729H16.4201L18.7115 48.7473H20.6312ZM39.829 48.7473V50.2872H36.5468C35.494 50.2872 35.1844 50.555 35.1844 51.6931C35.1844 52.9652 35.4321 53.233 36.5468 53.233H37.7854C37.8473 53.233 37.9092 53.1661 37.9092 53.0991V52.5635C37.9092 52.4966 37.8473 52.4296 37.7854 52.4296H36.7945V51.0906H39.5193C39.7051 51.0906 39.7671 51.2245 39.7671 51.3584V54.4381C39.829 54.639 39.7051 54.7729 39.5193 54.7729H36.361C34.1316 54.7729 33.0169 54.0364 33.0169 51.6931C33.0169 49.6177 34.1935 48.7473 36.4229 48.7473H39.829ZM45.2167 48.7473C45.7122 48.7473 45.8979 48.9482 46.0218 49.2829L48.2512 54.7729H46.0218L44.5975 51.0906C44.4736 50.8228 44.3497 50.8228 44.2878 51.0906L42.8635 54.7729H41.0056L43.297 48.7473H45.2167ZM63.6094 48.7473C64.1048 48.7473 64.2906 48.9482 64.4145 49.2829L66.6439 54.7729H64.4145L62.9901 51.0906C62.8663 50.8228 62.7424 50.8228 62.6805 51.0906L61.2561 54.7729H59.3983L61.6896 48.7473H63.6094ZM81.4447 48.7473V50.3541H79.3392V54.7729H77.2956V50.3541H75.19V48.7473H81.4447ZM86.0274 50.0863C84.7889 50.0863 84.4173 50.555 84.4173 51.7601C84.4173 52.9652 84.7889 53.4339 86.0274 53.4339C87.2041 53.4339 87.6376 52.9652 87.6376 51.7601C87.6376 50.555 87.266 50.0863 86.0274 50.0863Z" fill="white"/>
</g>
</svg>
