<svg width="90" height="55" viewBox="0 0 90 55" fill="none" xmlns="http://www.w3.org/2000/svg">
<g opacity="0.7">
<path d="M13.4182 44.093H29.626C29.8753 44.093 30 43.9845 30 43.8217V41.4341C30 41.2171 29.9377 41.1628 29.813 41.1085C29.6883 41 29.439 41 28.7532 41H11.9221C10.4883 41 9.36623 41.2171 8.49351 41.5426C7.68312 41.9225 6 42.845 6 45.7209V49.9535C6 53.4264 7.62078 53.969 8.30649 54.3488C9.17922 54.7829 10.3636 55 11.8597 55H25.1377C26.5714 55 27.4442 54.8372 28.2545 54.4574C29.1896 53.969 29.8753 53.155 29.8753 50.6047V47.7287C29.8753 47.0775 30 46.6977 29.0649 46.6977H16.5974C16.2234 46.6977 16.2234 46.8062 16.161 46.9147V48.9225C16.161 49.0853 16.2857 49.1938 16.5974 49.1938H23.2675C24.2649 49.1938 24.2649 49.1938 24.2649 49.6279V50.9845C24.2649 51.3643 23.8909 51.8527 23.0182 51.8527H13.2312C11.8597 51.8527 11.7974 51.1473 11.7974 50.6047V45.3411C11.7974 44.6357 12.0468 44.093 13.4182 44.093Z" fill="white"/>
<path d="M58.5554 41H53.9275C53.4712 41 53.015 41.3243 52.8846 41.7027L49.8863 49.4865C49.8863 49.4865 49.8863 49.6487 49.6907 49.6487C49.5604 49.6487 49.4952 49.4865 49.4952 49.4865L46.3013 41.4324C46.1709 41.1622 45.9754 41 45.5191 41H44.4762C43.9548 41 43.8896 41.1622 43.7592 41.4324L40.5653 49.4865C40.5653 49.4865 40.5002 49.6487 40.3698 49.6487C40.2394 49.6487 40.1743 49.4865 40.1743 49.4865L37.1107 41.7568C37.0456 41.3243 36.5893 41 36.2634 41H31.44C31.0489 41 30.9185 41.1622 31.0489 41.3784L36.3286 54.5135C36.4589 54.7838 36.7197 55 37.1107 55H40.6305C41.2172 55 41.5431 54.8378 41.6734 54.4595L44.6066 47.3784C44.6066 47.3784 44.6718 47.0541 44.9325 47.0541C45.1932 47.0541 45.2584 47.3784 45.2584 47.3784L48.1916 54.4595C48.3219 54.7838 48.6478 55 49.1693 54.9459H52.7542C53.2105 54.9459 53.5364 54.7838 53.6668 54.4054L58.8813 41.2703C59.142 41.1622 58.9465 41 58.5554 41Z" fill="white"/>
<path d="M84.515 41H79.9374C79.4984 41 78.8714 41.1628 78.6833 41.5426L73.1651 51.3643C73.1651 51.3643 73.1024 51.4186 73.0397 51.4186C72.977 51.4186 72.8515 51.3643 72.8515 51.3643L67.3961 41.5969C67.208 41.2713 66.6436 41 66.1419 41H61.5644C61.0627 41 61 41.1085 61 41.3798V54.3488C61.0627 54.7829 61.3762 54.9457 61.6271 54.9457H66.6436C66.8944 54.9457 66.8944 54.7829 66.8944 54.6202V47.5116C66.8944 47.5116 66.8944 47.3488 67.0198 47.3488C67.2079 47.2946 67.2707 47.5116 67.2707 47.5116L71.0958 54.5116C71.2839 54.8372 71.4093 55 71.7855 55H74.1057C74.4819 55 74.6073 54.8372 74.7954 54.5116L78.6205 47.5116C78.6205 47.5116 78.6833 47.3488 78.8714 47.4031C78.9968 47.4031 78.9968 47.5659 78.9968 47.5659V54.6744C78.9968 54.8915 78.9968 55 79.3103 55H84.3268C84.515 55 84.9539 54.7287 84.9539 54.3488V41.3798C85.0793 41.1085 84.9539 41 84.515 41Z" fill="white"/>
<path d="M45.9868 0C52.5145 0.111279 58.9167 0.945869 64.8168 3.61656C69.1477 5.61958 72.7254 8.3459 74.6712 12.4076C77.4957 18.2497 75.7383 24.5926 70.152 28.9881C66.2605 32.1595 61.553 33.94 56.4688 34.9415C47.4304 36.6663 38.5175 36.3881 29.7929 33.328C25.9642 31.9926 22.5748 30.0453 19.8758 27.2076C14.1012 21.0873 14.8544 12.5745 21.6333 7.01056C25.5248 3.78348 30.2951 2.05866 35.3792 1.00151C38.8314 0.278197 42.4091 0.0556394 45.9868 0ZM61.1763 3.44964C52.8284 0.500754 44.2921 0.166918 35.5675 2.05866C30.2951 3.22708 25.5876 5.2301 21.9471 8.9023C17.0513 13.7986 16.5491 20.6978 20.8173 25.6497C22.9514 28.0422 25.6503 29.6558 28.7887 30.8798C34.2494 32.9941 40.0867 33.6062 45.9868 33.6062C48.3719 33.6062 50.6943 33.4949 53.0167 33.2167C57.7869 32.6603 62.3062 31.6032 66.4488 29.3219C75.0478 24.4813 76.5542 15.3565 69.7754 8.6241C67.3903 6.28725 64.4402 4.61807 61.1763 3.44964ZM31.4876 4.39551C41.5931 1.27971 51.6358 1.33534 61.5529 4.84062C64.6913 5.95341 67.3903 7.62259 69.4616 10.0707C74.734 16.2467 73.1648 25.4272 63.1221 28.9325C59.921 30.0453 56.5944 30.546 53.205 30.0453C49.0624 29.4332 46.991 27.3746 46.9283 23.6467C46.8655 18.973 46.9283 14.355 46.9283 9.56997C48.8113 10.2376 50.3805 11.1279 52.0124 11.9068C53.2677 12.5189 54.5231 13.2422 55.8412 13.8542C56.4061 14.1324 56.5316 14.4662 56.5316 15.0226C56.5316 16.97 56.5944 18.9174 56.6571 20.8648C56.7199 23.0347 58.3518 24.4257 60.7998 24.537C66.5743 24.8152 69.6499 20.3084 69.336 16.358C69.0222 12.7971 66.8254 10.2933 63.7498 8.3459C60.1093 6.00905 55.9667 4.89626 51.6358 4.39551C45.4846 3.6722 39.3963 3.95039 33.4962 5.84213C30.1695 6.89928 27.1567 8.45718 24.8971 10.961C22.1982 14.0211 21.7588 17.9159 23.8301 21.0317C25.462 23.5354 28.4748 24.8708 31.6759 24.4813C33.7473 24.2031 35.1909 22.8678 35.2537 20.9204C35.3792 18.9174 35.3792 16.8587 35.442 14.8557C35.442 14.5219 35.442 14.2437 35.8813 14.0211C38.7058 12.5189 41.5303 11.0166 44.5431 9.73689C44.6687 9.68125 44.7942 9.68125 45.108 9.56997V15.3565C45.108 18.3053 45.1708 21.3099 44.9825 24.2588C44.7942 27.3189 42.7857 29.4889 39.3963 29.934C33.3707 30.7686 27.9099 29.6001 23.3907 25.8723C18.8088 22.1445 18.2439 15.579 21.9471 10.7384C24.2695 7.62259 27.6589 5.61958 31.4876 4.39551Z" fill="white"/>
</g>
</svg>
