<svg width="90" height="55" viewBox="0 0 90 55" fill="none" xmlns="http://www.w3.org/2000/svg">
<g opacity="0.7">
<path d="M2.44711 36.7921H2.99821V39.4936H3.4181V36.7921H3.96264V36.3787H2.44711V36.7921Z" fill="white"/>
<path d="M7.42015 37.7266H6.23922V36.3794H5.81934V39.4943H6.23922V38.1329H7.42015V39.4943H7.8466V36.3794H7.42015V37.7266Z" fill="white"/>
<path d="M9.97226 39.4943H11.5272V39.0809H10.3921V38.1258H11.5272V37.7195H10.3921V36.7928H11.5272V36.3794H9.97226V39.4943Z" fill="white"/>
<path d="M16.9922 36.3722H16.1656V39.4943H16.5855V38.2611H16.9922C17.6811 38.2611 18.0091 37.8691 18.0091 37.3131C18.0091 36.7642 17.6746 36.3722 16.9922 36.3722ZM16.9922 37.8477H16.5855V36.7999H16.9922C17.4712 36.7999 17.5893 37.0921 17.5893 37.3273C17.5893 37.5554 17.4712 37.8477 16.9922 37.8477Z" fill="white"/>
<path d="M21.2829 36.3148C20.4038 36.3148 19.7936 37.0846 19.7936 37.9329C19.7936 38.7882 20.43 39.5509 21.2829 39.5509C22.1423 39.5509 22.7787 38.7954 22.7722 37.94C22.7722 37.049 22.1358 36.3148 21.2829 36.3148ZM21.2829 39.1304C20.5415 39.1304 20.2069 38.439 20.2069 37.9329C20.2069 37.441 20.5481 36.7354 21.2829 36.7354C21.998 36.7354 22.3589 37.3983 22.3589 37.9543C22.3589 38.439 22.0177 39.1304 21.2829 39.1304Z" fill="white"/>
<path d="M26.853 38.7031H26.8464L26.3019 36.3794H26.0001L25.4359 38.7245H25.4293L24.8848 36.3794H24.4518L25.2522 39.4943H25.6261L26.1444 37.3203H26.151L26.6693 39.4943H27.0432L27.8436 36.3794H27.4106L26.853 38.7031Z" fill="white"/>
<path d="M29.7003 39.4943H31.2421V39.0809H30.1202V38.1258H31.2421V37.7195H30.1202V36.7928H31.2421V36.3794H29.7003V39.4943Z" fill="white"/>
<path d="M35.2114 37.3701C35.2114 37.1135 35.1261 36.8213 34.9489 36.6359C34.798 36.4791 34.5881 36.3722 34.1813 36.3722H33.2891V39.4943H33.7089V38.0473H33.7155L34.6603 39.4943V39.4871H35.1851L34.3847 38.3253C34.575 38.3253 35.2114 38.197 35.2114 37.3701ZM33.9911 37.9831H33.7089V36.7927H34.1485C34.6209 36.7927 34.7849 37.1135 34.7849 37.3772C34.7849 37.976 34.1682 37.9831 33.9911 37.9831Z" fill="white"/>
<path d="M44.2126 36.3148C43.3335 36.3148 42.7233 37.0846 42.7233 37.9329C42.7233 38.7882 43.3597 39.5509 44.2126 39.5509C45.0655 39.5509 45.7085 38.7954 45.7019 37.94C45.7019 37.049 45.0721 36.3148 44.2126 36.3148ZM44.2126 39.1304C43.4713 39.1304 43.1367 38.439 43.1367 37.9329C43.1367 37.441 43.4778 36.7354 44.2126 36.7354C44.9277 36.7354 45.2886 37.3983 45.2886 37.9543C45.2886 38.439 44.954 39.1304 44.2126 39.1304Z" fill="white"/>
<path d="M52.3217 37.7266H51.1408V36.3794H50.7143V39.4943H51.1408V38.1329H52.3217V39.4943H52.7416V36.3794H52.3217V37.7266Z" fill="white"/>
<path d="M55.7005 36.3722L54.6114 39.4943H55.051L55.3659 38.5819H56.3959L56.7108 39.4943H57.157L56.0679 36.3722H55.7005ZM55.5168 38.1613L55.8842 36.9709H55.8907L56.2581 38.1613H55.5168Z" fill="white"/>
<path d="M59.8141 38.7174L58.9743 36.3794H58.5282L59.6894 39.4943H59.9387L61.0869 36.3794H60.6473L59.8141 38.7174Z" fill="white"/>
<path d="M62.937 39.4943H64.4853V39.0809H63.3503V38.1258H64.4853V37.7195H63.3503V36.7928H64.4853V36.3794H62.937V39.4943Z" fill="white"/>
<path d="M69.1696 36.3794H69.5895V39.4943H69.1696V36.3794Z" fill="white"/>
<path d="M71.433 36.7928H71.9841V39.4943H72.404V36.7928H72.9551V36.3794H71.433V36.7928Z" fill="white"/>
<path d="M40.2959 36.7928H40.847V39.4943H41.2669V36.7928H41.818V36.3794H40.2959V36.7928Z" fill="white"/>
<path d="M78.3087 36.3722L77.2196 39.4943H77.6592L77.9741 38.5819H79.0041L79.3191 39.4943H79.7717L78.6827 36.3722H78.3087ZM78.125 38.1613L78.4924 36.9709H78.499L78.8664 38.1613H78.125Z" fill="white"/>
<path d="M82.0614 36.3794H81.6481V39.4943H83.0586V39.0809H82.0614V36.3794Z" fill="white"/>
<path d="M85.3221 39.0809V36.3794H84.9088V39.4943H86.3259V39.0809H85.3221Z" fill="white"/>
<mask id="mask0_1_942" style="mask-type:alpha" maskUnits="userSpaceOnUse" x="41" y="16" width="20" height="14">
<path d="M54.5196 16.2067C54.5196 16.2067 52.7875 18.2595 51.2064 19.9489C49.6253 21.6311 46.9879 24.2471 46.9879 24.2471L46.2465 16.2138H41.6737L42.6316 29.1226H47.7948L60.2471 16.2067H54.5196Z" fill="white"/>
</mask>
<g mask="url(#mask0_1_942)">
<path d="M41.6859 16.2067H60.2528V29.1155H41.6859V16.2067Z" fill="white"/>
</g>
<mask id="mask1_1_942" style="mask-type:alpha" maskUnits="userSpaceOnUse" x="73" y="16" width="17" height="14">
<path d="M77.3771 16.2067C77.259 16.7769 76.4652 20.5049 74.0508 26.4425C73.795 27.0626 73.8147 27.7398 74.1099 28.2031C74.5035 28.809 75.3499 29.1155 76.6423 29.1155H87.3166L89.3898 26.5993H79.7915C79.3978 26.5993 78.8861 26.5352 78.6893 26.2073C78.5974 26.0718 78.5318 25.8224 78.6762 25.4303C78.6827 25.4089 79.6012 23.3133 80.605 19.8063C81.1627 17.8319 83.085 16.3706 83.3211 16.2423C83.3474 16.2352 83.3736 16.2209 83.3999 16.2067C83.3933 16.2067 77.3771 16.2067 77.3771 16.2067Z" fill="white"/>
</mask>
<g mask="url(#mask1_1_942)">
<path d="M73.7894 16.2067H89.3908V29.1155H73.7894V16.2067Z" fill="white"/>
</g>
<mask id="mask2_1_942" style="mask-type:alpha" maskUnits="userSpaceOnUse" x="18" y="16" width="21" height="14">
<path d="M26.4659 24.1758C27.5288 22.8785 29.2871 21.0608 30.5992 20.0914C31.9179 19.122 33.3678 18.9723 33.932 18.9509L34.0829 18.9438L34.0108 19.0935C33.9977 19.1149 32.7249 21.7237 31.8195 24.2684L31.7998 24.3255H26.3282L26.4659 24.1758ZM29.6413 17.8033C28.2111 18.6159 25.6852 20.4835 23.5333 22.6646C21.2174 24.9955 18.6718 28.3528 18.101 29.1155H22.8707V29.1084L22.8772 29.1012C23.0281 28.8731 23.4087 28.3029 23.7367 27.9821C24.8979 26.8345 26.3479 26.6064 28.3161 26.6064H31.0388L30.9994 26.7347C30.9994 26.749 30.6123 27.918 30.3105 29.1155H34.2076C34.3388 28.6237 35.1589 25.6014 36.1889 22.629C37.1009 19.9703 38.1768 17.3044 38.6361 16.2067C35.4738 16.2067 32.2066 16.3492 29.6413 17.8033Z" fill="white"/>
</mask>
<g mask="url(#mask2_1_942)">
<path d="M18.101 16.2067H38.6164V29.1155H18.101V16.2067Z" fill="white"/>
</g>
<mask id="mask3_1_942" style="mask-type:alpha" maskUnits="userSpaceOnUse" x="53" y="16" width="21" height="14">
<path d="M61.8676 24.1686C62.1104 23.9405 62.5172 23.5057 62.9895 23.0067C63.9146 22.0231 65.0693 20.8042 65.85 20.1484C66.9981 19.2004 68.4087 19.0008 68.9663 18.958L69.1041 18.9509L69.0582 19.0935C69.0582 19.0935 68.763 19.9417 68.1266 21.7593C67.4705 23.634 67.1884 24.2684 67.1753 24.2969L67.1556 24.3468H61.6905L61.8676 24.1686ZM67.8051 16.7056C67.0047 16.8767 66.2174 17.1689 65.4104 17.5895C63.9671 18.3236 62.2678 20.0201 60.7982 21.5526C58.4823 23.9548 54.0997 28.2244 53.1747 29.1226H58.0231L58.0296 29.1154C58.0296 29.1083 58.5676 28.4383 58.9481 28.0605C59.8732 27.1766 61.474 26.6492 63.3372 26.6278H66.2174L65.1808 29.1368H69.2288C69.4125 28.6664 70.7049 25.3732 71.7743 22.2512C72.3779 20.5048 72.9946 18.509 73.631 16.3135C73.6376 16.2779 73.6507 16.2494 73.6573 16.2209C70.4163 16.2066 68.6908 16.4775 67.8051 16.7056Z" fill="white"/>
</mask>
<g mask="url(#mask3_1_942)">
<path d="M53.1747 16.2075H73.6573V29.1163H53.1747V16.2075Z" fill="white"/>
</g>
<mask id="mask4_1_942" style="mask-type:alpha" maskUnits="userSpaceOnUse" x="0" y="16" width="22" height="14">
<path d="M16.1394 16.2067C14.9257 18.1883 13.4823 21.0822 13.4692 21.1107L13.4429 21.1606H13.3905C13.3183 21.1606 13.2527 21.1606 13.174 21.1606C11.2385 21.1606 8.83732 21.6168 7.63015 22.0588L7.4202 22.1372L7.51861 21.9305C8.94885 18.9011 10.2544 16.784 10.6153 16.2138H5.7997C5.57664 16.5417 3.96926 18.9795 2.51278 22.3154C1.11535 25.5016 0.295259 28.4954 0.131241 29.1297H4.97305C5.09771 28.5809 5.88499 25.3662 7.37428 24.3825C8.71923 23.5057 11.0286 23.406 11.9537 23.406H12.3079L12.4392 23.4131L12.3867 23.5485C11.6453 25.2949 10.6809 28.4597 10.4709 29.1297H15.444C15.5817 28.752 16.3297 26.6706 17.9567 22.6361C18.9015 20.2839 20.6991 16.948 21.0927 16.2209H16.146V16.2067H16.1394Z" fill="white"/>
</mask>
<g mask="url(#mask4_1_942)">
<path d="M0.136826 16.2067H21.0918V29.1155H0.136826V16.2067Z" fill="white"/>
</g>
</g>
</svg>
