<svg width="90" height="55" viewBox="0 0 90 55" fill="none" xmlns="http://www.w3.org/2000/svg">
<g opacity="0.7">
<path fill-rule="evenodd" clip-rule="evenodd" d="M45 9.88074C69.8198 9.88074 89.9457 18.2323 89.9457 28.5385C89.9457 38.8446 69.8198 47.1962 45 47.1962C20.1724 47.1962 0.0543213 38.8446 0.0543213 28.5385C0.0543213 18.2323 20.1802 9.88074 45 9.88074ZM45.5565 12.7237L44.9845 12.7238C32.7879 12.673 20.7 15.1269 14.2371 18.4269C12.2121 19.7215 11.1259 20.8807 9.04656 25.1369C7.41725 28.6146 5.81122 31.94 8.09225 33.7C11.5991 36.6869 19.3423 39.6654 26.3948 40.8923C28.5129 41.2815 30.2043 40.6215 32.0742 39.9615C33.5948 39.42 35.2397 38.8869 37.3345 38.9123H52.6578C54.7526 38.8954 56.3974 39.4285 57.9181 39.9615C59.7957 40.63 61.4793 41.29 63.5974 40.8923C70.6423 39.6738 78.3931 36.6954 81.8923 33.7C84.1811 31.94 82.5673 28.6146 80.9302 25.1369C78.8509 20.8723 77.7647 19.7215 75.7397 18.4269C69.2845 15.1269 57.1888 12.6815 44.9845 12.7238L45.5565 12.7237ZM46.4198 19.5692C48.0882 19.6182 48.6167 20.9732 48.6454 21.0775L48.6466 21.0838L54.2328 34.1992H50.2216C48.5307 34.1992 48.0086 33.0741 47.9735 32.9937L47.9716 32.9892L45.4578 27.0746L45.4267 27.0154C45.2167 26.5099 44.7567 26.491 44.6963 26.4907L44.6897 26.4908H43.9836C43.9836 26.4908 43.5443 26.476 43.2965 26.9143L43.2466 27.0154L43.2233 27.0746L40.7095 32.9892C40.7095 32.9892 40.2478 34.1143 38.6426 34.1947L38.4595 34.1992H34.4483L40.0345 21.0838C40.0345 21.0838 40.5034 19.7305 42.0883 19.5808L42.269 19.5692H46.4198ZM61.9462 19.569L61.9526 19.5692H73.319C74.1835 19.5692 74.1613 20.4979 74.1573 20.5863L74.1569 23.1908H64.35C63.3849 23.1908 62.0446 24.0169 61.9571 25.5402L61.9526 25.7123V28.0731C61.9526 29.6233 63.2512 30.5048 64.2413 30.5658L64.35 30.5692H74.1569V33.1669C74.1569 33.1669 74.2202 34.0956 73.4421 34.184L73.319 34.1908L61.9275 34.1914C61.6554 34.1967 59.2393 34.199 57.9957 32.6592C56.6224 30.9246 56.7 29.0969 56.7 29.0969L56.6998 24.6578C56.6961 24.5489 56.6578 22.7812 57.9957 21.1008C59.277 19.5143 61.8029 19.5648 61.9462 19.569ZM18.8767 19.5522L31.3928 19.5528C31.4954 19.5583 31.8851 19.6111 31.9366 20.0937L31.9423 20.2038V23.0808H31.9345L31.9347 29.0768C31.9384 29.1857 31.9767 30.9534 30.6388 32.6338C29.4025 34.1736 26.9799 34.1713 26.7071 34.166L15.331 34.1654C14.4155 34.1654 14.4854 33.1415 14.4854 33.1415V30.5438H24.2767C25.2419 30.5438 26.5749 29.7256 26.6689 28.218L26.6742 28.0477V24.7984C26.6742 24.46 26.6431 24.24 26.6276 24.1892C26.4755 23.6048 26.0126 23.1678 25.4469 23.0915L25.3242 23.0808H18.1164V20.3054C18.1164 19.9816 18.2651 19.6061 18.7643 19.5575L18.8767 19.5522Z" fill="white"/>
</g>
</svg>
