<svg width="90" height="56" viewBox="0 0 90 56" fill="none" xmlns="http://www.w3.org/2000/svg">
<g opacity="0.7">
<path fill-rule="evenodd" clip-rule="evenodd" d="M62.5685 8.45639C62.5817 8.33203 62.5949 8.20767 62.6083 8.0833V7.66664C60.8767 9.42807 58.8039 10.8175 56.5166 11.75C56.0007 11.9728 55.4815 12.1912 54.9622 12.4095C54.0638 12.7874 53.1652 13.1653 52.2833 13.5666C49.7072 14.6568 47.5079 16.4794 45.9583 18.8083C45.8358 19.0149 45.711 19.2247 45.5851 19.4364C45.2996 19.9162 45.0083 20.4059 44.725 20.8916C44.7114 20.8678 44.7075 20.8732 44.7025 20.8799C44.6954 20.8896 44.686 20.9024 44.6416 20.8333C44.5666 20.7166 44.5 20.6 44.4333 20.475C43.1042 17.9331 41.0196 15.8659 38.4666 14.5583C37.0393 13.8546 35.5591 13.2461 34.085 12.6401C33.7087 12.4854 33.3328 12.3309 32.9583 12.175C30.9894 11.4184 29.1571 10.3461 27.5333 8.99997C27.2127 8.73665 26.9315 8.46154 26.641 8.17733C26.5085 8.04779 26.3742 7.91636 26.2333 7.7833C26.1752 7.85673 26.1182 7.92454 26.0631 7.99003C25.9682 8.10293 25.8791 8.20894 25.8 8.32497C24.6367 9.91085 23.801 11.7126 23.3416 13.625C22.6568 16.4416 22.5098 19.3622 22.9083 22.2333C23.2641 26.1174 25.1279 29.7074 28.1 32.2333C30.2513 33.9569 32.7636 35.1732 35.45 35.7916C39.5074 36.7413 43.6872 37.0589 47.8416 36.7333C50.9811 36.6037 54.0779 35.959 57.0083 34.825C59.1346 34.0544 61.0506 32.7957 62.6021 31.1502C64.1536 29.5046 65.2974 27.5179 65.9416 25.35C66.8159 22.3776 67.06 19.2554 66.6583 16.1833C66.4007 13.3736 65.4093 10.6809 63.7833 8.37497C63.6768 8.22112 63.5535 8.07567 63.4044 7.89985C63.3435 7.82805 63.2784 7.7512 63.2083 7.66664C63.1246 7.85689 63.0604 8.05512 63.0166 8.2583C62.8666 9.39997 62.725 10.5416 62.6 11.6833C62.5717 11.8693 62.5947 12.0595 62.6666 12.2333C63.6909 14.7329 64.1546 17.4267 64.025 20.125C64.0214 22.8262 63.2778 25.4749 61.875 27.7833C60.0469 30.5998 57.2712 32.6691 54.05 33.6166C47.9165 35.7026 41.274 35.7552 35.1083 33.7666C33.1814 33.2227 31.4017 32.2519 29.9014 30.9261C28.401 29.6003 27.2185 27.9536 26.4416 26.1083C26.3662 25.956 26.2614 25.82 26.1333 25.7083C25.2285 24.9774 24.4867 24.0653 23.9557 23.0305C23.4247 21.9957 23.1161 20.8612 23.05 19.7V17.8916C23.0983 15.4948 23.6342 13.133 24.625 10.95C24.8932 10.3777 25.2127 9.83093 25.5314 9.28538C25.6583 9.06835 25.785 8.8515 25.9083 8.6333L26.0666 8.69163C26.1833 9.34163 26.3 9.99997 26.4 10.65C26.422 10.9903 26.5269 11.3201 26.7056 11.6105C26.8842 11.901 27.1312 12.1434 27.425 12.3166C28.143 12.7892 28.8857 13.2232 29.65 13.6166C30.8716 14.1454 32.1032 14.6493 33.3339 15.1527C34.3531 15.5696 35.3716 15.9863 36.3833 16.4166C39.6696 17.6667 42.4403 19.9853 44.25 23L44.6916 23.7583C44.7622 23.6218 44.8275 23.5039 44.8875 23.3956C44.9337 23.3122 44.9767 23.2345 45.0166 23.1583C46.4741 20.2863 48.8296 17.9688 51.725 16.5583C53.0733 15.9132 54.4666 15.3629 55.8545 14.8148C56.2594 14.6549 56.6639 14.4951 57.0666 14.3333C58.7682 13.7352 60.3738 12.893 61.8333 11.8333C62.0504 11.6437 62.1948 11.3844 62.2416 11.1C62.3804 10.2233 62.4744 9.34024 62.5685 8.45639ZM27.1833 13.025C27.1157 12.8992 27.0376 12.7793 26.95 12.6666C26.3302 14.6096 26.0098 16.6356 26 18.675C25.8909 21.48 26.6568 24.2495 28.1916 26.6C28.3086 26.807 28.4782 26.9795 28.6833 27.1C29.9416 27.7832 31.0905 28.6512 32.0916 29.675C33.162 30.6281 34.3736 31.4095 35.6833 31.9916C37.8868 32.886 40.2314 33.3826 42.6083 33.4583C45.9128 33.7335 49.2401 33.4661 52.4583 32.6666C55.3173 31.9651 57.8144 30.2281 59.4666 27.7916C59.5404 27.679 59.6335 27.5802 59.7416 27.5C61.2157 26.4278 62.2893 24.8938 62.7916 23.1416C63.5097 20.841 63.6893 18.4061 63.3166 16.025C63.2177 15.2684 63.0334 14.528 62.8489 13.7869C62.7692 13.4668 62.6895 13.1467 62.6166 12.825H62.4083L62.4077 12.8261C62.0079 13.6591 61.6081 14.492 61.2249 15.325C61.1872 15.4585 61.1872 15.5998 61.2249 15.7333C61.5057 17.9967 61.4692 20.2883 61.1166 22.5416C60.8226 24.8954 59.8104 27.1014 58.2179 28.8594C56.6254 30.6174 54.5299 31.842 52.2166 32.3666C49.091 33.1078 45.8692 33.358 42.6666 33.1083C40.5707 33.034 38.4978 32.6463 36.5166 31.9583C34.89 31.4246 33.411 30.5171 32.1983 29.3088C30.9856 28.1004 30.0729 26.6247 29.5333 25C28.7043 22.4342 28.4204 19.7235 28.7 17.0416C28.782 16.507 28.6884 15.9602 28.4333 15.4833C28.0167 14.6917 27.6 13.8585 27.1834 13.0252L27.1833 13.025ZM61.7845 12.7934L61.8333 12.6666C61.6409 12.7763 61.4534 12.8859 61.2685 12.9941C60.6526 13.3543 60.0659 13.6974 59.425 13.9666C57.525 14.8 55.575 15.6166 53.5916 16.3416C50.2768 17.4486 47.4911 19.7472 45.775 22.7916L45.7748 22.7918C45.4499 23.3668 45.1249 23.9417 44.7666 24.5583C44.7286 24.4961 44.692 24.4424 44.658 24.3927C44.6101 24.3225 44.5674 24.2599 44.5333 24.1916C43.7962 22.7483 42.8561 21.4181 41.7416 20.2416C39.8694 18.4613 37.6146 17.1329 35.15 16.3583C32.5688 15.5419 30.0932 14.423 27.775 13.025C27.7682 13.0216 27.7573 13.0278 27.7423 13.0364C27.7203 13.049 27.6895 13.0666 27.65 13.0666C27.7363 13.2939 27.8208 13.5212 27.9053 13.7485C28.1307 14.3545 28.356 14.9606 28.6166 15.5666C28.7266 15.7915 28.9169 15.9669 29.15 16.0583L29.1501 16.0583C31.425 16.825 33.7 17.5917 36 18.2916C39.0208 19.0887 41.6429 20.9692 43.3666 23.575C43.7201 24.1022 44.0478 24.6812 44.3836 25.2746C44.5149 25.5066 44.6475 25.7408 44.7833 25.975C44.9659 25.6642 45.1412 25.3546 45.3152 25.0472C45.5937 24.5551 45.8691 24.0686 46.1666 23.5916C47.7291 21.0134 50.1707 19.0868 53.0416 18.1666C55.4823 17.3336 57.9064 16.5006 60.3304 15.6676L60.3333 15.6666L60.3415 15.6636C60.4987 15.6057 60.7008 15.5313 60.75 15.4166C61.1007 14.5717 61.4285 13.7192 61.7845 12.7934ZM52.15 1.6333C48.576 0.995122 44.9337 0.829816 41.3166 1.14164C37.9701 1.31567 34.6908 2.14823 31.6666 3.59164C29.8054 4.4993 28.158 5.79167 26.8333 7.3833C27.2212 7.71691 27.5784 8.0415 27.9285 8.35957C28.3304 8.72479 28.7229 9.08143 29.1416 9.4333C29.4093 9.63915 29.6875 9.83107 29.975 10.0083C30.375 10.275 30.625 10.2 30.9583 9.79997C31.623 8.93706 32.368 8.13905 33.1833 7.41664C34.8741 6.06969 36.8829 5.1801 39.0166 4.8333C42.6216 4.14609 46.3191 4.09533 49.9416 4.6833C52.4196 4.9884 54.7661 5.96852 56.725 7.51664C57.2335 7.94731 57.6806 8.4329 58.1468 8.93922C58.4293 9.24606 58.7188 9.56052 59.0333 9.87497L62.7 7.01663C62.4249 6.77913 62.1958 6.54996 61.977 6.33121C61.7583 6.11247 61.5499 5.90413 61.3166 5.7083C58.677 3.56026 55.5131 2.15375 52.15 1.6333ZM35.4583 2.49997C39.3407 1.50027 43.3592 1.13444 47.3583 1.41664C50.7717 1.50104 54.1388 2.2276 57.2833 3.5583C58.972 4.30226 60.5132 5.34383 61.8333 6.6333L62.1 6.97497L61.4 7.44164C61.1666 7.59997 60.9333 7.74164 60.7 7.87497C60.5916 7.9333 60.35 7.8333 60.2333 7.72497C58.1683 5.87236 55.7218 4.49552 53.0666 3.69164C51.0861 3.11089 49.0382 2.79152 46.9749 2.74164C43.7745 2.5309 40.5603 2.78634 37.4333 3.49997C34.3871 4.27269 31.5952 5.82662 29.3333 8.0083C29.2864 8.07204 29.2265 8.12508 29.1576 8.16393C29.0887 8.20277 29.0123 8.22653 28.9335 8.23362C28.8547 8.24071 28.7753 8.23098 28.7006 8.20506C28.6258 8.17915 28.5574 8.13764 28.5 8.0833C28.2963 7.91267 28.049 7.76386 27.7821 7.60324C27.6449 7.52068 27.5026 7.435 27.3583 7.34164C27.4101 7.28188 27.46 7.22354 27.5086 7.16664C27.6636 6.9855 27.8061 6.81883 27.9583 6.66664C30.0591 4.65693 32.642 3.22198 35.4583 2.49997ZM80.803 45.0011H79.8234H77.8642H72.167V47.6575H79.9437C80.2356 47.665 80.525 47.7134 80.803 47.8013C80.9288 47.8402 81.0415 47.9118 81.1292 48.0087C81.217 48.1055 81.2765 48.2239 81.3014 48.3513C81.3363 48.6577 81.3363 48.967 81.3014 49.2734H76.1456H75.0628C74.6669 49.2874 74.273 49.3355 73.8856 49.4172C73.4176 49.4966 72.9755 49.6846 72.596 49.9655C72.2164 50.2465 71.9103 50.6125 71.7029 51.0331C71.3851 51.637 71.2536 52.3193 71.3248 52.9959C71.3774 53.6061 71.5971 54.1909 71.9607 54.6879C72.1934 55.0178 72.4944 55.2954 72.8439 55.5025C73.1935 55.7096 73.5836 55.8414 73.9887 55.8892C74.6415 55.9682 75.2988 56.005 75.9565 55.9992H84.9965V48.4105C85.0012 48.3626 85.0012 48.3145 84.9965 48.2667V47.5475C84.9628 47.2165 84.8608 46.8956 84.6968 46.6047C84.5328 46.3137 84.3102 46.0588 84.0426 45.8555C83.6771 45.569 83.256 45.3589 82.8052 45.2379C82.1516 45.0712 81.4782 44.9916 80.803 45.0011ZM66.8392 45.0941C66.1397 45.0249 65.4369 44.9939 64.7339 45.0011V45.0518H54.1816C54.0828 45.0487 53.986 45.0785 53.9066 45.1364L50.392 47.4968L41.0255 53.7742L40.8622 53.8757V53.6896V48.7489C40.8622 48.5628 40.8472 48.3766 40.8322 48.1905C40.8171 48.0044 40.8021 47.8183 40.8021 47.6321C40.7632 47.2648 40.6411 46.9106 40.4448 46.5959C40.2485 46.2811 39.983 46.0136 39.6678 45.8132C39.3109 45.577 38.9157 45.4025 38.4991 45.2972C37.8282 45.1294 37.1376 45.0498 36.4454 45.0603H27.7234C27.6872 45.2667 27.7119 46.8979 27.7206 47.4762C27.7223 47.5853 27.7234 47.657 27.7234 47.6744H35.483C35.7734 47.6766 36.0624 47.7164 36.3423 47.7929C36.4883 47.8254 36.6218 47.8984 36.7269 48.0034C36.832 48.1084 36.9043 48.2409 36.9352 48.3851C36.9789 48.6763 36.9933 48.971 36.9782 49.2649H33.18H30.6021C30.1627 49.2734 29.7252 49.3244 29.2959 49.4172C28.8263 49.4945 28.3806 49.6755 27.9922 49.9465C27.6038 50.2176 27.2827 50.5717 27.0531 50.9823C26.7088 51.5928 26.5647 52.2932 26.6407 52.9874C26.6968 53.6011 26.926 54.1871 27.3023 54.6794C27.5593 55.0162 27.8844 55.2968 28.2571 55.5036C28.6298 55.7104 29.0421 55.8388 29.4678 55.8807C30.2035 55.9666 30.944 56.0061 31.6848 55.9992H43.0449C43.1582 56.0023 43.2696 55.9697 43.3628 55.9061L50.2373 51.3292L56.3213 47.2937L56.4931 47.1838V55.9738H64.8284C65.5893 55.9812 66.3498 55.9417 67.1056 55.8554C67.7138 55.7769 68.3107 55.6292 68.8844 55.4154C69.3395 55.2476 69.7532 54.9866 70.0984 54.6497C70.4435 54.3128 70.7121 53.9077 70.8866 53.4612C71.103 52.8367 71.2218 52.1834 71.2389 51.5238C71.3034 50.727 71.3034 49.9264 71.2389 49.1296C71.1941 48.6711 71.1049 48.2178 70.9725 47.776C70.8159 47.2451 70.5296 46.7602 70.1386 46.3634C69.7476 45.9667 69.2639 45.6703 68.7297 45.5002C68.1179 45.2923 67.4834 45.156 66.8392 45.0941ZM23.0745 45.1872C22.3841 45.0532 21.6814 44.9908 20.9778 45.0011H6V55.9992H9.96142V48.5035V47.8183H13.94V55.9992H17.7897V49.0111V47.8437H20.024C20.1841 47.8311 20.345 47.8311 20.5052 47.8437C20.8057 47.8617 21.0909 47.9807 21.313 48.1809C21.5351 48.3811 21.6807 48.6503 21.7254 48.9435C21.7571 49.145 21.7715 49.3487 21.7684 49.5526V55.9992H25.7642V55.8384V48.4359C25.77 48.0606 25.7325 47.686 25.6524 47.3191C25.5654 46.8803 25.3599 46.4728 25.0574 46.1393C24.755 45.8058 24.3668 45.5587 23.9338 45.4241C23.6534 45.3252 23.3663 45.2461 23.0745 45.1872ZM54.9807 55.9992V52.6151H49.8249C49.7685 52.6126 49.7122 52.621 49.6591 52.6398C49.606 52.6587 49.5572 52.6877 49.5155 52.7251C48.2265 53.7742 46.9462 54.8261 45.6744 55.8807C45.6518 55.8941 45.6316 55.9121 45.6075 55.9336C45.5858 55.9529 45.5609 55.9751 45.5283 55.9992H54.9807ZM76.5065 51.38H78.8266V51.3884H81.3272V53.4865H76.7643C76.4762 53.495 76.188 53.4723 75.905 53.4189C75.8428 53.4098 75.7821 53.3928 75.7245 53.3681C75.5303 53.3218 75.3569 53.2139 75.2312 53.061C75.1054 52.9081 75.0342 52.7187 75.0285 52.5221C75.0119 52.3985 75.0119 52.2734 75.0285 52.1498C75.0628 52.0051 75.1336 51.8712 75.2342 51.7603C75.3347 51.6495 75.462 51.5652 75.6042 51.5153C75.8941 51.4167 76.1999 51.3708 76.5065 51.38ZM31.9598 51.3715H36.9352V51.3546H36.9953V53.4865H36.8665H31.8996C31.6916 53.4849 31.4843 53.4622 31.2809 53.4189C31.1485 53.4045 31.0205 53.3638 30.9047 53.2991C30.7888 53.2344 30.6876 53.1471 30.6071 53.0426C30.5267 52.9381 30.4688 52.8185 30.4369 52.6912C30.405 52.5639 30.3998 52.4315 30.4216 52.3021C30.441 52.0842 30.5377 51.8799 30.6949 51.7251C30.852 51.5704 31.0595 51.4752 31.2809 51.4561C31.504 51.4072 31.7313 51.3788 31.9598 51.3715ZM60.5233 47.6998H60.6264L64.6394 47.6914C64.9964 47.6894 65.3529 47.7177 65.7049 47.776C66.035 47.804 66.3487 47.9297 66.6049 48.1366C66.861 48.3435 67.0475 48.6218 67.14 48.935C67.2508 49.2795 67.3031 49.6397 67.2947 50.001V51.3292C67.2802 51.6205 67.2133 51.907 67.097 52.1752C66.9851 52.4407 66.8037 52.6723 66.5712 52.8462C66.3387 53.0201 66.0635 53.1301 65.7737 53.1651C65.2847 53.2387 64.7901 53.2698 64.2957 53.2581H60.5233V47.6998ZM51.449 45.1026L51.5435 45.0011H42.0911V48.3851H47.4961C47.577 48.3814 47.6535 48.3482 47.711 48.292L51.449 45.1026Z" fill="white"/>
</g>
</svg>
