<svg width="90" height="55" viewBox="0 0 90 55" fill="none" xmlns="http://www.w3.org/2000/svg">
<g opacity="0.7">
<path d="M51.9693 19.6156L42.4424 39.2319H39.7208L30.1939 19.6156L39.7208 0H42.4424L32.9161 19.6156L41.0819 36.4293L49.2477 19.6156L44.484 9.80712L45.8451 7.00518L51.9693 19.6156ZM47.8854 0H45.1639L35.637 19.6156L41.7618 32.2268L43.1229 29.4248L38.3591 19.6163L46.5243 2.80194L54.6902 19.6156L45.1639 39.2319H47.8854L57.4123 19.6163L47.8854 0ZM73 47.0779V48.6647H70.2665V54.8796H68.4235V48.6647H65.6919V47.0779H73ZM62.4639 47.0779H60.6221V54.8796H66.478V53.2914H62.4639V47.0779ZM27.008 51.686H30.8393V50.1892H27.008V48.6668H31.2012V47.0786H25.1643V54.8803H31.3175V53.2921H27.0086V51.686H27.008ZM39.0321 47.0786V52.2036L34.8094 47.0786H33.2403V54.8803H34.8961V49.7553L39.0887 54.8796H40.6804V47.0779L39.0321 47.0786ZM54.8825 55C56.9656 55 58.5365 54.0194 58.5365 51.6715C58.5365 50.3117 58.5365 47.0779 58.5365 47.0779H56.6771C56.6771 47.0779 56.6771 51.5109 56.6771 51.6715C56.6771 52.4638 56.4126 53.3959 54.8818 53.3959C53.3511 53.3959 53.0865 52.4631 53.0865 51.6715C53.0865 51.5109 53.0865 47.0779 53.0865 47.0779H51.2272C51.2272 47.0779 51.2272 50.3117 51.2272 51.6715C51.2284 54.0194 52.8 55 54.8825 55ZM47.9564 53.4305H44.3526L43.8022 54.8796H41.9076L44.9578 47.0779H47.35L50.4008 54.8796H48.5056L47.9564 53.4305ZM47.3538 51.8431L46.1548 48.6854L44.9559 51.8431H47.3538ZM23.3948 54.8796L21.8936 52.0396C22.7174 51.5946 23.1504 50.7518 23.1504 49.7304C23.1504 48.2052 22.1852 47.0786 20.3955 47.0786H16V54.8803H17.8468V52.3821H20.1373L21.3651 54.8803H23.3948V54.8796ZM21.2608 49.7304C21.2608 50.347 20.8706 50.8023 20.1467 50.8023H17.8468V48.6578H20.1473C20.8706 48.6578 21.2608 49.1138 21.2608 49.7304Z" fill="white"/>
</g>
</svg>
