<svg width="90" height="55" viewBox="0 0 90 55" fill="none" xmlns="http://www.w3.org/2000/svg">
<g opacity="0.7">
<path d="M11.62 42C16.53 42 18.62 43.85 18.62 46.18H13.71C13.5208 45.7774 13.2252 45.4341 12.8551 45.1874C12.4849 44.9406 12.0544 44.7998 11.61 44.78C11.18 44.78 9.87 44.78 9.87 45.78C9.87 46.48 11.56 46.59 13.41 46.86C17.87 47.48 18.94 49.22 18.94 50.93C18.94 52.64 17.55 55 12.34 55C6.68 55 5 53.43 5 50.72H10.33C11.03 52.08 11.89 52.17 12.33 52.17C12.77 52.17 14.03 52.11 14.03 51.25C14.03 50.08 11.81 50.19 11.45 50.16C7.18 49.66 5.22 48.85 5.22 46.09C5.24 44.61 6.17 42 11.62 42ZM24.24 42.27V49.79C24.24 51.07 25.18 51.79 26.65 51.79C28.12 51.79 29.07 51.03 29.07 49.79V42.27H33.18V50.27C33.18 53.43 31.86 54.86 26.65 54.86C21.44 54.86 20.12 53.43 20.12 50.27V42.27H24.24ZM52.47 42.27V49.79C52.47 51.07 53.41 51.79 54.88 51.79C56.35 51.79 57.29 51.03 57.29 49.79V42.27H61.42V50.27C61.42 53.43 60.09 54.86 54.88 54.86C49.67 54.86 48.34 53.43 48.34 50.27V42.27H52.47ZM47.33 42.27V44.89L40.73 51.43H47.3V54.57H34.09V52L40.6 45.4H34.31V42.27H47.33ZM66.82 42.27V46.52L71.39 42.27H77L70.51 48.27L76.8 54.59H71.07L66.82 50.2V54.57H62.51V42.27H66.82ZM82 42.27V54.57H77.7V42.27H82Z" fill="white"/>
<path d="M60 25.72C60 25.72 56.82 26.72 50.67 30.83C47.8754 32.572 45.3003 34.6435 43 37L26 24.21C26 24.21 33.15 18.48 39.13 22.87L47.13 28.87L48.13 28.18L26 11.29C26 11.29 29.18 10.29 35.32 6.18C38.1116 4.42561 40.689 2.3516 43 0L60 12.79C60 12.79 52.85 18.51 46.87 14.13L38.87 8.13L37.87 8.82L60 25.72Z" fill="white"/>
</g>
</svg>
